<svg width="400" height="400" viewBox="0 0 400 400" fill="none" xmlns="http://www.w3.org/2000/svg">
<g clip-path="url(#clip0_3334_1832)">
<rect width="400" height="400" fill="white"/>
<g clip-path="url(#clip1_3334_1832)">
<path d="M-30 0C168 0 366 0 570 0C570 132 570 264 570 400C372 400 174 400 -30 400C-30 268 -30 136 -30 0Z" fill="#EE1C24"/>
<path d="M69.332 40.667C69.772 40.667 70.212 40.667 70.6654 40.667C71.1667 42.1526 71.6665 43.6388 72.1654 45.1253C72.4438 45.9529 72.7222 46.7805 73.0091 47.6331C73.7819 49.9698 74.5091 52.3184 75.2279 54.6722C76.2494 58.0099 77.304 61.3349 78.3841 64.654C78.5299 65.1024 78.6757 65.5509 78.8259 66.0129C79.426 67.8577 80.027 69.7023 80.6302 71.5461C81.0777 72.9148 81.5228 74.2843 81.9674 75.654C82.2298 76.4576 82.4921 77.2613 82.7624 78.0894C83.332 80.0003 83.332 80.0003 83.332 81.3337C97.632 81.3337 111.932 81.3337 126.665 81.3337C124.162 83.8373 122.057 85.6785 119.207 87.667C118.378 88.2499 117.549 88.8333 116.72 89.417C116.281 89.7255 115.841 90.034 115.388 90.3519C112.91 92.1027 110.456 93.8868 107.999 95.667C102.902 99.3537 97.7891 103.018 92.6654 106.667C93.6138 111.347 94.9559 115.785 96.4857 120.305C96.9707 121.762 97.4555 123.219 97.9401 124.676C98.7011 126.954 99.4643 129.23 100.232 131.505C100.975 133.714 101.71 135.926 102.444 138.138C102.677 138.82 102.909 139.502 103.149 140.205C103.358 140.839 103.567 141.474 103.783 142.127C103.97 142.684 104.157 143.24 104.35 143.813C104.693 145.465 104.54 146.42 103.999 148C103.678 147.763 103.357 147.526 103.026 147.281C96.5583 142.499 90.0819 137.731 83.5389 133.052C81.2967 131.443 79.0795 129.821 76.9206 128.102C76.5566 127.815 76.1926 127.528 75.8175 127.233C74.867 126.478 73.9259 125.711 72.9857 124.943C71.4154 123.837 71.4154 123.837 69.735 124.158C67.8795 124.702 66.7637 125.373 65.2305 126.539C64.7176 126.924 64.2048 127.309 63.6764 127.705C63.1365 128.119 62.5966 128.532 62.0404 128.959C60.8993 129.817 59.7578 130.674 58.6159 131.532C57.7762 132.165 57.7762 132.165 56.9196 132.812C54.8038 134.396 52.657 135.933 50.4987 137.459C45.6245 140.917 40.8103 144.456 35.9987 148C35.1271 145.575 35.5493 144.106 36.3579 141.697C36.5982 140.969 36.8385 140.242 37.0861 139.492C37.352 138.71 37.6179 137.928 37.8919 137.123C38.1592 136.317 38.4265 135.512 38.7019 134.682C39.4128 132.543 40.1292 130.406 40.849 128.27C41.8628 125.258 42.8685 122.243 43.8717 119.228C44.4062 117.623 44.944 116.019 45.4853 114.416C45.7277 113.69 45.9701 112.965 46.2199 112.218C46.4351 111.579 46.6503 110.94 46.872 110.282C47.4234 108.626 47.4234 108.626 47.332 106.667C46.0495 105.599 44.7958 104.677 43.4154 103.75C42.5513 103.152 41.6876 102.553 40.8242 101.953C40.1328 101.477 40.1328 101.477 39.4274 100.992C36.9971 99.3052 34.6029 97.5688 32.207 95.8337C31.7131 95.4765 31.2192 95.1193 30.7103 94.7513C26.7713 91.8999 22.839 89.0395 18.9154 86.167C18.3579 85.7612 17.8004 85.3553 17.2261 84.9372C16.7162 84.5627 16.2063 84.1882 15.681 83.8024C15.2267 83.47 14.7724 83.1377 14.3044 82.7952C13.9835 82.5329 13.6626 82.2706 13.332 82.0003C13.332 81.7803 13.332 81.5603 13.332 81.3337C27.632 81.3337 41.932 81.3337 56.6654 81.3337C57.1054 79.3537 57.5454 77.3737 57.9987 75.3337C58.5092 73.7064 59.048 72.0877 59.6159 70.4795C59.844 69.8271 59.844 69.8271 60.0767 69.1616C60.3978 68.2435 60.7202 67.3258 61.0438 66.4086C63.813 58.5548 66.4286 50.6911 68.6654 42.667C68.8854 42.007 69.1054 41.347 69.332 40.667Z" fill="#FEFC00"/>
<path d="M201.335 62.667C204.284 65.1348 206.959 67.6159 209.486 70.5186C210.632 71.4832 210.632 71.4832 212.15 71.2764C214.603 70.4691 216.887 69.4145 219.21 68.292C219.672 68.0724 220.133 67.8529 220.609 67.6266C221.742 67.0878 222.872 66.5445 224.001 66.0003C222.935 69.5315 221.332 72.4052 219.431 75.5446C218.569 77.2596 218.569 77.2596 218.632 78.9639C219.67 81.4801 221.415 83.0308 223.376 84.8753C223.755 85.2418 224.133 85.6084 224.523 85.986C225.455 86.8858 226.394 87.7773 227.335 88.667C225.309 89.2935 223.863 89.3328 221.783 88.9613C220.983 88.8227 220.983 88.8227 220.168 88.6813C219.618 88.5803 219.068 88.4794 218.501 88.3753C217.941 88.2769 217.381 88.1785 216.803 88.0771C215.424 87.8342 214.046 87.5846 212.668 87.3337C212.491 87.9129 212.314 88.4921 212.132 89.0889C211.348 91.297 210.396 93.2096 209.251 95.2503C208.892 95.8949 208.533 96.5394 208.163 97.2035C207.753 97.9279 207.753 97.9279 207.335 98.667C206.05 96.7403 205.684 95.7118 205.251 93.5003C205.14 92.9538 205.028 92.4072 204.913 91.8441C204.668 90.0003 204.668 90.0003 204.668 85.3337C197.738 84.3437 197.738 84.3437 190.668 83.3337C190.668 82.8937 190.668 82.4537 190.668 82.0003C192.527 81.1073 194.389 80.2199 196.251 79.3337C196.781 79.0793 197.31 78.8249 197.855 78.5628C198.363 78.3222 198.87 78.0816 199.392 77.8337C200.094 77.4985 200.094 77.4985 200.81 77.1566C202.001 76.667 202.001 76.667 203.335 76.667C203.19 75.9915 203.046 75.3161 202.897 74.6201C202.709 73.7191 202.522 72.8181 202.335 71.917C202.192 71.2518 202.192 71.2518 202.046 70.5732C201.494 67.8933 201.232 65.401 201.335 62.667Z" fill="#FEF701"/>
<path d="M208.667 120.667C209.107 120.667 209.547 120.667 210 120.667C210.669 122.527 211.335 124.388 212 126.25C212.286 127.044 212.286 127.044 212.578 127.854C212.759 128.362 212.939 128.869 213.125 129.391C213.293 129.859 213.46 130.327 213.633 130.809C214 132 214 132 214 133.334C218.62 133.334 223.24 133.334 228 133.334C225.726 135.608 223.624 137.576 221.125 139.542C220.536 140.007 219.948 140.472 219.341 140.951C218.899 141.297 218.456 141.644 218 142C218.296 142.795 218.593 143.59 218.898 144.409C219.28 145.453 219.661 146.498 220.042 147.542C220.238 148.066 220.434 148.59 220.637 149.129C220.819 149.634 221.002 150.139 221.19 150.659C221.361 151.124 221.532 151.588 221.708 152.066C222 153.334 222 153.334 221.333 155.334C220.297 154.6 220.297 154.6 219.24 153.852C218.327 153.22 217.413 152.589 216.5 151.959C216.045 151.635 215.591 151.312 215.122 150.978C214.68 150.675 214.237 150.372 213.781 150.06C213.376 149.777 212.971 149.495 212.554 149.203C211.347 148.551 211.347 148.551 209.982 148.818C207.766 149.687 206.01 151.236 204.167 152.709C203.765 153.024 203.364 153.339 202.951 153.663C201.964 154.438 200.982 155.219 200 156C199.329 153.919 199.351 152.674 199.997 150.594C200.15 150.091 200.302 149.589 200.46 149.071C200.624 148.552 200.789 148.034 200.958 147.5C201.12 146.972 201.282 146.443 201.449 145.899C201.849 144.597 202.257 143.299 202.667 142C202.197 141.836 201.727 141.672 201.242 141.503C199.078 140.555 197.358 139.36 195.458 137.959C194.808 137.483 194.157 137.008 193.487 136.519C192.996 136.128 192.506 135.737 192 135.334C192 135.114 192 134.894 192 134.667C196.474 134.08 200.823 133.924 205.333 134C205.406 133.596 205.479 133.193 205.555 132.776C206.336 128.646 207.389 124.671 208.667 120.667Z" fill="#FEF801"/>
<path d="M177.332 22C178.257 24.5682 177.718 26.6745 177.332 29.3333C177.274 31.5593 177.302 33.7727 177.332 36C183.272 38.64 183.272 38.64 189.332 41.3333C187.846 42.8197 187.245 42.9573 185.243 43.3802C184.76 43.4852 184.276 43.5901 183.777 43.6982C183.163 43.8253 182.548 43.9524 181.915 44.0833C179.963 44.4958 178.01 44.9083 175.999 45.3333C175.559 49.9533 175.119 54.5733 174.665 59.3333C172.649 56.8126 171.081 54.5614 169.499 51.7917C169.09 51.0792 168.681 50.3668 168.259 49.6328C167.953 49.094 167.647 48.5552 167.332 48C162.647 48.5512 157.992 49.2683 153.332 50C155.622 46.8737 157.933 43.9162 160.663 41.1589C161.467 40.0032 161.467 40.0032 161.275 38.4792C160.491 36.147 159.282 34.1783 157.957 32.125C157.706 31.7267 157.454 31.3284 157.195 30.918C156.579 29.9424 155.956 28.9708 155.332 28C155.772 27.78 156.212 27.56 156.665 27.3333C158.962 28.2729 161.19 29.3019 163.43 30.3672C163.898 30.5829 164.367 30.7986 164.85 31.0208C165.278 31.2241 165.706 31.4273 166.147 31.6367C167.472 32.1683 167.472 32.1683 169.332 31.3333C170.374 30.1749 171.368 28.9739 172.332 27.75C175.567 23.6633 175.567 23.6633 177.332 22Z" fill="#FEF900"/>
<path d="M176 162.667C176.22 162.667 176.44 162.667 176.667 162.667C176.887 167.067 177.107 171.467 177.333 176C181.293 177.54 185.253 179.08 189.333 180.667C187.847 182.153 187.246 182.291 185.245 182.714C184.708 182.83 184.171 182.946 183.617 183.065C183.056 183.181 182.495 183.297 181.917 183.417C181.35 183.538 180.784 183.659 180.201 183.784C178.801 184.083 177.401 184.376 176 184.667C176.008 185.231 176.015 185.794 176.023 186.375C176.057 190.544 175.98 194.547 175.333 198.667C173.105 196.599 171.492 194.376 169.833 191.834C169.362 191.115 168.891 190.397 168.406 189.657C168.052 189.11 167.698 188.563 167.333 188C162.862 188.786 158.425 189.651 154 190.667C155.759 187.55 157.943 185.01 160.302 182.334C161.47 180.768 161.47 180.768 161.346 179.076C160.435 176.741 159.09 174.804 157.625 172.792C157.2 172.195 157.2 172.195 156.767 171.585C156.072 170.609 155.37 169.637 154.667 168.667C154.887 168.227 155.107 167.787 155.333 167.334C161.933 169.974 161.933 169.974 168.667 172.667C169.107 171.787 169.547 170.907 170 170C170.879 168.83 171.784 167.678 172.708 166.542C173.184 165.955 173.659 165.368 174.148 164.763C174.743 164.046 175.341 163.326 176 162.667Z" fill="#FEFA00"/>
</g>
</g>
<defs>
<clipPath id="clip0_3334_1832">
<rect width="400" height="400" fill="white"/>
</clipPath>
<clipPath id="clip1_3334_1832">
<rect width="600" height="400" fill="white" transform="translate(-30)"/>
</clipPath>
</defs>
</svg>
