<svg width="98" height="104" viewBox="0 0 98 104" fill="none" xmlns="http://www.w3.org/2000/svg">
<path d="M50.7485 0.959973C52.7292 2.07375 54.1223 3.4652 55.5384 5.2082C55.8355 5.56538 55.8355 5.56538 56.1387 5.92976C57.663 7.76914 59.152 9.63686 60.6195 11.5215C61.2268 12.3325 61.2268 12.3325 62.118 12.7082C63.1889 12.4884 63.1889 12.4884 64.4175 12.1067C65.1202 11.9059 65.1202 11.9059 65.8371 11.701C66.8161 11.4155 67.7943 11.1271 68.7716 10.8356C75.9591 8.79704 75.9591 8.79704 78.9617 10.1508C80.5148 11.3127 81.003 12.5757 81.4882 14.3865C81.5711 15.395 81.6179 16.4069 81.6363 17.4186C81.6558 17.9955 81.6761 18.5725 81.6971 19.1494C81.7268 20.0491 81.7515 20.9478 81.7627 21.8479C81.6606 25.2035 81.6606 25.2035 82.9615 28.1127C83.8664 28.5827 84.7089 28.828 85.6991 29.0717C86.4211 29.3363 87.1409 29.6064 87.8589 29.8814C89.005 30.2932 90.1525 30.6995 91.3041 31.0959C93.8857 32.0323 96.6177 33.2081 97.9108 35.785C98.4643 40.0588 96.1786 42.8811 93.815 46.2285C93.6217 46.5062 93.4284 46.7839 93.2292 47.07C92.8479 47.6139 92.4595 48.153 92.0634 48.6864C91.2223 49.8783 90.7354 50.6149 90.8263 52.0943C91.2076 53.5369 91.7449 54.4861 92.5814 55.7199C92.8631 56.1415 93.1448 56.5631 93.4351 56.9974C93.7309 57.4309 94.0267 57.8644 94.3315 58.3111C94.9161 59.1773 95.4995 60.0443 96.0817 60.9121C96.4713 61.4847 96.4713 61.4847 96.8688 62.0687C97.998 63.8669 98.1317 65.5984 97.9108 67.6729C96.9376 69.9895 95.1415 71.4056 92.896 72.4246C91.4433 72.9967 89.9833 73.5401 88.5152 74.0715C87.5164 74.44 86.518 74.8092 85.5198 75.1794C85.0795 75.3397 84.6391 75.4999 84.1853 75.665C83.2087 75.973 83.2087 75.973 82.7515 76.4841C82.3055 79.3415 82.2033 82.1945 82.1125 85.0813C81.8691 91.025 81.8691 91.025 80.0407 93.2672C78.137 94.7477 76.2356 94.7414 73.9086 94.5259C72.0138 94.1244 70.1621 93.5969 68.3028 93.0574C67.3312 92.7802 66.3591 92.5048 65.3864 92.2314C64.9606 92.1083 64.5349 91.9853 64.0963 91.8585C62.8817 91.5241 62.8817 91.5241 61.2758 91.5889C61.1617 91.834 61.0476 92.079 60.9301 92.3316C60.4369 93.2609 59.8967 94.0003 59.2279 94.8111C58.9931 95.0972 58.7584 95.3834 58.5165 95.6781C58.1497 96.1203 58.1497 96.1203 57.7755 96.5714C57.5358 96.8629 57.2962 97.1544 57.0492 97.4548C56.3548 98.2985 55.6573 99.1396 54.9594 99.9805C54.7553 100.229 54.5511 100.478 54.3408 100.734C52.76 102.651 52.0689 103.249 49.5642 103.494C47.7292 103.577 46.2844 102.723 44.8532 101.659C43.8418 100.641 42.9662 99.5406 42.0898 98.407C41.8631 98.1225 41.6365 97.8381 41.403 97.5449C39.8505 95.5866 38.3474 93.5911 36.8524 91.5889C34.4732 92.0095 32.182 92.5515 29.8685 93.2385C23.1957 95.1983 23.1957 95.1983 20.4298 94.5259C18.3846 93.4069 17.3752 92.0991 16.64 89.9106C16.5173 88.8667 16.4323 87.8181 16.3735 86.7687C16.356 86.4736 16.3385 86.1786 16.3205 85.8746C16.2657 84.9386 16.2159 84.0025 16.1663 83.0662C16.1299 82.4289 16.0931 81.7916 16.0561 81.1543C15.9662 79.5978 15.8808 78.041 15.7978 76.4841C15.4539 76.353 15.1099 76.222 14.7556 76.087C13.4691 75.5953 12.1838 75.1007 10.8991 74.6044C10.3449 74.3909 9.79035 74.1785 9.23532 73.9672C8.43344 73.6618 7.63321 73.3524 6.83316 73.0422C6.35243 72.8576 5.8717 72.6731 5.3764 72.4829C3.44202 71.6152 1.87998 70.7872 0.691131 69.0103C0.00676309 67.0783 -0.193566 65.713 0.622045 63.7738C1.61778 61.8784 2.7535 60.0947 3.95789 58.3258C4.16941 58.0118 4.38094 57.6978 4.59888 57.3742C5.02344 56.7484 5.45489 56.1271 5.89362 55.5111C6.80465 54.1735 7.3632 53.3436 7.42203 51.7044C6.81573 50.1026 5.97193 48.8186 4.98101 47.4283C4.59837 46.8703 4.21621 46.3119 3.83452 45.7532C3.19246 44.8233 2.54828 43.895 1.90342 42.967C0.610118 40.9954 -0.165175 39.4541 0.0298843 37.0585C0.351386 35.5944 0.879724 34.7818 1.90177 33.6871C4.59233 32.2178 7.41363 31.1194 10.271 30.0158C10.7107 29.8432 11.1503 29.6707 11.6033 29.4929C14.8476 28.2326 14.8476 28.2326 15.7978 28.2326C15.8084 27.9517 15.8189 27.6708 15.8298 27.3814C15.8793 26.0829 15.9307 24.7845 15.982 23.4861C15.9986 23.0445 16.0152 22.6029 16.0322 22.1479C16.3951 13.108 16.3951 13.108 18.3244 11.0299C20.2461 9.72431 21.9556 9.52367 24.2197 9.77112C26.7725 10.3618 29.2879 11.101 31.7985 11.8485C32.3085 11.9878 32.8185 12.1271 33.3439 12.2706C33.8054 12.4046 34.2669 12.5386 34.7423 12.6767C36.0934 12.8475 36.0934 12.8475 37.1581 11.7742C37.6321 11.198 37.6321 11.198 38.1157 10.6103C38.428 10.2452 38.428 10.2452 38.7465 9.87284C38.9162 9.65375 39.0858 9.43467 39.2606 9.20895C39.4533 8.96204 39.646 8.71514 39.8445 8.46075C40.0383 8.20952 40.2321 7.95829 40.4317 7.69945C46.4417 -0.0418511 46.4417 -0.0418504 50.7485 0.959973ZM59.5933 39.8836C59.3032 40.1725 59.3032 40.1725 59.0072 40.4672C58.3764 41.0964 57.7486 41.7284 57.1208 42.3606C56.6809 42.8005 56.2407 43.2402 55.8004 43.6798C54.648 44.8312 53.4982 45.9851 52.3489 47.1396C51.1733 48.3197 49.9952 49.4973 48.8174 50.6751C46.5111 52.9821 44.2075 55.2917 41.9055 57.603C41.4382 57.2102 40.9717 56.8162 40.5056 56.4219C40.2458 56.2026 39.9859 55.9833 39.7182 55.7574C39.028 55.1475 38.3987 54.5214 37.7752 53.8449C35.5344 51.2437 35.5344 51.2437 32.5099 49.8409C30.4182 50.1235 29.8167 50.5653 28.4306 52.1485C27.8682 53.3428 27.8682 53.3428 28.0095 54.666C29.2631 57.4522 31.3168 59.3993 33.4834 61.52C34.0899 62.1144 34.6905 62.7142 35.2906 63.3149C38.1423 66.2892 38.1423 66.2892 41.8266 67.9352C46.6934 66.9843 52.1915 59.2769 55.7086 55.8062C57.0498 54.4827 58.3941 53.1628 59.7464 51.8507C61.0629 50.5734 62.3709 49.288 63.6734 47.9965C64.1688 47.508 64.6671 47.0224 65.1683 46.5398C65.8679 45.8652 66.5561 45.1807 67.2426 44.493C67.6364 44.1068 68.0302 43.7206 68.4359 43.3227C69.5871 41.6191 69.5054 40.7464 69.2765 38.722C68.2116 37.2107 67.492 36.723 65.7236 36.1783C63.0636 36.2248 61.3942 38.0795 59.5933 39.8836Z" fill="white"/>
</svg>
