<svg width="44" height="47" viewBox="0 0 44 47" fill="none" xmlns="http://www.w3.org/2000/svg">
<path d="M22.785 0.209891C23.6743 0.71812 24.2998 1.35305 24.9356 2.1484C25.069 2.31139 25.069 2.31139 25.2051 2.47766C25.8895 3.31699 26.5581 4.16925 27.2169 5.02925C27.4896 5.39927 27.4896 5.39927 27.8897 5.57072C28.3705 5.47044 28.3705 5.47044 28.9222 5.29624C29.2376 5.20462 29.2376 5.20462 29.5595 5.11114C29.9991 4.98084 30.4383 4.84926 30.877 4.71626C34.1041 3.78603 34.1041 3.78603 35.4522 4.40379C36.1495 4.93393 36.3687 5.51027 36.5865 6.33655C36.6238 6.79675 36.6448 7.25847 36.653 7.72013C36.6618 7.9834 36.6709 8.24665 36.6803 8.5099C36.6937 8.92045 36.7047 9.33054 36.7098 9.74129C36.664 11.2725 36.664 11.2725 37.248 12.6C37.6543 12.8144 38.0326 12.9264 38.4772 13.0376C38.8013 13.1583 39.1245 13.2816 39.4468 13.407C39.9614 13.595 40.4766 13.7804 40.9937 13.9612C42.1528 14.3885 43.3794 14.925 43.96 16.1009C44.2084 18.0511 43.1822 19.3389 42.121 20.8664C42.0342 20.9931 41.9475 21.1198 41.858 21.2504C41.6868 21.4986 41.5124 21.7446 41.3346 21.988C40.9569 22.5319 40.7383 22.868 40.7791 23.543C40.9504 24.2013 41.1916 24.6344 41.5671 25.1974C41.6936 25.3898 41.8201 25.5822 41.9504 25.7804C42.0833 25.9782 42.2161 26.176 42.3529 26.3798C42.6154 26.7751 42.8773 27.1707 43.1387 27.5667C43.3136 27.828 43.3136 27.828 43.4921 28.0945C43.9991 28.915 44.0591 29.7051 43.96 30.6517C43.523 31.7088 42.7166 32.355 41.7084 32.82C41.0562 33.081 40.4007 33.329 39.7415 33.5715C39.2931 33.7396 38.8448 33.9081 38.3967 34.077C38.1989 34.1501 38.0012 34.2233 37.7975 34.2986C37.359 34.4391 37.359 34.4391 37.1537 34.6723C36.9535 35.9762 36.9076 37.2781 36.8668 38.5954C36.7575 41.3075 36.7575 41.3075 35.9366 42.3307C35.0819 43.0062 34.2282 43.0033 33.1834 42.905C32.3327 42.7218 31.5014 42.4811 30.6665 42.2349C30.2303 42.1084 29.7939 41.9828 29.3571 41.858C29.166 41.8019 28.9749 41.7457 28.7779 41.6879C28.2326 41.5353 28.2326 41.5353 27.5116 41.5648C27.4604 41.6767 27.4091 41.7885 27.3563 41.9037C27.135 42.3278 26.8924 42.6652 26.5921 43.0352C26.4867 43.1657 26.3813 43.2963 26.2727 43.4308C26.108 43.6326 26.108 43.6326 25.94 43.8384C25.8324 43.9714 25.7248 44.1045 25.6139 44.2415C25.3021 44.6265 24.989 45.0103 24.6756 45.394C24.584 45.5075 24.4923 45.621 24.3979 45.7379C23.6882 46.6126 23.3779 46.8854 22.2533 46.9975C21.4294 47.0353 20.7807 46.6455 20.1382 46.1598C19.6841 45.6955 19.291 45.1933 18.8974 44.676C18.7957 44.5462 18.6939 44.4164 18.5891 44.2826C17.8921 43.389 17.2172 42.4785 16.546 41.5648C15.4778 41.7568 14.449 42.0041 13.4104 42.3176C10.4144 43.2119 10.4144 43.2119 9.17258 42.905C8.2543 42.3944 7.80111 41.7976 7.47102 40.799C7.41591 40.3227 7.37776 39.8442 7.35138 39.3653C7.34352 39.2307 7.33566 39.096 7.32757 38.9573C7.30299 38.5302 7.28062 38.1031 7.25833 37.6758C7.24198 37.385 7.22549 37.0942 7.20885 36.8034C7.16851 36.0932 7.13017 35.3828 7.0929 34.6723C6.93848 34.6126 6.78405 34.5528 6.62495 34.4912C6.04736 34.2668 5.47028 34.0411 4.89348 33.8146C4.64467 33.7172 4.39567 33.6203 4.14647 33.5239C3.78644 33.3845 3.42715 33.2433 3.06795 33.1018C2.85211 33.0176 2.63627 32.9333 2.41389 32.8466C1.5454 32.4506 0.844071 32.0728 0.310304 31.262C0.00303649 30.3804 -0.0869071 29.7574 0.279286 28.8725C0.726351 28.0076 1.23626 27.1937 1.77701 26.3865C1.87198 26.2432 1.96695 26.0999 2.0648 25.9523C2.25542 25.6667 2.44913 25.3833 2.64611 25.1022C3.05515 24.4918 3.30593 24.1131 3.33234 23.3651C3.06012 22.6342 2.68128 22.0483 2.23637 21.4139C2.06458 21.1592 1.89299 20.9045 1.72162 20.6495C1.43335 20.2252 1.14412 19.8016 0.854595 19.3781C0.273931 18.4785 -0.0741603 17.7752 0.0134174 16.682C0.157765 16.014 0.394978 15.6432 0.853856 15.1436C2.06186 14.4732 3.32857 13.9719 4.61146 13.4684C4.80887 13.3896 5.00628 13.3109 5.20966 13.2298C6.66627 12.6547 6.66627 12.6547 7.0929 12.6547C7.09763 12.5265 7.10237 12.3983 7.10725 12.2663C7.12948 11.6738 7.15254 11.0813 7.17561 10.4888C7.18305 10.2873 7.19048 10.0858 7.19814 9.87815C7.36107 5.75318 7.36107 5.75318 8.22727 4.80488C9.09008 4.20915 9.85762 4.1176 10.8741 4.23051C12.0203 4.50005 13.1497 4.83735 14.2769 5.17845C14.5058 5.242 14.7348 5.30555 14.9707 5.37103C15.1779 5.43219 15.3851 5.49335 15.5986 5.55637C16.2052 5.6343 16.2052 5.6343 16.6832 5.14452C16.896 4.88163 16.896 4.88163 17.1132 4.61343C17.2534 4.44686 17.2534 4.44686 17.3964 4.27693C17.4726 4.17696 17.5487 4.07699 17.6272 3.97399C17.7137 3.86132 17.8002 3.74866 17.8894 3.63258C17.9764 3.51794 18.0634 3.4033 18.153 3.28519C20.8514 -0.247252 20.8514 -0.247252 22.785 0.209891ZM26.7562 17.9712C26.6259 18.103 26.6259 18.103 26.493 18.2375C26.2098 18.5246 25.9279 18.813 25.6461 19.1014C25.4485 19.3022 25.2509 19.5028 25.0533 19.7034C24.5359 20.2288 24.0196 20.7554 23.5036 21.2822C22.9757 21.8206 22.4468 22.358 21.918 22.8954C20.8825 23.9481 19.8482 25.002 18.8147 26.0567C18.6049 25.8775 18.3955 25.6977 18.1862 25.5177C18.0695 25.4177 17.9529 25.3176 17.8327 25.2146C17.5228 24.9363 17.2402 24.6505 16.9603 24.3418C15.9542 23.1549 15.9542 23.1549 14.5963 22.5148C13.6571 22.6437 13.3871 22.8453 12.7648 23.5678C12.5123 24.1127 12.5123 24.1127 12.5757 24.7165C13.1385 25.9879 14.0606 26.8764 15.0334 27.8441C15.3057 28.1153 15.5753 28.389 15.8448 28.6631C17.1251 30.0203 17.1251 30.0203 18.7793 30.7714C20.9644 30.3375 23.4329 26.8205 25.012 25.2368C25.6142 24.6329 26.2178 24.0306 26.8249 23.4319C27.416 22.849 28.0033 22.2625 28.588 21.6732C28.8105 21.4502 29.0342 21.2287 29.2593 21.0085C29.5733 20.7006 29.8823 20.3883 30.1906 20.0745C30.3674 19.8982 30.5442 19.722 30.7263 19.5405C31.2432 18.7631 31.2065 18.3649 31.1038 17.4411C30.6256 16.7515 30.3025 16.5289 29.5085 16.2804C28.3143 16.3016 27.5648 17.1479 26.7562 17.9712Z" fill="#1C1C1C"/>
</svg>
