<svg width="100" height="100" viewBox="0 0 100 100" fill="none" xmlns="http://www.w3.org/2000/svg">
<path d="M94.8583 19.0245C93.3358 18.3902 91.6589 18.2235 90.0413 18.5456C88.4237 18.8676 86.9386 19.6638 85.775 20.8328L75 31.6078L55.8917 12.4995C54.3289 10.9372 52.2097 10.0596 50 10.0596C47.7903 10.0596 45.6711 10.9372 44.1083 12.4995L25 31.6078L14.225 20.8328C13.0596 19.6677 11.5749 18.8743 9.9586 18.5529C8.34232 18.2315 6.66704 18.3966 5.14455 19.0271C3.62205 19.6577 2.32069 20.7256 1.40499 22.0956C0.489284 23.4657 0.000351869 25.0765 0 26.7245L0 70.8328C0.00661607 76.3561 2.20367 81.6513 6.10925 85.5569C10.0148 89.4625 15.31 91.6595 20.8333 91.6661H79.1667C84.69 91.6595 89.9852 89.4625 93.8908 85.5569C97.7963 81.6513 99.9934 76.3561 100 70.8328V26.7245C100 25.0764 99.5122 23.4652 98.597 22.0947C97.6818 20.7241 96.3807 19.6557 94.8583 19.0245V19.0245Z" fill="#1C1C1C"/>
</svg>
