<svg width="29" height="29" viewBox="0 0 29 29" fill="none" xmlns="http://www.w3.org/2000/svg">
<path d="M15.8302 22.9586C15.5912 22.9576 15.3579 22.8858 15.1598 22.7522C14.9616 22.6186 14.8076 22.4293 14.717 22.2081C14.6265 21.9869 14.6036 21.7439 14.6512 21.5097C14.6987 21.2755 14.8147 21.0607 14.9844 20.8924L20.5427 15.3582C20.656 15.2459 20.7459 15.1123 20.8072 14.965C20.8686 14.8178 20.9002 14.6598 20.9002 14.5003C20.9002 14.3408 20.8686 14.1829 20.8072 14.0356C20.7459 13.8884 20.656 13.7547 20.5427 13.6424L14.9844 8.10822C14.8711 7.99589 14.7812 7.86225 14.7199 7.715C14.6585 7.56776 14.627 7.40982 14.627 7.25031C14.627 7.09079 14.6585 6.93286 14.7199 6.78561C14.7812 6.63836 14.8711 6.50472 14.9844 6.39239C15.2108 6.16734 15.517 6.04102 15.8363 6.04102C16.1555 6.04102 16.4617 6.16734 16.6881 6.39239L22.2344 11.9386C22.9132 12.6183 23.2946 13.5397 23.2946 14.5003C23.2946 15.4609 22.9132 16.3823 22.2344 17.062L16.6881 22.6082C16.5752 22.7202 16.4413 22.8088 16.2941 22.8689C16.1469 22.9291 15.9892 22.9596 15.8302 22.9586Z" fill="#1C1C1C"/>
<path d="M7.37124 22.9586C7.13226 22.9576 6.89895 22.8858 6.7008 22.7522C6.50266 22.6186 6.34857 22.4293 6.25804 22.2081C6.1675 21.9869 6.14458 21.7439 6.19217 21.5097C6.23976 21.2755 6.35573 21.0607 6.5254 20.8924L12.9175 14.5003L6.5254 8.10822C6.41215 7.99589 6.32225 7.86225 6.26091 7.715C6.19956 7.56776 6.16798 7.40982 6.16798 7.25031C6.16798 7.09079 6.19956 6.93286 6.26091 6.78561C6.32225 6.63836 6.41215 6.50472 6.5254 6.39239C6.7518 6.16734 7.05805 6.04102 7.37728 6.04102C7.6965 6.04102 8.00276 6.16734 8.22915 6.39239L15.4792 13.6424C15.5924 13.7547 15.6823 13.8884 15.7436 14.0356C15.805 14.1829 15.8366 14.3408 15.8366 14.5003C15.8366 14.6598 15.805 14.8178 15.7436 14.965C15.6823 15.1123 15.5924 15.2459 15.4792 15.3582L8.22915 22.6082C8.11625 22.7202 7.98234 22.8088 7.83512 22.8689C7.6879 22.9291 7.53026 22.9596 7.37124 22.9586Z" fill="#1C1C1C"/>
</svg>
