<svg width="28" height="28" viewBox="0 0 28 28" fill="none" xmlns="http://www.w3.org/2000/svg">
<g clip-path="url(#clip0_713_1375)">
<path d="M20.4165 2.23584C19.1027 2.25627 17.8177 2.623 16.691 3.29899C15.5644 3.97498 14.636 4.93629 13.9998 6.08584C13.3635 4.93629 12.4352 3.97498 11.3086 3.29899C10.1819 2.623 8.89685 2.25627 7.58312 2.23584C5.48889 2.32683 3.51578 3.24297 2.09487 4.78411C0.673958 6.32525 -0.0792537 8.36612 -0.000211421 10.4608C-0.000211421 15.7657 5.58346 21.5593 10.2665 25.4875C11.312 26.3662 12.634 26.8479 13.9998 26.8479C15.3655 26.8479 16.6875 26.3662 17.7331 25.4875C22.4161 21.5593 27.9998 15.7657 27.9998 10.4608C28.0788 8.36612 27.3256 6.32525 25.9047 4.78411C24.4838 3.24297 22.5107 2.32683 20.4165 2.23584Z" fill="white"/>
</g>
<defs>
<clipPath id="clip0_713_1375">
<rect width="28" height="28" fill="white"/>
</clipPath>
</defs>
</svg>
