<svg width="16" height="16" viewBox="0 0 16 16" fill="none" xmlns="http://www.w3.org/2000/svg">
<g clip-path="url(#clip0_414_1469)">
<path d="M15.8888 5.86296C15.7525 5.42889 15.48 5.05024 15.1118 4.78298C14.7436 4.51573 14.2991 4.37407 13.8442 4.37896H10.9315L10.0468 1.62163C9.90772 1.1876 9.63435 0.808971 9.26616 0.540339C8.89796 0.271706 8.45395 0.126953 7.99818 0.126953C7.5424 0.126953 7.0984 0.271706 6.7302 0.540339C6.362 0.808971 6.08863 1.1876 5.94951 1.62163L5.06484 4.37896H2.15218C1.69867 4.37961 1.25697 4.52355 0.890162 4.79023C0.523354 5.05691 0.250203 5.43269 0.109723 5.86389C-0.0307565 6.29509 -0.0313783 6.75965 0.107947 7.19122C0.247271 7.6228 0.519416 7.9993 0.885509 8.26696L3.25618 10.0003L2.35484 12.7916C2.20918 13.2246 2.20734 13.693 2.34958 14.127C2.49183 14.5611 2.77054 14.9375 3.14418 15.2003C3.51141 15.4715 3.95644 15.6168 4.41294 15.6145C4.86945 15.6122 5.313 15.4625 5.67751 15.1876L7.99818 13.4796L10.3195 15.1856C10.6861 15.4553 11.1287 15.6017 11.5838 15.6039C12.0388 15.6062 12.4828 15.464 12.852 15.198C13.2212 14.9319 13.4965 14.5557 13.6384 14.1233C13.7802 13.6909 13.7813 13.2247 13.6415 12.7916L12.7402 10.0003L15.1135 8.26696C15.4838 8.00266 15.7591 7.62616 15.8988 7.19319C16.0384 6.76022 16.0349 6.2938 15.8888 5.86296ZM14.3268 7.1903L11.5642 9.20963C11.4507 9.29241 11.3663 9.40891 11.3229 9.54252C11.2796 9.67612 11.2796 9.82 11.3228 9.95363L12.3728 13.2003C12.426 13.365 12.4255 13.5422 12.3715 13.7066C12.3176 13.871 12.2129 14.0141 12.0725 14.1152C11.9321 14.2163 11.7632 14.2704 11.5902 14.2695C11.4172 14.2686 11.2489 14.2129 11.1095 14.1103L8.39284 12.1103C8.27842 12.0262 8.14015 11.9809 7.99818 11.9809C7.8562 11.9809 7.71793 12.0262 7.60351 12.1103L4.88684 14.1103C4.74756 14.2142 4.5788 14.2711 4.40502 14.2727C4.23124 14.2743 4.06147 14.2205 3.92033 14.1191C3.77919 14.0177 3.67401 13.874 3.62004 13.7088C3.56607 13.5436 3.56612 13.3655 3.62018 13.2003L4.67351 9.95363C4.71679 9.82 4.71675 9.67612 4.67342 9.54252C4.63008 9.40891 4.54565 9.29241 4.43218 9.20963L1.66951 7.1903C1.53038 7.08843 1.427 6.94519 1.37414 6.78106C1.32127 6.61692 1.32163 6.44028 1.37516 6.27636C1.4287 6.11244 1.53266 5.96963 1.6722 5.86833C1.81175 5.76703 1.97974 5.71242 2.15218 5.7123H5.55218C5.69332 5.71229 5.83082 5.66749 5.94487 5.58435C6.05893 5.5012 6.14365 5.384 6.18684 5.24963L7.22018 2.02896C7.27322 1.86415 7.37718 1.72042 7.51711 1.61846C7.65704 1.5165 7.82571 1.46157 7.99884 1.46157C8.17198 1.46157 8.34065 1.5165 8.48057 1.61846C8.6205 1.72042 8.72447 1.86415 8.77751 2.02896L9.81084 5.24963C9.85403 5.384 9.93876 5.5012 10.0528 5.58435C10.1669 5.66749 10.3044 5.71229 10.4455 5.7123H13.8455C14.0179 5.71242 14.1859 5.76703 14.3255 5.86833C14.465 5.96963 14.569 6.11244 14.6225 6.27636C14.6761 6.44028 14.6764 6.61692 14.6235 6.78106C14.5707 6.94519 14.4673 7.08843 14.3282 7.1903H14.3268Z" fill="white"/>
</g>
<defs>
<clipPath id="clip0_414_1469">
<rect width="16" height="16" fill="white"/>
</clipPath>
</defs>
</svg>
