<svg width="26" height="26" viewBox="0 0 26 26" fill="none" xmlns="http://www.w3.org/2000/svg">
<g clip-path="url(#clip0_568_1420)">
<path d="M1.08333 5.14611H4.04733C4.27986 6.00166 4.78744 6.75692 5.49177 7.29537C6.1961 7.83383 7.05805 8.12556 7.94463 8.12556C8.8312 8.12556 9.69315 7.83383 10.3975 7.29537C11.1018 6.75692 11.6094 6.00166 11.8419 5.14611H24.9167C25.204 5.14611 25.4795 5.03198 25.6827 4.82881C25.8859 4.62565 26 4.3501 26 4.06278C26 3.77546 25.8859 3.49991 25.6827 3.29675C25.4795 3.09358 25.204 2.97945 24.9167 2.97945H11.8419C11.6094 2.1239 11.1018 1.36865 10.3975 0.830189C9.69315 0.291732 8.8312 0 7.94463 0C7.05805 0 6.1961 0.291732 5.49177 0.830189C4.78744 1.36865 4.27986 2.1239 4.04733 2.97945H1.08333C0.796015 2.97945 0.520465 3.09358 0.317301 3.29675C0.114137 3.49991 0 3.77546 0 4.06278C0 4.3501 0.114137 4.62565 0.317301 4.82881C0.520465 5.03198 0.796015 5.14611 1.08333 5.14611V5.14611ZM7.94408 2.16695C8.31904 2.16695 8.68558 2.27814 8.99735 2.48645C9.30912 2.69477 9.55211 2.99086 9.69561 3.33728C9.8391 3.68369 9.87664 4.06488 9.80349 4.43264C9.73034 4.8004 9.54978 5.1382 9.28464 5.40334C9.0195 5.66847 8.6817 5.84904 8.31394 5.92219C7.94619 5.99534 7.565 5.95779 7.21858 5.8143C6.87216 5.67081 6.57607 5.42782 6.36776 5.11605C6.15944 4.80428 6.04825 4.43774 6.04825 4.06278C6.04882 3.56015 6.24875 3.07827 6.60416 2.72286C6.95957 2.36744 7.44145 2.16752 7.94408 2.16695V2.16695Z" fill="#1C1C1C"/>
<path d="M24.9167 11.9158H21.9527C21.7205 11.0601 21.2132 10.3045 20.5089 9.76585C19.8046 9.22717 18.9426 8.9353 18.0559 8.9353C17.1692 8.9353 16.3072 9.22717 15.603 9.76585C14.8987 10.3045 14.3913 11.0601 14.1592 11.9158H1.08333C0.796015 11.9158 0.520465 12.0299 0.317301 12.2331C0.114137 12.4363 0 12.7118 0 12.9991C0 13.2864 0.114137 13.562 0.317301 13.7652C0.520465 13.9683 0.796015 14.0825 1.08333 14.0825H14.1592C14.3913 14.9382 14.8987 15.6937 15.603 16.2324C16.3072 16.7711 17.1692 17.063 18.0559 17.063C18.9426 17.063 19.8046 16.7711 20.5089 16.2324C21.2132 15.6937 21.7205 14.9382 21.9527 14.0825H24.9167C25.204 14.0825 25.4795 13.9683 25.6827 13.7652C25.8859 13.562 26 13.2864 26 12.9991C26 12.7118 25.8859 12.4363 25.6827 12.2331C25.4795 12.0299 25.204 11.9158 24.9167 11.9158ZM18.0559 14.895C17.681 14.895 17.3144 14.7838 17.0026 14.5755C16.6909 14.3671 16.4479 14.0711 16.3044 13.7246C16.1609 13.3782 16.1234 12.997 16.1965 12.6293C16.2697 12.2615 16.4502 11.9237 16.7154 11.6586C16.9805 11.3934 17.3183 11.2129 17.6861 11.1397C18.0538 11.0666 18.435 11.1041 18.7814 11.2476C19.1278 11.3911 19.4239 11.6341 19.6322 11.9459C19.8406 12.2576 19.9518 12.6242 19.9518 12.9991C19.9512 13.5018 19.7513 13.9836 19.3958 14.3391C19.0404 14.6945 18.5585 14.8944 18.0559 14.895V14.895Z" fill="#1C1C1C"/>
<path d="M24.9167 20.8544H11.8419C11.6094 19.9989 11.1018 19.2436 10.3975 18.7052C9.69315 18.1667 8.8312 17.875 7.94463 17.875C7.05805 17.875 6.1961 18.1667 5.49177 18.7052C4.78744 19.2436 4.27986 19.9989 4.04733 20.8544H1.08333C0.796015 20.8544 0.520465 20.9686 0.317301 21.1717C0.114137 21.3749 0 21.6504 0 21.9378C0 22.2251 0.114137 22.5006 0.317301 22.7038C0.520465 22.907 0.796015 23.0211 1.08333 23.0211H4.04733C4.27986 23.8766 4.78744 24.6319 5.49177 25.1703C6.1961 25.7088 7.05805 26.0005 7.94463 26.0005C8.8312 26.0005 9.69315 25.7088 10.3975 25.1703C11.1018 24.6319 11.6094 23.8766 11.8419 23.0211H24.9167C25.204 23.0211 25.4795 22.907 25.6827 22.7038C25.8859 22.5006 26 22.2251 26 21.9378C26 21.6504 25.8859 21.3749 25.6827 21.1717C25.4795 20.9686 25.204 20.8544 24.9167 20.8544ZM7.94408 23.8336C7.56912 23.8336 7.20258 23.7224 6.89082 23.5141C6.57905 23.3058 6.33605 23.0097 6.19256 22.6633C6.04907 22.3169 6.01153 21.9357 6.08468 21.5679C6.15783 21.2002 6.33839 20.8624 6.60353 20.5972C6.86866 20.3321 7.20647 20.1515 7.57422 20.0784C7.94198 20.0052 8.32317 20.0428 8.66959 20.1863C9.01601 20.3297 9.31209 20.5727 9.52041 20.8845C9.72873 21.1963 9.83992 21.5628 9.83992 21.9378C9.83906 22.4403 9.63904 22.922 9.28369 23.2774C8.92834 23.6327 8.44663 23.8327 7.94408 23.8336V23.8336Z" fill="#1C1C1C"/>
</g>
<defs>
<clipPath id="clip0_568_1420">
<rect width="26" height="26" fill="white"/>
</clipPath>
</defs>
</svg>
