<svg width="12" height="12" viewBox="0 0 12 12" fill="none" xmlns="http://www.w3.org/2000/svg">
<g clip-path="url(#clip0_415_2947)">
<path d="M9.5 0H6.5C5.8372 0.000793929 5.20178 0.264441 4.73311 0.73311C4.26444 1.20178 4.00079 1.8372 4 2.5V2.55C3.43571 2.66605 2.92867 2.97309 2.56436 3.41937C2.20004 3.86566 2.00073 4.4239 2 5V5.05C1.43571 5.16605 0.928673 5.47309 0.564359 5.91937C0.200045 6.36566 0.000727262 6.9239 0 7.5L0 9.5C0.000793929 10.1628 0.264441 10.7982 0.73311 11.2669C1.20178 11.7356 1.8372 11.9992 2.5 12H5.5C6.1628 11.9992 6.79822 11.7356 7.26689 11.2669C7.73556 10.7982 7.99921 10.1628 8 9.5V9.45C8.56429 9.33395 9.07133 9.02691 9.43564 8.58063C9.79996 8.13434 9.99927 7.5761 10 7V6.95C10.5643 6.83395 11.0713 6.52691 11.4356 6.08063C11.8 5.63434 11.9993 5.0761 12 4.5V2.5C11.9992 1.8372 11.7356 1.20178 11.2669 0.73311C10.7982 0.264441 10.1628 0.000793929 9.5 0V0ZM1 7.5C1 7.10218 1.15804 6.72064 1.43934 6.43934C1.72064 6.15804 2.10218 6 2.5 6H5.5C5.77183 6.00073 6.03832 6.07562 6.27074 6.21659C6.50317 6.35756 6.69273 6.55927 6.819 6.8L5.0915 8.5315L4.854 8.292C4.67695 8.11362 4.43901 8.00878 4.18789 7.99848C3.93678 7.98819 3.69106 8.07321 3.5 8.2365L1.1895 10.2165C1.06659 9.9976 1.00138 9.75104 1 9.5V7.5ZM7 9.5C7 9.89782 6.84196 10.2794 6.56066 10.5607C6.27936 10.842 5.89782 11 5.5 11H2.5C2.30828 10.9996 2.11846 10.9621 1.941 10.8895L4.144 9L4.382 9.2405C4.56953 9.42797 4.82384 9.53329 5.089 9.53329C5.35416 9.53329 5.60847 9.42797 5.796 9.2405L7 8.034V9.5ZM9 7C8.99872 7.30913 8.90196 7.61031 8.72296 7.86235C8.54395 8.11438 8.29145 8.30496 8 8.408V7.5C7.99921 6.8372 7.73556 6.20178 7.26689 5.73311C6.79822 5.26444 6.1628 5.00079 5.5 5H3C3 4.60218 3.15804 4.22064 3.43934 3.93934C3.72064 3.65804 4.10218 3.5 4.5 3.5H7.5C7.89782 3.5 8.27936 3.65804 8.56066 3.93934C8.84196 4.22064 9 4.60218 9 5V7ZM11 4.5C10.9987 4.80913 10.902 5.11031 10.723 5.36235C10.544 5.61438 10.2915 5.80496 10 5.908V5C9.99921 4.3372 9.73556 3.70178 9.26689 3.23311C8.79822 2.76444 8.1628 2.50079 7.5 2.5H5C5 2.10218 5.15804 1.72064 5.43934 1.43934C5.72064 1.15804 6.10218 1 6.5 1H9.5C9.89782 1 10.2794 1.15804 10.5607 1.43934C10.842 1.72064 11 2.10218 11 2.5V4.5ZM2 7.5C2 7.40111 2.02932 7.30444 2.08427 7.22221C2.13921 7.13999 2.2173 7.0759 2.30866 7.03806C2.40002 7.00022 2.50055 6.99031 2.59755 7.00961C2.69454 7.0289 2.78363 7.07652 2.85355 7.14645C2.92348 7.21637 2.9711 7.30546 2.99039 7.40245C3.00969 7.49945 2.99978 7.59998 2.96194 7.69134C2.9241 7.7827 2.86001 7.86079 2.77779 7.91573C2.69556 7.97068 2.59889 8 2.5 8C2.36739 8 2.24021 7.94732 2.14645 7.85355C2.05268 7.75979 2 7.63261 2 7.5Z" fill="white"/>
</g>
<defs>
<clipPath id="clip0_415_2947">
<rect width="12" height="12" fill="white"/>
</clipPath>
</defs>
</svg>
