<svg width="90" height="48" viewBox="0 0 90 48" fill="none" xmlns="http://www.w3.org/2000/svg">
<g opacity="0.5">
<path d="M43.6581 1.35607C42.39 2.77329 42.39 3.59379 43.5089 17.2439C44.1802 25.1505 44.7769 32.4604 44.7769 33.5046C45.0007 37.2342 46.045 28.3579 46.94 15.4537C47.7605 4.71265 47.7605 2.02738 46.94 1.0577C45.7466 -0.434109 45.2245 -0.359518 43.6581 1.35607Z" fill="#D77E6C"/>
<path d="M13.375 14.7038C13.375 16.7178 16.7316 19.9998 28.9644 30.1441C30.0087 30.9646 32.2464 32.9785 34.0366 34.5449C35.8268 36.1113 37.3932 37.3048 37.617 37.1556C37.7661 37.0064 33.8874 32.158 28.8899 26.4146C23.9669 20.6711 19.3423 15.226 18.5963 14.3309C17.8504 13.2866 16.4332 12.6153 15.3144 12.6153C13.6734 12.6153 13.375 12.9136 13.375 14.7038Z" fill="#D77E6C"/>
<path d="M30.8266 14.3333C30.3791 15.5267 30.9012 16.7202 37.4652 29.6989C39.8521 34.3236 41.9406 37.9785 42.0898 37.8293C42.3136 37.6801 40.6726 32.1604 38.5095 25.5965C35.0783 15.5267 34.2578 13.7365 32.9152 13.5128C31.9455 13.3636 31.0504 13.7365 30.8266 14.3333Z" fill="#D77E6C"/>
<path d="M55.6689 13.8848C54.9976 15.0036 48.4336 36.3366 48.4336 37.3063C48.4336 37.8284 50.9697 33.3529 54.0279 27.2365C59.6968 16.0479 60.3681 13.3626 57.3845 13.3626C56.6386 13.3626 55.8181 13.5864 55.6689 13.8848Z" fill="#D77E6C"/>
<path d="M65.8887 22.0115C61.8608 26.8599 57.087 32.4542 55.3715 34.3935C53.5813 36.4075 52.1641 38.2722 52.1641 38.496C52.1641 38.869 54.7001 36.855 56.6395 34.9903C56.8633 34.7665 61.6371 30.5894 67.306 25.741C75.2872 18.8787 77.5249 16.5664 77.3757 15.2983C77.2265 14.2541 76.5552 13.6573 75.2126 13.5081C73.5716 13.2844 72.229 14.5524 65.8887 22.0115Z" fill="#D77E6C"/>
<path d="M70.4369 31.7136C67.6024 33.4292 62.754 36.3382 59.845 38.0538C56.8614 39.7694 54.5491 41.3358 54.6982 41.485C55.0712 41.8579 76.0312 33.5038 77.3738 32.5341C78.7164 31.4898 78.4927 29.2521 77.0008 28.8791C76.2549 28.73 73.3459 29.998 70.4369 31.7136Z" fill="#D77E6C"/>
<path d="M13.5222 30.4451C12.9255 30.818 12.6271 31.6385 12.7763 32.3844C12.9255 33.3541 16.1329 34.7713 24.5616 37.6804C30.9018 39.9181 36.2724 41.7083 36.4215 41.7083C37.4658 41.7083 34.4076 39.8435 26.4264 35.6664C21.5034 33.1303 17.1771 30.7434 16.8042 30.4451C15.9091 29.6246 14.7902 29.6246 13.5222 30.4451Z" fill="#D77E6C"/>
<path d="M0.842436 43.3495C-0.351015 44.5429 -0.276424 45.811 1.06621 46.9298C2.03589 47.6757 4.94492 47.6757 16.2081 46.9298C37.3173 45.5872 37.6902 45.1397 19.3409 43.7224C0.394893 42.2306 1.9613 42.2306 0.842436 43.3495Z" fill="#D77E6C"/>
<path d="M69.6914 43.5701C63.575 44.0923 57.5332 44.6144 56.3397 44.6144C51.0438 44.7636 55.9668 45.4349 71.1087 46.6284C87.3694 47.8218 87.3694 47.8218 88.9358 46.33C90.2039 45.0619 90.2785 44.6144 89.458 43.6447C88.3391 42.2275 85.7284 42.2275 69.6914 43.5701Z" fill="#D77E6C"/>
</g>
</svg>
