<svg width="12" height="12" viewBox="0 0 12 12" fill="none" xmlns="http://www.w3.org/2000/svg">
<g clip-path="url(#clip0_414_1524)">
<path d="M10.0007 5.99999C9.69396 5.99994 9.39133 6.07054 9.11628 6.20633C8.84124 6.34212 8.60117 6.53944 8.4147 6.78299L8.3797 6.76799C8.51721 6.342 8.53782 5.8869 8.43938 5.45022C8.34093 5.01354 8.12705 4.61131 7.82007 4.28552C7.51308 3.95973 7.12425 3.72235 6.69419 3.59815C6.26412 3.47396 5.8086 3.46751 5.3752 3.57949L5.3297 3.49349C5.69288 3.17035 5.92577 2.72586 5.9847 2.24331C6.04363 1.76077 5.92457 1.27329 5.64982 0.872244C5.37507 0.471197 4.96351 0.184107 4.49225 0.0647782C4.02099 -0.0545508 3.52239 0.0020722 3.08989 0.224035C2.65739 0.445999 2.32068 0.818066 2.14286 1.27051C1.96504 1.72295 1.95831 2.22471 2.12395 2.68175C2.28959 3.1388 2.61621 3.51975 3.04261 3.75322C3.469 3.98669 3.96591 4.05665 4.4402 3.94999L4.4767 4.01849C3.97672 4.40216 3.64039 4.96075 3.53522 5.58213C3.43005 6.20351 3.56383 6.84167 3.9097 7.36849L2.9672 8.24999C2.54118 8.01462 2.04395 7.94267 1.56869 8.04764C1.09343 8.1526 0.672754 8.42727 0.385494 8.82017C0.0982343 9.21307 -0.0358937 9.69724 0.00824479 10.1819C0.0523833 10.6667 0.271759 11.1186 0.625262 11.4532C0.978766 11.7877 1.44213 11.9819 1.92854 11.9993C2.41494 12.0167 2.89099 11.8561 3.26749 11.5477C3.64398 11.2392 3.89508 10.8041 3.97372 10.3237C4.05237 9.84342 3.95316 9.35091 3.6947 8.93849L4.6137 8.07949C5.11844 8.41686 5.72882 8.55874 6.33061 8.47858C6.9324 8.39842 7.48436 8.10172 7.8832 7.64399L8.0227 7.70349C7.96217 8.10722 8.02665 8.5198 8.20747 8.88582C8.38828 9.25183 8.67677 9.55375 9.03419 9.75101C9.39161 9.94827 9.80083 10.0314 10.2069 9.98932C10.613 9.94722 10.9964 9.78185 11.3057 9.51545C11.6151 9.24904 11.8355 8.89435 11.9373 8.49902C12.0392 8.1037 12.0176 7.68666 11.8756 7.30395C11.7335 6.92123 11.4777 6.59115 11.1425 6.35806C10.8074 6.12496 10.4089 6.00001 10.0007 5.99999ZM3.0007 1.99999C3.0007 1.80221 3.05934 1.60887 3.16923 1.44442C3.27911 1.27997 3.43529 1.1518 3.61801 1.07611C3.80074 1.00043 4.00181 0.980622 4.19579 1.01921C4.38977 1.05779 4.56795 1.15303 4.7078 1.29289C4.84766 1.43274 4.9429 1.61092 4.98148 1.8049C5.02007 1.99888 5.00026 2.19995 4.92458 2.38268C4.84889 2.5654 4.72072 2.72158 4.55627 2.83146C4.39182 2.94134 4.19848 2.99999 4.0007 2.99999C3.73548 2.99999 3.48113 2.89464 3.29359 2.7071C3.10605 2.51956 3.0007 2.26521 3.0007 1.99999ZM2.0007 11C1.80291 11 1.60957 10.9413 1.44513 10.8315C1.28068 10.7216 1.1525 10.5654 1.07682 10.3827C1.00113 10.2 0.981325 9.99888 1.01991 9.8049C1.0585 9.61092 1.15374 9.43274 1.29359 9.29289C1.43344 9.15303 1.61162 9.05779 1.80561 9.01921C1.99959 8.98062 2.20065 9.00043 2.38338 9.07611C2.56611 9.1518 2.72228 9.27997 2.83217 9.44442C2.94205 9.60887 3.0007 9.80221 3.0007 9.99999C3.0007 10.2652 2.89534 10.5196 2.7078 10.7071C2.52027 10.8946 2.26591 11 2.0007 11ZM6.0007 7.49999C5.67604 7.49936 5.36036 7.39341 5.10105 7.19806C4.84175 7.0027 4.65282 6.7285 4.56265 6.41661C4.47248 6.10473 4.48593 5.77201 4.60098 5.46843C4.71603 5.16484 4.92647 4.90678 5.2007 4.73299L5.4042 4.62449C5.60868 4.53555 5.83041 4.49331 6.05327 4.50085C6.27613 4.5084 6.4945 4.56553 6.6925 4.6681C6.8905 4.77067 7.06313 4.9161 7.19785 5.09379C7.33256 5.27148 7.42596 5.47698 7.47126 5.69532C7.51655 5.91366 7.51259 6.13935 7.45968 6.35596C7.40676 6.57258 7.30621 6.77467 7.16535 6.94754C7.02449 7.1204 6.84686 7.25968 6.64539 7.35525C6.44392 7.45082 6.22368 7.50026 6.0007 7.49999ZM10.0007 8.99999C9.80291 8.99999 9.60958 8.94134 9.44513 8.83146C9.28068 8.72158 9.1525 8.5654 9.07682 8.38268C9.00113 8.19995 8.98133 7.99888 9.01991 7.8049C9.0585 7.61092 9.15374 7.43274 9.29359 7.29289C9.43344 7.15303 9.61162 7.05779 9.80561 7.01921C9.99959 6.98062 10.2007 7.00043 10.3834 7.07611C10.5661 7.1518 10.7223 7.27997 10.8322 7.44442C10.942 7.60887 11.0007 7.80221 11.0007 7.99999C11.0007 8.26521 10.8953 8.51956 10.7078 8.7071C10.5203 8.89464 10.2659 8.99999 10.0007 8.99999Z" fill="#D77E6C"/>
</g>
<defs>
<clipPath id="clip0_414_1524">
<rect width="12" height="12" fill="white"/>
</clipPath>
</defs>
</svg>
