<svg width="40" height="40" viewBox="0 0 40 40" fill="none" xmlns="http://www.w3.org/2000/svg">
<circle cx="20" cy="20" r="20" fill="white"/>
<g clip-path="url(#clip0_3012_1337)">
<path d="M29.9999 17.0672V26.6672C29.9999 26.8882 29.9121 27.1002 29.7558 27.2565C29.5996 27.4128 29.3876 27.5006 29.1666 27.5006C28.9456 27.5006 28.7336 27.4128 28.5773 27.2565C28.4211 27.1002 28.3333 26.8882 28.3333 26.6672V19.7939L22.1666 22.7406C21.5164 23.1243 20.7741 23.3242 20.0191 23.3189C19.2273 23.3201 18.4499 23.1073 17.7691 22.7031L11.6191 19.7756C11.1357 19.5156 10.7306 19.131 10.4459 18.6617C10.1613 18.1924 10.0074 17.6554 10.0003 17.1066C9.99312 16.5577 10.133 16.017 10.4053 15.5404C10.6777 15.0638 11.0726 14.6688 11.5491 14.3964C11.5716 14.3831 11.5958 14.3706 11.6191 14.3589L17.8333 11.3939C18.5041 11.0086 19.2656 10.809 20.0392 10.8156C20.8128 10.8222 21.5707 11.0347 22.2349 11.4314L28.3808 14.3589C28.8657 14.6272 29.271 15.0191 29.5554 15.4948C29.8398 15.9705 29.9931 16.513 29.9999 17.0672V17.0672ZM20.0183 24.9839C18.9521 24.9863 17.9042 24.7068 16.9808 24.1739L13.3333 22.4331V24.6831C13.3338 25.5727 13.6186 26.4388 14.1461 27.1551C14.6737 27.8714 15.4163 28.4003 16.2658 28.6647C17.4794 29.0132 18.7374 29.1825 19.9999 29.1672C21.2626 29.1814 22.5206 29.011 23.7341 28.6614C24.5835 28.397 25.3262 27.8681 25.8537 27.1518C26.3813 26.4355 26.6661 25.5693 26.6666 24.6797V22.4372L22.9508 24.2122C22.0588 24.7247 21.0469 24.9915 20.0183 24.9856V24.9839Z" fill="#1C1C1C"/>
</g>
<defs>
<clipPath id="clip0_3012_1337">
<rect width="20" height="20" fill="white" transform="translate(10 10)"/>
</clipPath>
</defs>
</svg>
