<svg width="9" height="9" viewBox="0 0 9 9" fill="none" xmlns="http://www.w3.org/2000/svg">
<g opacity="0.5" clip-path="url(#clip0_414_1094)">
<path d="M8.53725 1.71211C8.40022 1.65503 8.2493 1.64003 8.10372 1.66901C7.95813 1.698 7.82447 1.76965 7.71975 1.87486L6.75 2.84461L5.03025 1.12486C4.8896 0.98426 4.69887 0.905273 4.5 0.905273C4.30113 0.905273 4.1104 0.98426 3.96975 1.12486L2.25 2.84461L1.28025 1.87486C1.17536 1.77001 1.04174 1.6986 0.896274 1.66968C0.750809 1.64075 0.600034 1.6556 0.463009 1.71235C0.325984 1.76911 0.208862 1.86521 0.126449 1.98852C0.0440356 2.11183 3.16682e-05 2.2568 0 2.40511L0 6.37486C0.000595447 6.87196 0.198331 7.34853 0.549832 7.70003C0.901334 8.05153 1.3779 8.24927 1.875 8.24986H7.125C7.6221 8.24927 8.09867 8.05153 8.45017 7.70003C8.80167 7.34853 8.9994 6.87196 9 6.37486V2.40511C9.00004 2.25679 8.95609 2.11178 8.87373 1.98843C8.79136 1.86508 8.67426 1.76892 8.53725 1.71211Z" fill="white"/>
</g>
<defs>
<clipPath id="clip0_414_1094">
<rect width="9" height="9" fill="white"/>
</clipPath>
</defs>
</svg>
