<svg width="13" height="13" viewBox="0 0 13 13" fill="none" xmlns="http://www.w3.org/2000/svg">
<g clip-path="url(#clip0_415_2945)">
<path d="M12.9104 4.76353C12.7996 4.41085 12.5783 4.10319 12.2791 3.88605C11.9799 3.66891 11.6188 3.55381 11.2491 3.55778H8.88258L8.16379 1.31745C8.05076 0.964803 7.82865 0.657167 7.52948 0.438903C7.23032 0.220639 6.86957 0.103027 6.49925 0.103027C6.12893 0.103027 5.76818 0.220639 5.46902 0.438903C5.16986 0.657167 4.94774 0.964803 4.83471 1.31745L4.11592 3.55778H1.74937C1.3809 3.55831 1.02202 3.67526 0.723989 3.89194C0.425958 4.10862 0.204022 4.41394 0.0898824 4.76429C-0.0242572 5.11463 -0.0247624 5.49209 0.088439 5.84275C0.20164 6.1934 0.422758 6.49931 0.720208 6.71678L2.64637 8.12512L1.91404 10.3931C1.79569 10.7448 1.79419 11.1254 1.90977 11.4781C2.02534 11.8308 2.2518 12.1366 2.55537 12.3501C2.85375 12.5705 3.21534 12.6885 3.58625 12.6866C3.95716 12.6848 4.31755 12.5631 4.61371 12.3398L6.49925 10.9521L8.38533 12.3382C8.68317 12.5573 9.04281 12.6763 9.41253 12.6781C9.78226 12.6799 10.143 12.5644 10.443 12.3482C10.743 12.1321 10.9666 11.8263 11.0819 11.475C11.1972 11.1237 11.1981 10.7449 11.0845 10.3931L10.3521 8.12512L12.2805 6.71678C12.5813 6.50204 12.805 6.19613 12.9185 5.84435C13.0319 5.49256 13.0291 5.11359 12.9104 4.76353ZM11.6413 5.84199L9.39663 7.4827C9.30443 7.54996 9.23583 7.64462 9.20062 7.75317C9.16541 7.86173 9.16538 7.97863 9.20054 8.0872L10.0537 10.7251C10.0968 10.8589 10.0965 11.003 10.0526 11.1365C10.0088 11.2701 9.92368 11.3863 9.80961 11.4685C9.69553 11.5507 9.55834 11.5945 9.41776 11.5938C9.27717 11.5931 9.14044 11.5478 9.02721 11.4645L6.81992 9.83949C6.72695 9.7712 6.6146 9.73438 6.49925 9.73438C6.38389 9.73438 6.27155 9.7712 6.17858 9.83949L3.97129 11.4645C3.85813 11.5489 3.72101 11.5952 3.57981 11.5964C3.43861 11.5977 3.30068 11.554 3.186 11.4716C3.07132 11.3892 2.98586 11.2725 2.94201 11.1382C2.89817 11.004 2.8982 10.8593 2.94213 10.7251L3.79796 8.0872C3.83312 7.97863 3.8331 7.86173 3.79788 7.75317C3.76267 7.64462 3.69407 7.54996 3.60188 7.4827L1.35721 5.84199C1.24416 5.75922 1.16017 5.64285 1.11722 5.50949C1.07427 5.37613 1.07456 5.2326 1.11805 5.09942C1.16155 4.96624 1.24602 4.8502 1.3594 4.7679C1.47278 4.68559 1.60927 4.64122 1.74937 4.64112H4.51188C4.62655 4.64111 4.73827 4.60471 4.83094 4.53716C4.92361 4.4696 4.99245 4.37438 5.02754 4.2652L5.86713 1.64841C5.91022 1.5145 5.99469 1.39772 6.10839 1.31488C6.22208 1.23203 6.35912 1.1874 6.49979 1.1874C6.64046 1.1874 6.77751 1.23203 6.8912 1.31488C7.00489 1.39772 7.08936 1.5145 7.13246 1.64841L7.97204 4.2652C8.00713 4.37438 8.07597 4.4696 8.16864 4.53716C8.26131 4.60471 8.37303 4.64111 8.48771 4.64112H11.2502C11.3903 4.64122 11.5268 4.68559 11.6402 4.7679C11.7536 4.8502 11.838 4.96624 11.8815 5.09942C11.925 5.2326 11.9253 5.37613 11.8824 5.50949C11.8394 5.64285 11.7554 5.75922 11.6424 5.84199H11.6413Z" fill="#1C1C1C"/>
</g>
<defs>
<clipPath id="clip0_415_2945">
<rect width="13" height="13" fill="white"/>
</clipPath>
</defs>
</svg>
