<svg width="40" height="40" viewBox="0 0 40 40" fill="none" xmlns="http://www.w3.org/2000/svg">
<circle cx="20" cy="20" r="20" fill="white"/>
<path d="M28.1259 15.234C27.8671 15.1262 27.582 15.0978 27.307 15.1526C27.032 15.2073 26.7796 15.3427 26.5817 15.5414L24.75 17.3732L21.5016 14.1247C21.2359 13.8592 20.8756 13.71 20.5 13.71C20.1244 13.71 19.7641 13.8592 19.4984 14.1247L16.25 17.3732L14.4182 15.5414C14.2201 15.3433 13.9677 15.2085 13.693 15.1538C13.4182 15.0992 13.1334 15.1272 12.8746 15.2344C12.6157 15.3416 12.3945 15.5232 12.2388 15.7561C12.0832 15.989 12.0001 16.2628 12 16.543V24.0414C12.0011 24.9804 12.3746 25.8806 13.0386 26.5445C13.7025 27.2085 14.6027 27.582 15.5417 27.5831H25.4583C26.3973 27.582 27.2975 27.2085 27.9614 26.5445C28.6254 25.8806 28.9989 24.9804 29 24.0414V16.543C29.0001 16.2628 28.9171 15.9889 28.7615 15.7559C28.6059 15.5229 28.3847 15.3413 28.1259 15.234V15.234Z" fill="#1C1C1C"/>
</svg>
