<svg width="15" height="15" viewBox="0 0 15 15" fill="none" xmlns="http://www.w3.org/2000/svg">
<g clip-path="url(#clip0_414_1587)">
<path d="M4.375 15.0005C5.06535 15.0005 5.625 14.4408 5.625 13.7505C5.625 13.0601 5.06535 12.5005 4.375 12.5005C3.68464 12.5005 3.125 13.0601 3.125 13.7505C3.125 14.4408 3.68464 15.0005 4.375 15.0005Z" fill="#D77E6C"/>
<path d="M10.625 15.0005C11.3154 15.0005 11.875 14.4408 11.875 13.7505C11.875 13.0601 11.3154 12.5005 10.625 12.5005C9.93464 12.5005 9.375 13.0601 9.375 13.7505C9.375 14.4408 9.93464 15.0005 10.625 15.0005Z" fill="#D77E6C"/>
<path d="M14.8016 0.834603C14.6844 0.717433 14.5254 0.651611 14.3597 0.651611C14.194 0.651611 14.035 0.717433 13.9178 0.834603L10.6935 4.0621L9.72409 3.05023C9.66721 2.99105 9.59923 2.94366 9.52404 2.91075C9.44884 2.87785 9.3679 2.86007 9.28584 2.85845C9.20378 2.85682 9.1222 2.87138 9.04576 2.90128C8.96932 2.93118 8.89952 2.97585 8.84034 3.03273C8.78116 3.08961 8.73377 3.15758 8.70086 3.23278C8.66796 3.30797 8.65019 3.38891 8.64856 3.47098C8.64528 3.63671 8.70797 3.79696 8.82284 3.91648L9.83159 4.96585C9.93908 5.08195 10.069 5.17504 10.2135 5.23949C10.358 5.30395 10.514 5.33843 10.6722 5.34085H10.6928C10.8479 5.34136 11.0015 5.31108 11.1447 5.25174C11.2879 5.19241 11.418 5.10522 11.5272 4.99523L14.8016 1.71835C14.9188 1.60115 14.9846 1.44221 14.9846 1.27648C14.9846 1.11075 14.9188 0.951808 14.8016 0.834603Z" fill="#D77E6C"/>
<path d="M13.6875 5.635C13.6067 5.6204 13.5238 5.62187 13.4436 5.63932C13.3633 5.65677 13.2873 5.68986 13.2199 5.7367C13.1524 5.78354 13.0949 5.84321 13.0505 5.9123C13.0061 5.9814 12.9758 6.05856 12.9613 6.13937L12.8813 6.5825C12.8033 7.0152 12.5757 7.40674 12.2384 7.6887C11.901 7.97065 11.4753 8.12508 11.0356 8.125H3.38625L2.79875 3.125H6.875C7.04076 3.125 7.19973 3.05915 7.31694 2.94194C7.43415 2.82473 7.5 2.66576 7.5 2.5C7.5 2.33424 7.43415 2.17527 7.31694 2.05806C7.19973 1.94085 7.04076 1.875 6.875 1.875H2.65125L2.625 1.655C2.57114 1.19912 2.35191 0.778846 2.00887 0.473815C1.66582 0.168784 1.2228 0.000195523 0.76375 0L0.625 0C0.45924 0 0.300269 0.065848 0.183058 0.183058C0.065848 0.300269 0 0.45924 0 0.625C0 0.79076 0.065848 0.949732 0.183058 1.06694C0.300269 1.18415 0.45924 1.25 0.625 1.25H0.76375C0.916833 1.25002 1.06459 1.30622 1.17898 1.40795C1.29338 1.50967 1.36646 1.64984 1.38437 1.80187L2.24437 9.11438C2.33366 9.87487 2.69905 10.5761 3.27119 11.085C3.84334 11.5939 4.58241 11.875 5.34812 11.875H11.875C12.0408 11.875 12.1997 11.8092 12.3169 11.6919C12.4342 11.5747 12.5 11.4158 12.5 11.25C12.5 11.0842 12.4342 10.9253 12.3169 10.8081C12.1997 10.6908 12.0408 10.625 11.875 10.625H5.34812C4.96032 10.6251 4.58204 10.5049 4.26538 10.281C3.94872 10.0572 3.70927 9.74062 3.58 9.375H11.0356C11.7683 9.37504 12.4777 9.11764 13.0399 8.64777C13.6021 8.1779 13.9813 7.52544 14.1112 6.80438L14.1912 6.36063C14.2206 6.19761 14.184 6.02963 14.0895 5.89357C13.9951 5.75752 13.8505 5.66452 13.6875 5.635Z" fill="#D77E6C"/>
</g>
<defs>
<clipPath id="clip0_414_1587">
<rect width="15" height="15" fill="white"/>
</clipPath>
</defs>
</svg>
