<svg width="19" height="19" viewBox="0 0 19 19" fill="none" xmlns="http://www.w3.org/2000/svg">
<g clip-path="url(#clip0_414_1031)">
<path d="M5.54167 0H3.16667C2.32681 0 1.52136 0.33363 0.927495 0.927495C0.33363 1.52136 0 2.32681 0 3.16667L0 5.54167C0 6.38152 0.33363 7.18697 0.927495 7.78084C1.52136 8.3747 2.32681 8.70833 3.16667 8.70833H5.54167C6.38152 8.70833 7.18697 8.3747 7.78084 7.78084C8.3747 7.18697 8.70833 6.38152 8.70833 5.54167V3.16667C8.70833 2.32681 8.3747 1.52136 7.78084 0.927495C7.18697 0.33363 6.38152 0 5.54167 0V0ZM7.125 5.54167C7.125 5.96159 6.95818 6.36432 6.66125 6.66125C6.36432 6.95818 5.96159 7.125 5.54167 7.125H3.16667C2.74674 7.125 2.34401 6.95818 2.04708 6.66125C1.75015 6.36432 1.58333 5.96159 1.58333 5.54167V3.16667C1.58333 2.74674 1.75015 2.34401 2.04708 2.04708C2.34401 1.75015 2.74674 1.58333 3.16667 1.58333H5.54167C5.96159 1.58333 6.36432 1.75015 6.66125 2.04708C6.95818 2.34401 7.125 2.74674 7.125 3.16667V5.54167Z" fill="#D77E6C"/>
<path d="M15.8346 0H13.4596C12.6198 0 11.8143 0.33363 11.2205 0.927496C10.6266 1.52136 10.293 2.32682 10.293 3.16667V5.54167C10.293 6.38152 10.6266 7.18698 11.2205 7.78084C11.8143 8.37471 12.6198 8.70834 13.4596 8.70834H15.8346C16.6745 8.70834 17.4799 8.37471 18.0738 7.78084C18.6677 7.18698 19.0013 6.38152 19.0013 5.54167V3.16667C19.0013 2.32682 18.6677 1.52136 18.0738 0.927496C17.4799 0.33363 16.6745 0 15.8346 0V0ZM17.418 5.54167C17.418 5.9616 17.2511 6.36432 16.9542 6.66126C16.6573 6.95819 16.2546 7.125 15.8346 7.125H13.4596C13.0397 7.125 12.637 6.95819 12.34 6.66126C12.0431 6.36432 11.8763 5.9616 11.8763 5.54167V3.16667C11.8763 2.74674 12.0431 2.34401 12.34 2.04708C12.637 1.75015 13.0397 1.58333 13.4596 1.58333H15.8346C16.2546 1.58333 16.6573 1.75015 16.9542 2.04708C17.2511 2.34401 17.418 2.74674 17.418 3.16667V5.54167Z" fill="#D77E6C"/>
<path d="M5.54167 10.2917H3.16667C2.32681 10.2917 1.52136 10.6254 0.927495 11.2192C0.33363 11.8131 0 12.6186 0 13.4584L0 15.8334C0 16.6733 0.33363 17.4787 0.927495 18.0726C1.52136 18.6665 2.32681 19.0001 3.16667 19.0001H5.54167C6.38152 19.0001 7.18697 18.6665 7.78084 18.0726C8.3747 17.4787 8.70833 16.6733 8.70833 15.8334V13.4584C8.70833 12.6186 8.3747 11.8131 7.78084 11.2192C7.18697 10.6254 6.38152 10.2917 5.54167 10.2917ZM7.125 15.8334C7.125 16.2533 6.95818 16.6561 6.66125 16.953C6.36432 17.2499 5.96159 17.4168 5.54167 17.4168H3.16667C2.74674 17.4168 2.34401 17.2499 2.04708 16.953C1.75015 16.6561 1.58333 16.2533 1.58333 15.8334V13.4584C1.58333 13.0385 1.75015 12.6358 2.04708 12.3388C2.34401 12.0419 2.74674 11.8751 3.16667 11.8751H5.54167C5.96159 11.8751 6.36432 12.0419 6.66125 12.3388C6.95818 12.6358 7.125 13.0385 7.125 13.4584V15.8334Z" fill="#D77E6C"/>
<path d="M15.8346 10.2917H13.4596C12.6198 10.2917 11.8143 10.6254 11.2205 11.2192C10.6266 11.8131 10.293 12.6186 10.293 13.4584V15.8334C10.293 16.6733 10.6266 17.4787 11.2205 18.0726C11.8143 18.6665 12.6198 19.0001 13.4596 19.0001H15.8346C16.6745 19.0001 17.4799 18.6665 18.0738 18.0726C18.6677 17.4787 19.0013 16.6733 19.0013 15.8334V13.4584C19.0013 12.6186 18.6677 11.8131 18.0738 11.2192C17.4799 10.6254 16.6745 10.2917 15.8346 10.2917ZM17.418 15.8334C17.418 16.2533 17.2511 16.6561 16.9542 16.953C16.6573 17.2499 16.2546 17.4168 15.8346 17.4168H13.4596C13.0397 17.4168 12.637 17.2499 12.34 16.953C12.0431 16.6561 11.8763 16.2533 11.8763 15.8334V13.4584C11.8763 13.0385 12.0431 12.6358 12.34 12.3388C12.637 12.0419 13.0397 11.8751 13.4596 11.8751H15.8346C16.2546 11.8751 16.6573 12.0419 16.9542 12.3388C17.2511 12.6358 17.418 13.0385 17.418 13.4584V15.8334Z" fill="#D77E6C"/>
</g>
<defs>
<clipPath id="clip0_414_1031">
<rect width="19" height="19" fill="white"/>
</clipPath>
</defs>
</svg>
