<svg width="60" height="51" viewBox="0 0 60 51" fill="none" xmlns="http://www.w3.org/2000/svg">
<path d="M26.2365 3.54936C25.5171 2.91956 24.757 2.32996 23.9426 1.82076C19.8572 -0.698442 14.6317 -0.443842 10.4377 1.60636C2.10392 5.69336 -1.53361 19.4016 0.597332 28.4198C1.69673 33.016 4.31629 37.1164 7.6145 40.1984C11.6728 44.004 16.7219 46.4026 21.8796 48.0374C30.7426 50.838 40.5694 51.4142 49.0117 47.3808C54.3051 44.8482 58.7027 38.6038 59.5442 32.413C60.0872 28.3126 59.0013 23.77 56.2868 20.755C53.3957 17.5524 48.9438 17.003 45.1163 15.9042C41.5331 14.8858 38.0856 13.2912 34.9095 11.2276C31.5977 9.07016 29.1953 6.16236 26.2365 3.54936Z" fill="#F8CDC4"/>
<path d="M44.0985 36.7408C43.8949 37.0758 35.4934 37.3572 35.1947 37.0892C34.8961 36.8078 34.2311 29.3038 34.869 28.6606C35.4934 28.0308 43.3656 28.0308 43.7728 28.3256C44.18 28.607 44.3021 36.3924 44.0985 36.7408Z" fill="#8B4595"/>
<path d="M46.3114 36.6472C46.1078 36.9956 37.7062 37.277 37.4076 36.9956C37.109 36.7276 36.444 29.2102 37.0819 28.5804C37.7062 27.9506 45.5785 27.9372 45.9857 28.232C46.3929 28.5268 46.5286 36.3122 46.3114 36.6472Z" fill="#AA75D3"/>
<path d="M49.134 36.9022C49.134 36.9022 42.7547 36.9424 42.5376 36.728C42.3204 36.527 42.0625 31.0732 42.5376 30.631C43.0126 30.1888 49.0118 30.3898 49.0118 30.3898C49.2969 30.6176 49.2969 36.661 49.134 36.9022Z" fill="#EA9D2D"/>
<path d="M52.039 36.7282C51.8761 36.9828 45.7547 36.9426 45.5376 36.7282C45.3204 36.5272 45.0625 31.0734 45.5376 30.6312C46.0126 30.189 51.7539 30.4168 52.039 30.6312C52.324 30.859 52.2018 36.487 52.039 36.7282Z" fill="#FFC05C"/>
<path d="M41.4251 28.2723C41.4251 28.2723 37.1361 28.2991 37.0003 28.1651C36.851 28.0177 36.6746 24.3595 37.0003 24.0647C37.3125 23.7699 41.3436 23.9039 41.3436 23.9039C41.5337 24.0513 41.5337 28.1115 41.4251 28.2723Z" fill="#EA9D2D"/>
<path d="M43.3786 28.1651C43.27 28.3259 39.1439 28.2991 39.0081 28.1651C38.8588 28.0177 38.6824 24.3595 39.0081 24.0647C39.3339 23.7699 43.175 23.9173 43.3786 24.0647C43.5686 24.2121 43.4872 28.0043 43.3786 28.1651Z" fill="#FFC05C"/>
<path d="M47.0175 30.7379C47.0175 30.7379 41.5069 30.7915 41.3305 30.5101C41.1404 30.2421 40.9097 23.0329 41.3305 22.4567C41.7376 21.8805 46.9089 22.1351 46.9089 22.1351C47.1668 22.4299 47.1532 30.4163 47.0175 30.7379Z" fill="#CE1A5C"/>
<path d="M49.5276 30.5102C49.3919 30.8318 44.0985 30.7916 43.9085 30.5102C43.732 30.2422 43.5013 23.033 43.9085 22.4568C44.3292 21.8806 49.2833 22.162 49.5276 22.4568C49.772 22.7516 49.6634 30.1886 49.5276 30.5102Z" fill="#EA487A"/>
<path d="M35.8052 48.2922C34.9501 48.2922 34.2715 47.6088 34.2715 46.7512C34.2715 45.907 34.9501 45.2236 35.8052 45.2236C36.6603 45.2236 37.3525 45.907 37.3525 46.7512C37.3525 47.6088 36.6603 48.2922 35.8052 48.2922Z" fill="#602968"/>
<path d="M35.8065 47.8366C35.2093 47.8366 34.7207 47.3542 34.7207 46.7512C34.7207 46.1616 35.2093 45.6792 35.8065 45.6792C36.4173 45.6792 36.8924 46.1616 36.8924 46.7512C36.8924 47.3542 36.4173 47.8366 35.8065 47.8366ZM35.8065 47.716C35.2772 47.716 34.8429 47.2872 34.8429 46.7512C34.8429 46.2286 35.2772 45.7998 35.8065 45.7998C36.3359 45.7998 36.7702 46.2286 36.7702 46.7512C36.7702 47.2872 36.3359 47.716 35.8065 47.716Z" fill="#602968"/>
<path d="M35.2773 44.7412V47.046C35.2773 47.5418 36.0239 47.7294 36.2953 47.046L37.5033 44.7412H35.2773Z" fill="white"/>
<path d="M48.1567 48.2922C47.3016 48.2922 46.6094 47.6088 46.6094 46.7512C46.6094 45.907 47.3016 45.2236 48.1567 45.2236C49.0118 45.2236 49.6904 45.907 49.6904 46.7512C49.6904 47.6088 49.0118 48.2922 48.1567 48.2922Z" fill="#602968"/>
<path d="M48.1581 47.8366C47.5609 47.8366 47.0723 47.3542 47.0723 46.7512C47.0723 46.1616 47.5609 45.6792 48.1581 45.6792C48.7553 45.6792 49.2439 46.1616 49.2439 46.7512C49.2439 47.3542 48.7553 47.8366 48.1581 47.8366ZM48.1581 47.716C47.6288 47.716 47.1944 47.2872 47.1944 46.7512C47.1944 46.2286 47.6288 45.7998 48.1581 45.7998C48.6874 45.7998 49.1218 46.2286 49.1218 46.7512C49.1218 47.2872 48.6874 47.716 48.1581 47.716Z" fill="#602968"/>
<path d="M47.6271 44.7412V47.046C47.6136 47.5418 48.3736 47.7294 48.6451 47.046L49.8531 44.7412H47.6271Z" fill="white"/>
<path d="M35.9423 47.0457C35.9423 47.1663 35.8473 47.2467 35.7387 47.2467C35.6302 47.2467 35.5352 47.1663 35.5352 47.0457C35.5352 46.9385 35.6302 46.8447 35.7387 46.8447C35.8473 46.8447 35.9423 46.9385 35.9423 47.0457Z" fill="#F1E4DB"/>
<path d="M48.2802 47.0457C48.2802 47.1663 48.1852 47.2467 48.0766 47.2467C47.9681 47.2467 47.873 47.1663 47.873 47.0457C47.873 46.9385 47.9681 46.8447 48.0766 46.8447C48.1852 46.8447 48.2802 46.9385 48.2802 47.0457Z" fill="#F1E4DB"/>
<path d="M51.2101 44.9284H33.4704C33.0904 44.9284 32.7511 44.7274 32.5475 44.4192C32.3303 44.0976 32.3032 43.6956 32.466 43.3606L34.8684 38.1614C35.0313 37.7862 35.3435 37.1162 36.3479 37.076L51.2237 36.5132L51.2509 36.8884L36.3614 37.4512C35.5878 37.478 35.3706 37.9604 35.2077 38.3088L35.1942 38.349L32.8054 43.508C32.7103 43.7358 32.7239 44.0038 32.8596 44.2182C32.9954 44.4326 33.2261 44.5532 33.4704 44.5532H51.2101V44.9284Z" fill="white"/>
<path d="M35.2896 37.4914C34.5838 37.4914 33.9595 36.9688 33.8373 36.272L31.8828 25.083L54.6038 28.2186L52.785 35.937C52.6629 36.4596 52.2014 36.8482 51.6449 36.875L35.3575 37.4914C35.3394 37.4914 35.3167 37.4914 35.2896 37.4914ZM32.3443 25.5252L34.2173 36.205C34.2988 36.7276 34.7603 37.1162 35.2896 37.1162C35.3077 37.1162 35.3258 37.1162 35.3439 37.1162L51.6313 36.4998C52.0114 36.4864 52.3371 36.2184 52.4185 35.8566L54.1423 28.5268L32.3443 25.5252Z" fill="white"/>
<path d="M31.9511 25.3914L30.2817 22.3496C29.9559 21.7734 29.3587 21.4116 28.7072 21.4116H26.8613V21.0498H28.7072C29.4945 21.0498 30.2274 21.4786 30.6074 22.1754L32.2769 25.2172L31.9511 25.3914Z" fill="white"/>
<path d="M28.8975 21.8672C28.3817 21.8672 27.9609 21.4518 27.9609 20.9292C27.9609 20.4066 28.3817 19.9912 28.8975 19.9912C29.4132 19.9912 29.834 20.4066 29.834 20.9292C29.834 21.4518 29.4132 21.8672 28.8975 21.8672Z" fill="#602968"/>
<path d="M33.8789 35.5218V35.2806L52.718 34.9858V35.2404L33.8789 35.5218Z" fill="white"/>
<path d="M53.3139 32.6945L33.4297 32.1719L33.4433 31.9307L53.3139 32.4533V32.6945Z" fill="white"/>
<path d="M54.0473 30.0144L32.6836 28.728L32.6972 28.4868L54.0608 29.7732L54.0473 30.0144Z" fill="white"/>
<path d="M35.7114 37.3172L33.9062 25.5788L34.1506 25.5386L35.9558 37.277L35.7114 37.3172Z" fill="white"/>
<path d="M38.6558 37.2103L37.5293 25.9409L37.7872 25.9141L38.9137 37.1835L38.6558 37.2103Z" fill="white"/>
<path d="M41.6563 37.1031L41.127 26.4099L41.3713 26.3965L41.9142 37.0897L41.6563 37.1031Z" fill="white"/>
<path d="M44.8454 36.9156L44.5332 27.0532H44.7775L45.0897 36.9022L44.8454 36.9156Z" fill="white"/>
<path d="M47.9939 36.8217L47.9668 27.5757H48.2111L48.2518 36.8217H47.9939Z" fill="white"/>
<path d="M51.1563 36.7146L50.8984 36.7012L51.6449 28.085L51.8893 28.1118L51.1563 36.7146Z" fill="white"/>
<path d="M37.3947 44.982H35.2773V44.915H37.3947V44.982Z" fill="#E9D9CF"/>
<path d="M49.7443 44.982H47.627V44.915H49.7443V44.982Z" fill="#E9D9CF"/>
<path d="M15.5821 21.6795L15.5006 21.5991C15.5006 21.5857 16.5186 20.6745 16.3965 20.0179C16.3512 19.7946 16.1748 19.6248 15.8671 19.5087C14.4691 18.9861 13.3018 20.7951 13.2883 20.8085L13.1797 20.7415C13.1933 20.7281 13.4919 20.2591 13.9669 19.8571C14.6184 19.3211 15.2835 19.1603 15.9078 19.3881C16.2607 19.5221 16.4643 19.7231 16.5186 19.9911C16.6543 20.7147 15.6228 21.6527 15.5821 21.6795Z" fill="#602968"/>
<path d="M14.1567 32.6543L18.7036 22.229C18.7172 22.0146 12.1208 19.5222 11.9172 19.75C10.3292 22.631 7.60102 29.13 7.60102 29.13C7.49244 29.3578 7.45172 29.8938 8.19823 30.336C9.06689 30.8586 12.7451 32.2925 14.1567 32.6543Z" fill="#8B4595"/>
<path d="M15.0394 32.8953C13.0985 32.3995 11.1304 31.6759 9.29807 30.7513C9.06733 30.6575 8.94517 30.3627 9.05376 30.1081C9.0809 29.4649 10.5875 27.4013 12.8949 20.1251C13.0985 19.9241 18.8669 22.1485 18.9348 22.3897C19.0027 22.6309 16.3017 32.0645 16.3017 32.0645C16.2202 32.3191 15.8945 33.0963 15.0394 32.8953Z" fill="#AA75D3"/>
<path d="M14.8345 21.3713C14.7802 21.4919 14.6581 21.5455 14.5495 21.5053C14.4273 21.4517 14.373 21.3311 14.4138 21.2239C14.4545 21.1033 14.5902 21.0497 14.6988 21.0899C14.8209 21.1301 14.8752 21.2641 14.8345 21.3713Z" fill="#602968"/>
<path d="M17.1568 22.2425C17.1161 22.3497 16.9803 22.4167 16.8718 22.3631C16.7496 22.3229 16.6953 22.2023 16.736 22.0817C16.7903 21.9745 16.9125 21.9209 17.0211 21.9611C17.1432 22.0013 17.1975 22.1219 17.1568 22.2425Z" fill="#602968"/>
<path d="M17.0072 22.1752L16.885 22.1618C16.885 22.135 17.2379 20.0312 15.8264 19.4952C15.5187 19.3791 15.2744 19.3925 15.0934 19.5354C14.5641 19.9374 14.6998 21.2774 14.6998 21.3042L14.5776 21.3176C14.5776 21.2506 14.4284 19.8838 15.012 19.4416C15.2291 19.2674 15.5277 19.254 15.8671 19.388C16.4914 19.6158 16.8986 20.1786 17.0072 20.996C17.1022 21.6124 17.0072 22.1484 17.0072 22.1752Z" fill="#602968"/>
<path d="M25.5992 20.594C25.4363 21.465 26.4815 21.8402 26.6036 21.8938C27.6216 22.2958 28.8974 22.1484 29.2367 21.8268C29.6439 21.8402 29.8204 21.666 29.8068 21.5186C30.1868 21.4784 30.214 21.1434 30.119 21.1166C30.4312 21.1568 30.5397 20.7414 30.1054 20.6074C29.8611 20.5672 28.4902 20.2188 28.4902 20.1786C28.4088 19.5488 26.8615 19.6694 26.6036 19.7364C26.21 19.8436 25.7078 20.0848 25.5992 20.594Z" fill="#F8AF86"/>
<path d="M30.1192 21.1835C29.4406 21.1031 28.7484 20.9691 27.9883 20.7681L28.029 20.6475C28.7755 20.8485 29.4677 20.9825 30.1328 21.0495L30.1192 21.1835Z" fill="#602968"/>
<path d="M29.5898 21.5721C28.7075 21.5721 27.9746 21.3711 27.9746 21.3711L28.0018 21.2505C28.0153 21.2505 28.8433 21.4783 29.8205 21.4381V21.5587C29.7481 21.5676 29.6712 21.5721 29.5898 21.5721Z" fill="#602968"/>
<path d="M28.9793 21.8939C28.6264 21.8939 28.3007 21.8403 28.2871 21.8403L28.3007 21.7197C28.3143 21.7197 28.8029 21.7867 29.2644 21.7599V21.8805C29.1739 21.8895 29.0789 21.8939 28.9793 21.8939Z" fill="#602968"/>
<path d="M28.4772 20.2454L27.7578 20.0444L27.785 19.9238L28.5043 20.1248L28.4772 20.2454Z" fill="#602968"/>
<path d="M13.8171 46.188L15.8937 46.0942C15.8937 46.0942 16.0837 46.6168 16.7895 46.9652C18.3775 47.5414 18.4047 48.2918 18.1468 48.2918H14.2785C13.8578 48.2918 13.5456 47.9166 13.5999 47.5146L13.8171 46.188Z" fill="#602968"/>
<path d="M7.50638 43.5483L9.17585 44.7677C9.17585 44.7677 8.9994 45.2903 9.31157 46.0005C10.1802 47.4343 9.71876 48.0373 9.51517 47.8765L6.51557 45.4645C6.18982 45.1965 6.18982 44.7141 6.50199 44.4461L7.50638 43.5483Z" fill="#602968"/>
<path d="M19.8986 22.2154C19.2742 22.805 19.8986 23.676 19.9529 23.7966C20.2379 24.3996 21.5409 25.3778 21.5409 25.3778C21.8531 25.6458 22.0974 25.4046 22.0159 25.2974C21.9752 25.2572 22.1924 25.4582 22.2331 25.4984C22.6403 25.82 22.8303 25.4582 22.7081 25.284C22.9796 25.5922 23.3325 25.3242 23.1696 25.1098C23.3868 25.3108 23.7125 25.0428 23.4411 24.7078C23.3189 24.4934 21.9752 23.0194 21.9752 23.0194C22.1109 22.9122 22.6267 23.4884 22.9932 23.2606C23.0339 23.2204 23.0203 23.1802 22.9932 23.1534C22.1381 22.3628 21.4187 22.1752 21.1744 22.0814C20.8079 21.9608 20.265 21.867 19.8986 22.2154Z" fill="#F8AF86"/>
<path d="M21.9473 25.3376L21.1465 24.4666L21.2415 24.3862L22.0423 25.2572L21.9473 25.3376Z" fill="#602968"/>
<path d="M22.654 25.3242L21.541 24.212L21.636 24.1182L22.7354 25.2438L22.654 25.3242Z" fill="#602968"/>
<path d="M23.128 25.15L21.9336 23.877L22.015 23.7832L23.223 25.0562L23.128 25.15Z" fill="#602968"/>
<path d="M21.0523 24.5737L20.998 24.4531C21.3238 24.2923 21.6767 24.0243 22.0839 23.6357L22.1789 23.7161C21.7446 24.1315 21.3917 24.3995 21.0523 24.5737Z" fill="#602968"/>
<path d="M21.2962 23.274C21.1062 23.274 20.889 23.2338 20.6719 23.0864L20.7397 22.9926C21.3369 23.3544 21.9206 22.9792 21.9342 22.9658L22.0156 23.073C22.002 23.073 21.7034 23.274 21.2962 23.274Z" fill="#602968"/>
<path d="M12.9766 17.914C12.9766 18.8922 13.7909 19.6962 14.7818 19.6962C15.474 19.6828 16.0847 19.3076 16.3969 18.7046L16.4105 18.6778C16.4512 18.5974 16.4784 18.5304 16.4919 18.45L19.0979 12.1922C19.2336 11.9108 19.3015 11.6026 19.3015 11.281C19.3015 10.1152 18.3378 9.17725 17.157 9.17725C16.2748 9.17725 15.4875 9.69985 15.1754 10.5172L15.1618 10.5306C15.1256 10.6289 15.0985 10.7227 15.0804 10.812L13.0987 17.2574L13.0716 17.3378C13.0082 17.5254 12.9766 17.7175 12.9766 17.914Z" fill="white"/>
<path d="M16.3283 16.7615C16.3283 16.7615 21.0923 21.5721 21.1331 21.9071C21.1602 22.2421 19.8708 23.5955 19.5993 23.6357C19.3279 23.6759 13.858 19.4683 13.858 19.4683C11.5235 17.9139 14.2109 14.8051 16.3283 16.7615Z" fill="white"/>
<path d="M16.2063 17.7802L16.1113 17.6864C16.3149 17.5122 16.5457 17.3782 16.8171 17.3246C16.6135 17.2308 16.4235 17.1772 16.2471 17.1772C16.238 17.1772 16.2335 17.1772 16.2335 17.1772V17.0566C16.2335 17.0566 16.238 17.0566 16.2471 17.0566C16.4914 17.0566 16.7764 17.137 17.0343 17.2978L17.1836 17.3916L17.0071 17.4184C16.6904 17.4542 16.4235 17.5748 16.2063 17.7802Z" fill="#602968"/>
<path d="M15.6365 21.8804C14.6592 25.619 13.9127 29.2236 13.5191 32.6272C13.5191 32.6272 6.89554 42.972 6.96341 43.3338C7.03127 43.709 9.02648 45.5314 9.4201 45.4376C9.85443 45.2902 16.7087 37.2234 18.0796 33.9002C19.5183 30.5234 19.3147 25.485 19.3147 25.485L19.2333 22.0948L15.9758 21.8938" fill="#99848A"/>
<path d="M22.5863 22.2959L15.4062 22.3629C15.3519 23.1133 15.3655 24.0513 16.017 24.7347L15.5962 34.1147C15.5962 34.1147 13.1667 45.6387 13.3432 45.9737C13.506 46.3221 16.2477 46.4561 16.4785 46.1747C16.7228 45.8933 21.5683 34.4765 22.5863 22.2959Z" fill="#99848A"/>
<path d="M14.4972 39.5819L14.375 39.5685C14.5786 37.4781 15.3387 33.5787 15.3522 33.5385C15.298 30.6575 15.5015 27.6559 15.963 24.6409C15.9359 24.6051 15.9042 24.5694 15.868 24.5337C15.7459 24.3595 15.5694 24.1585 15.4744 23.8503L15.5966 23.8101C15.6916 24.1049 15.8409 24.2925 15.9766 24.4533C16.0128 24.4979 16.0445 24.5426 16.0716 24.5873L16.0852 24.6141V24.6409C15.6373 27.6559 15.4337 30.6575 15.4744 33.5519C15.4608 33.6055 14.7007 37.4915 14.4972 39.5819Z" fill="#602968"/>
<path d="M17.5781 9.17706L18.2703 6.25586L20.8356 7.28766C20.8356 7.28766 20.3606 8.46686 20.3877 9.19046C20.4284 9.91406 20.5913 10.6377 20.5913 10.6377L17.5781 9.17706Z" fill="#F8AF86"/>
<path d="M19.1927 7.44869C19.1927 7.44869 19.8171 8.19909 20.6722 8.23929C21.1879 8.26609 21.6494 7.97129 21.853 7.51569C21.9752 7.24769 22.0702 6.87249 22.0837 6.37669C22.0837 6.37669 22.4231 6.00149 22.4366 5.86749C22.4502 5.73349 22.0973 4.84909 22.0973 4.84909C22.0973 4.84909 22.1109 3.56269 21.4051 3.02669C20.7129 2.49069 18.5141 2.67829 18.5141 2.67829L17.7676 3.58949L18.2291 6.37669L19.1927 7.44869Z" fill="#F8AF86"/>
<path d="M20.0068 4.47377C20.0068 4.47377 22.2056 3.85737 21.8662 2.85237C21.5405 1.83397 20.1425 1.90096 20.1425 1.90096C18.4052 1.84736 16.8171 2.50397 16.7493 4.21917C16.6678 5.93437 18.1744 6.76517 18.1744 6.76517L18.4323 5.97456C18.4323 5.97456 17.7401 4.90256 18.6088 4.44696C19.3553 4.15216 19.5046 5.29117 19.5589 5.76017C20.0611 5.49217 20.0068 4.47377 20.0068 4.47377Z" fill="#602968"/>
<path d="M19.709 24.8687V24.7481C21.3377 24.6543 21.6228 23.5287 21.6228 23.4751L21.7585 23.5019C21.7449 23.5153 21.4463 24.7749 19.709 24.8687Z" fill="#602968"/>
<path d="M20.5367 9.48526L20.4009 9.24406C19.4373 9.51206 18.7043 9.27086 17.6864 8.73486C16.4105 8.96266 15.1211 9.76666 15.1211 11.3211C15.1211 11.3211 15.3518 22.9389 15.2975 23.1935C17.6999 23.8501 20.1295 24.0243 22.5862 23.6357L22.7355 22.8853C23.2377 17.5387 22.7626 12.7951 20.5367 9.48526Z" fill="white"/>
<path d="M17.7138 19.4953C18.1346 20.3797 19.2204 20.7549 20.1162 20.3395C20.7406 20.0447 21.1342 19.4417 21.1342 18.7583V18.7315C21.1342 18.6377 21.1342 18.5573 21.1206 18.4903L20.7542 11.7367C20.7406 11.4151 20.6727 11.1069 20.537 10.8255C20.0348 9.76688 18.7454 9.32468 17.6867 9.83388C16.8859 10.2091 16.4109 11.0131 16.4651 11.8841L16.4787 11.9109C16.4878 12.0091 16.5013 12.1029 16.5194 12.1923L17.5374 18.8521L17.551 18.9325C17.5691 19.129 17.6234 19.3166 17.7138 19.4953Z" fill="white"/>
<path d="M20.3069 16.9896C20.3069 16.9896 26.564 19.2542 26.8083 19.616C27.0527 19.9778 26.5369 21.559 26.279 21.8136C26.0075 22.0816 19.2211 20.554 19.2211 20.554C16.3844 20.1386 17.4974 16.132 20.3069 16.9896Z" fill="white"/>
<path d="M20.5643 18.0081L20.4557 17.9679C20.5553 17.7088 20.7091 17.4989 20.9172 17.3381C20.9082 17.3381 20.9036 17.3381 20.9036 17.3381C20.6865 17.3381 20.4965 17.3783 20.3336 17.4453L20.2793 17.3381C20.51 17.2309 20.7951 17.1907 21.1072 17.2175L21.2837 17.2443L21.1344 17.3381C20.872 17.4989 20.682 17.7222 20.5643 18.0081Z" fill="#602968"/>
<path d="M22.8982 17.981L21.0387 17.3244V17.2842L20.7266 12.487L20.8487 12.4736L21.1609 17.2306L22.9389 17.8738L22.8982 17.981Z" fill="#602968"/>
<path d="M22.8173 21.371C22.7902 21.371 19.2205 20.5804 18.9491 20.5268C18.8133 20.5 18.6821 20.4553 18.5555 20.3928C18.5283 20.3839 18.5012 20.3705 18.474 20.3526C18.1076 20.165 17.8225 19.8836 17.6597 19.5218C17.5692 19.3342 17.5104 19.1377 17.4832 18.9322L17.4696 18.8652L16.5738 13.0094C16.5738 12.9692 16.4245 12.0044 16.886 11.187L16.9946 11.254C16.5603 12.0178 16.696 12.9826 16.7096 12.996L17.6054 18.9188C17.6325 19.1153 17.6868 19.2985 17.7682 19.4682C17.9311 19.8032 18.189 20.0712 18.5283 20.2454C18.5555 20.2633 18.5826 20.2767 18.6098 20.2856C18.7183 20.3392 18.8405 20.3794 18.9762 20.4062C19.2477 20.4598 22.8173 21.2504 22.8445 21.2504L22.8173 21.371Z" fill="#602968"/>
<path d="M15.3506 20.567L15.2149 20.5536C15.2692 19.3878 15.1606 18.1282 15.052 16.8954C14.8484 14.6844 14.6449 12.4064 15.3506 10.4634L15.4728 10.5036C14.7806 12.4198 14.9842 14.6978 15.1742 16.8954C15.2828 18.1148 15.3914 19.3878 15.3506 20.567Z" fill="#602968"/>
<path d="M13.9397 33.0964C13.7361 32.9088 13.5189 32.7078 13.4782 32.681L13.4375 32.6542L13.4511 32.614C13.4782 32.547 13.4782 32.547 14.3197 32.7346L14.2926 32.8552C14.1161 32.815 13.899 32.7614 13.7225 32.7346C13.8175 32.8284 13.9397 32.9356 14.0211 33.016L13.9397 33.0964Z" fill="#602968"/>
<path d="M14.5774 21.3174C14.5774 21.237 14.3467 19.4548 15.2968 19.3208L15.3103 19.4414C14.4824 19.562 14.6996 21.2772 14.6996 21.2906L14.5774 21.3174Z" fill="#602968"/>
<path d="M19.4648 4.78183L19.5599 5.76003C19.5599 5.76003 19.0712 8.14523 20.4964 8.37303C21.908 8.58743 22.3423 7.55563 22.0844 6.37643C21.1343 6.72483 20.4285 6.13523 20.0078 4.47363L19.4648 4.78183Z" fill="#602968"/>
</svg>
