<svg width="24" height="24" viewBox="0 0 24 24" fill="none" xmlns="http://www.w3.org/2000/svg">
<path d="M16.999 24H7.00401C6.42572 23.9997 5.85433 23.8744 5.32895 23.6328C4.80357 23.3912 4.3366 23.0389 3.96001 22.6C3.58872 22.1707 3.31456 21.6663 3.15629 21.1212C2.99802 20.5762 2.95938 20.0034 3.04301 19.442C3.57992 16.5175 5.13997 13.8795 7.44401 12C5.13994 10.1199 3.58021 7.48109 3.04401 4.556C2.96054 3.99502 2.99917 3.42262 3.15726 2.87794C3.31535 2.33326 3.58917 1.82913 3.96001 1.4C4.3366 0.961146 4.80357 0.608844 5.32895 0.36721C5.85433 0.125575 6.42572 0.000313842 7.00401 0L16.999 0C17.5773 0.000512143 18.1486 0.125862 18.6739 0.367483C19.1993 0.609104 19.6663 0.9613 20.043 1.4C20.4139 1.82895 20.6879 2.33285 20.8463 2.87732C21.0047 3.42179 21.0439 3.99403 20.961 4.555C20.4193 7.48095 18.8561 10.1194 16.55 12C18.8548 13.8822 20.4162 16.5217 20.956 19.448C21.0389 20.0091 20.9999 20.5815 20.8414 21.1262C20.683 21.6708 20.409 22.1749 20.038 22.604C19.6615 23.0413 19.1951 23.3924 18.6707 23.6333C18.1463 23.8742 17.5761 23.9993 16.999 24ZM16.999 2H7.00401C6.71394 1.99982 6.42725 2.06227 6.16354 2.18308C5.89983 2.30389 5.66531 2.48022 5.47601 2.7C5.29116 2.91043 5.15456 3.15874 5.07579 3.42753C4.99702 3.69632 4.97798 3.97908 5.02001 4.256C5.39601 6.756 6.94401 9.096 9.62001 11.213C9.73825 11.3066 9.83378 11.4258 9.89946 11.5615C9.96513 11.6973 9.99925 11.8462 9.99925 11.997C9.99925 12.1478 9.96513 12.2967 9.89946 12.4325C9.83378 12.5682 9.73825 12.6874 9.62001 12.781C6.94401 14.9 5.39901 17.242 5.02001 19.741C4.97753 20.0184 4.99634 20.3017 5.07512 20.5711C5.1539 20.8404 5.29074 21.0892 5.47601 21.3C5.66531 21.5198 5.89983 21.6961 6.16354 21.8169C6.42725 21.9377 6.71394 22.0002 7.00401 22H16.999C17.2891 22.0002 17.5758 21.9378 17.8395 21.817C18.1032 21.6962 18.3377 21.5198 18.527 21.3C18.7118 21.0899 18.8484 20.842 18.9272 20.5735C19.0059 20.3051 19.025 20.0226 18.983 19.746C18.61 17.259 17.063 14.917 14.383 12.784C14.2655 12.6903 14.1706 12.5714 14.1054 12.436C14.0402 12.3006 14.0063 12.1523 14.0063 12.002C14.0063 11.8517 14.0402 11.7034 14.1054 11.568C14.1706 11.4326 14.2655 11.3137 14.383 11.22C17.064 9.087 18.611 6.745 18.983 4.257C19.0249 3.97955 19.0053 3.69629 18.9256 3.42725C18.8459 3.1582 18.7082 2.90994 18.522 2.7C18.3333 2.4808 18.0996 2.30482 17.8368 2.18403C17.574 2.06324 17.2882 2.00047 16.999 2ZM15.68 20H8.31701C8.15339 19.9999 7.99228 19.9597 7.84782 19.8829C7.70337 19.806 7.57997 19.6949 7.48846 19.5593C7.39695 19.4236 7.34012 19.2676 7.32295 19.1049C7.30579 18.9422 7.32881 18.7777 7.39001 18.626C8.17308 16.9351 9.36621 15.4666 10.861 14.354L11.379 13.942C11.556 13.8012 11.7754 13.7246 12.0015 13.7246C12.2276 13.7246 12.447 13.8012 12.624 13.942L13.133 14.348C14.6257 15.465 15.8188 16.934 16.606 18.624C16.6676 18.7758 16.691 18.9403 16.674 19.1033C16.6571 19.2662 16.6005 19.4224 16.509 19.5583C16.4176 19.6942 16.2942 19.8055 16.1496 19.8826C16.005 19.9596 15.8438 19.9999 15.68 20ZM10.033 18H13.961C13.3904 17.2563 12.7316 16.5847 11.999 16C11.2632 16.5824 10.6027 17.2543 10.033 18Z" fill="#1C1C1C"/>
</svg>
