<svg width="13" height="14" viewBox="0 0 13 14" fill="none" xmlns="http://www.w3.org/2000/svg">
<path fill-rule="evenodd" clip-rule="evenodd" d="M1.60263 9.47407C2.19397 8.87837 2.99588 8.5437 3.83183 8.5437H8.87525C9.7112 8.5437 10.5131 8.87837 11.1044 9.47407C11.6951 10.0697 12.0274 10.8776 12.0274 11.7201V12.9906C12.0274 13.3415 11.745 13.6259 11.397 13.6259C11.049 13.6259 10.7665 13.3415 10.7665 12.9906V11.7201C10.7665 11.2147 10.5673 10.7299 10.2124 10.3725C9.85809 10.0151 9.37707 9.81426 8.87525 9.81426H3.83183C3.33001 9.81426 2.84899 10.0151 2.49469 10.3725C2.13976 10.7299 1.94054 11.2147 1.94054 11.7201L1.94054 12.9906C1.94054 13.3415 1.65811 13.6259 1.31012 13.6259C0.962119 13.6259 0.679687 13.3415 0.679687 12.9906V11.7201C0.679687 10.8776 1.01192 10.0697 1.60263 9.47407Z" fill="#1C1C1C"/>
<path fill-rule="evenodd" clip-rule="evenodd" d="M6.35331 2.19048C5.30869 2.19048 4.46203 3.04372 4.46203 4.09631C4.46203 5.1489 5.30869 6.00214 6.35331 6.00214C7.39793 6.00214 8.2446 5.1489 8.2446 4.09631C8.2446 3.04372 7.39793 2.19048 6.35331 2.19048ZM3.20117 4.09631C3.20117 2.34205 4.6127 0.919922 6.35331 0.919922C8.09392 0.919922 9.50545 2.34205 9.50545 4.09631C9.50545 5.85056 8.09392 7.2727 6.35331 7.2727C4.6127 7.2727 3.20117 5.85056 3.20117 4.09631Z" fill="#1C1C1C"/>
</svg>
