<svg width="71" height="72" viewBox="0 0 71 72" fill="none" xmlns="http://www.w3.org/2000/svg">
<g clip-path="url(#clip0_568_1457)">
<path d="M53.2323 6.8584C49.6214 3.58703 45.1991 1.37615 40.4414 0.463691C35.6837 -0.448765 30.7707 -0.0282528 26.2312 1.67997C21.6916 3.3882 17.6973 6.31947 14.6782 10.1583C11.6591 13.9972 9.72944 18.5982 9.09693 23.4664C8.52887 27.7349 8.98318 32.0794 10.4214 36.1322C11.8597 40.185 14.2395 43.8268 17.3596 46.7494C19.289 48.4652 20.8459 50.5688 21.9316 52.9267C23.0173 55.2847 23.6082 57.8457 23.6667 60.4474V60.9304C23.6699 63.8654 24.821 66.6792 26.8675 68.7546C28.914 70.8299 31.6888 71.9972 34.583 72.0004H36.4171C39.3113 71.9972 42.0861 70.8299 44.1326 68.7546C46.1791 66.6792 47.3303 63.8654 47.3334 60.9304V59.2834C47.3777 56.9838 47.9113 54.721 48.8978 52.6499C49.8842 50.5788 51.3002 48.7482 53.0489 47.2834C55.8847 44.7647 58.1604 41.6637 59.7252 38.1858C61.29 34.7079 62.1081 30.9326 62.1255 27.1098C62.1428 23.2871 61.3589 19.5042 59.8258 16.0119C58.2926 12.5195 56.0452 9.39742 53.2323 6.8524V6.8584ZM36.4171 66.0004H34.583C33.2575 65.9988 31.9867 65.4641 31.0495 64.5137C30.1122 63.5632 29.585 62.2746 29.5834 60.9304C29.5834 60.9304 29.5627 60.1504 29.5597 60.0004H41.4167V60.9304C41.4152 62.2746 40.8879 63.5632 39.9506 64.5137C39.0134 65.4641 37.7426 65.9988 36.4171 66.0004ZM49.138 42.7774C45.7697 45.74 43.3372 49.6436 42.1445 54.0004H38.4584V32.4484C40.1828 31.8301 41.6768 30.6867 42.7359 29.1745C43.795 27.6623 44.3675 25.8552 44.3751 24.0004C44.3751 23.2047 44.0634 22.4417 43.5086 21.8791C42.9538 21.3165 42.2013 21.0004 41.4167 21.0004C40.6321 21.0004 39.8797 21.3165 39.3249 21.8791C38.7701 22.4417 38.4584 23.2047 38.4584 24.0004C38.4584 24.796 38.1467 25.5591 37.5919 26.1217C37.0371 26.6843 36.2847 27.0004 35.5001 27.0004C34.7155 27.0004 33.963 26.6843 33.4082 26.1217C32.8534 25.5591 32.5417 24.796 32.5417 24.0004C32.5417 23.2047 32.23 22.4417 31.6752 21.8791C31.1204 21.3165 30.368 21.0004 29.5834 21.0004C28.7988 21.0004 28.0463 21.3165 27.4915 21.8791C26.9367 22.4417 26.6251 23.2047 26.6251 24.0004C26.6326 25.8552 27.2051 27.6623 28.2642 29.1745C29.3233 30.6867 30.8173 31.8301 32.5417 32.4484V54.0004H28.6308C27.2966 49.528 24.7942 45.505 21.3888 42.3574C18.4984 39.6262 16.4387 36.1135 15.4528 32.2339C14.4669 28.3542 14.596 24.2696 15.8248 20.4619C17.0536 16.6542 19.3308 13.2824 22.3877 10.7445C25.4447 8.20653 29.1537 6.6083 33.0772 6.1384C33.8905 6.04633 34.7083 6.00025 35.5267 6.0004C40.6078 5.98508 45.513 7.88627 49.2888 11.3344C51.4771 13.3132 53.2256 15.7411 54.4184 18.4571C55.6113 21.1731 56.2212 24.1152 56.2078 27.0884C56.1943 30.0615 55.5579 32.9978 54.3406 35.7027C53.1232 38.4075 51.3529 40.819 49.1468 42.7774H49.138Z" fill="#BE345D"/>
</g>
<defs>
<clipPath id="clip0_568_1457">
<rect width="71" height="72" fill="white"/>
</clipPath>
</defs>
</svg>
