<svg width="18" height="18" viewBox="0 0 18 18" fill="none" xmlns="http://www.w3.org/2000/svg">
<g clip-path="url(#clip0_415_2410)">
<path d="M14.25 0H3.75C2.7558 0.00119089 1.80267 0.396661 1.09966 1.09966C0.396661 1.80267 0.00119089 2.7558 0 3.75L0 14.25C0.00119089 15.2442 0.396661 16.1973 1.09966 16.9003C1.80267 17.6033 2.7558 17.9988 3.75 18H14.25C15.2442 17.9988 16.1973 17.6033 16.9003 16.9003C17.6033 16.1973 17.9988 15.2442 18 14.25V3.75C17.9988 2.7558 17.6033 1.80267 16.9003 1.09966C16.1973 0.396661 15.2442 0.00119089 14.25 0V0ZM16.5 14.25C16.5 14.8467 16.2629 15.419 15.841 15.841C15.419 16.2629 14.8467 16.5 14.25 16.5H3.75C3.15326 16.5 2.58097 16.2629 2.15901 15.841C1.73705 15.419 1.5 14.8467 1.5 14.25V3.75C1.5 3.15326 1.73705 2.58097 2.15901 2.15901C2.58097 1.73705 3.15326 1.5 3.75 1.5H14.25C14.8467 1.5 15.419 1.73705 15.841 2.15901C16.2629 2.58097 16.5 3.15326 16.5 3.75V14.25Z" fill="#1C1C1C"/>
<path d="M7.00059 11.9393L4.06134 9.0001C3.92069 8.85949 3.72996 8.78051 3.53109 8.78051C3.33222 8.78051 3.14149 8.85949 3.00084 9.0001C2.86024 9.14074 2.78125 9.33147 2.78125 9.53035C2.78125 9.72922 2.86024 9.91995 3.00084 10.0606L5.94009 12.9998C6.07939 13.1392 6.24477 13.2497 6.4268 13.3252C6.60883 13.4006 6.80393 13.4394 7.00097 13.4394C7.198 13.4394 7.3931 13.4006 7.57513 13.3252C7.75716 13.2497 7.92254 13.1392 8.06184 12.9998L15.0008 6.06085C15.1414 5.9202 15.2204 5.72947 15.2204 5.5306C15.2204 5.33173 15.1414 5.141 15.0008 5.00035C14.8602 4.85975 14.6695 4.78076 14.4706 4.78076C14.2717 4.78076 14.081 4.85975 13.9403 5.00035L7.00059 11.9393Z" fill="#1C1C1C"/>
</g>
<defs>
<clipPath id="clip0_415_2410">
<rect width="18" height="18" fill="white"/>
</clipPath>
</defs>
</svg>
