<svg width="11" height="11" viewBox="0 0 11 11" fill="none" xmlns="http://www.w3.org/2000/svg">
<g clip-path="url(#clip0_414_1526)">
<path d="M10.4958 4.10455C10.1863 3.94767 9.81443 3.98037 9.537 4.18888L8.69687 4.81268C8.57777 3.64238 7.59301 2.75166 6.41667 2.75018H6.37772L4.48847 0.861378C4.23137 0.60247 3.88124 0.457364 3.51635 0.458503H0.458326C0.205197 0.458503 0 0.663721 0 0.91685C0 1.16998 0.205197 1.37518 0.458326 1.37518H3.51633C3.63782 1.3755 3.75427 1.42375 3.84037 1.50948L5.08108 2.75018H2.29167C1.02665 2.7517 0.00152539 3.77683 0 5.04185V8.70852C0.00152539 9.97352 1.02665 10.9987 2.29167 11.0002H6.41667C7.59303 10.9987 8.57777 10.108 8.69687 8.93768L9.53562 9.56285C9.94063 9.8666 10.5152 9.78453 10.819 9.37952C10.938 9.22086 11.0023 9.02787 11.0023 8.82952V4.92405C11.0035 4.57667 10.8071 4.25885 10.4958 4.10455ZM7.79167 8.7085C7.79167 9.46789 7.17606 10.0835 6.41667 10.0835H2.29167C1.53229 10.0835 0.916674 9.46789 0.916674 8.7085V5.04185C0.916674 4.28246 1.53229 3.66685 2.29167 3.66685H6.41667C7.17606 3.66685 7.79167 4.28246 7.79167 5.04185V8.7085ZM10.0833 8.8263L8.70833 7.80148V5.9489L10.0833 4.92407V8.8263Z" fill="#D77E6C"/>
</g>
<defs>
<clipPath id="clip0_414_1526">
<rect width="11" height="11" fill="white"/>
</clipPath>
</defs>
</svg>
