<svg width="40" height="40" viewBox="0 0 40 40" fill="none" xmlns="http://www.w3.org/2000/svg">
<circle cx="20" cy="20" r="20" fill="white"/>
<g clip-path="url(#clip0_3012_1338)">
<path d="M24.5 20C23.7098 20.0009 22.9333 19.7935 22.2488 19.3986C21.5643 19.0038 20.996 18.4355 20.6012 17.751C20.2064 17.0664 19.999 16.2899 20 15.4997C20.001 14.7095 20.2103 13.9335 20.6068 13.25H14.1815L14.15 12.986C14.0854 12.4389 13.8223 11.9346 13.4106 11.5686C12.999 11.2025 12.4674 11.0002 11.9165 11H11.75C11.5511 11 11.3603 11.079 11.2197 11.2197C11.079 11.3603 11 11.5511 11 11.75C11 11.9489 11.079 12.1397 11.2197 12.2803C11.3603 12.421 11.5511 12.5 11.75 12.5H11.9165C12.1002 12.5 12.2775 12.5675 12.4148 12.6895C12.5521 12.8116 12.6398 12.9798 12.6612 13.1622L13.6933 21.9373C13.8004 22.8498 14.2389 23.6913 14.9254 24.302C15.612 24.9127 16.4989 25.25 17.4178 25.25H25.25C25.4489 25.25 25.6397 25.171 25.7803 25.0303C25.921 24.8897 26 24.6989 26 24.5C26 24.3011 25.921 24.1103 25.7803 23.9697C25.6397 23.829 25.4489 23.75 25.25 23.75H17.4178C16.9534 23.7488 16.5008 23.6041 16.122 23.3355C15.7432 23.067 15.4568 22.6878 15.302 22.25H24.2427C25.122 22.2501 25.9733 21.9412 26.6479 21.3773C27.3225 20.8135 27.7775 20.0305 27.9335 19.1653L28.112 18.176C27.6948 18.7416 27.1506 19.2014 26.5232 19.5182C25.8959 19.835 25.2028 20 24.5 20V20Z" fill="#1C1C1C"/>
<path d="M16.25 29C17.0784 29 17.75 28.3284 17.75 27.5C17.75 26.6716 17.0784 26 16.25 26C15.4216 26 14.75 26.6716 14.75 27.5C14.75 28.3284 15.4216 29 16.25 29Z" fill="#1C1C1C"/>
<path d="M23.75 29C24.5784 29 25.25 28.3284 25.25 27.5C25.25 26.6716 24.5784 26 23.75 26C22.9216 26 22.25 26.6716 22.25 27.5C22.25 28.3284 22.9216 29 23.75 29Z" fill="#1C1C1C"/>
<path d="M22.7991 17.7093C22.9281 17.8486 23.084 17.9603 23.2574 18.0377C23.4307 18.115 23.618 18.1564 23.8078 18.1593H23.8326C24.0186 18.1599 24.2029 18.1236 24.3748 18.0524C24.5467 17.9812 24.7027 17.8766 24.8338 17.7446L28.0378 14.5406C28.1792 14.3995 28.2587 14.2081 28.2589 14.0085C28.2591 13.8088 28.18 13.6173 28.039 13.4759C27.8979 13.3346 27.7065 13.2551 27.5069 13.2549C27.3072 13.2547 27.1157 13.3338 26.9743 13.4748L23.8341 16.6203L22.9086 15.6273C22.7727 15.4818 22.5846 15.3962 22.3857 15.3894C22.1867 15.3826 21.9932 15.4551 21.8477 15.5909C21.7022 15.7268 21.6166 15.9149 21.6098 16.1138C21.603 16.3128 21.6755 16.5063 21.8113 16.6518L22.7991 17.7093Z" fill="#1C1C1C"/>
</g>
<defs>
<clipPath id="clip0_3012_1338">
<rect width="18" height="18" fill="white" transform="translate(11 11)"/>
</clipPath>
</defs>
</svg>
