<svg width="17" height="17" viewBox="0 0 17 17" fill="none" xmlns="http://www.w3.org/2000/svg">
<g clip-path="url(#clip0_807_1616)">
<path d="M16.2208 6.34355C15.7424 6.1011 15.1678 6.15164 14.739 6.47388L13.4406 7.43793C13.2565 5.62929 11.7346 4.25272 9.91668 4.25043H9.85648L6.93673 1.33138C6.53939 0.931245 5.99828 0.706991 5.43436 0.708751H0.708322C0.317123 0.708751 0 1.02591 0 1.41711C0 1.80831 0.317123 2.12543 0.708322 2.12543H5.43432C5.62209 2.12593 5.80205 2.2005 5.93512 2.33298L7.85257 4.25043H3.54168C1.58664 4.25279 0.00235742 5.83707 0 7.79211V13.4588C0.00235742 15.4138 1.58664 16.9981 3.54168 17.0004H9.91668C11.7347 16.9981 13.2565 15.6216 13.4406 13.8129L14.7369 14.7791C15.3628 15.2485 16.2508 15.1217 16.7202 14.4958C16.9041 14.2506 17.0035 13.9523 17.0035 13.6458V7.61005C17.0054 7.07319 16.7018 6.58202 16.2208 6.34355ZM12.0417 13.4588C12.0417 14.6323 11.0903 15.5838 9.91668 15.5838H3.54168C2.36808 15.5838 1.41668 14.6323 1.41668 13.4588V7.79211C1.41668 6.61851 2.36808 5.66711 3.54168 5.66711H9.91668C11.0903 5.66711 12.0417 6.61851 12.0417 7.79211V13.4588ZM15.5833 13.6408L13.4583 12.057V9.19391L15.5833 7.61009V13.6408Z" fill="#D77E6C"/>
</g>
<defs>
<clipPath id="clip0_807_1616">
<rect width="17" height="17" fill="white"/>
</clipPath>
</defs>
</svg>
