<svg width="10" height="10" viewBox="0 0 10 10" fill="none" xmlns="http://www.w3.org/2000/svg">
<g clip-path="url(#clip0_414_1091)">
<path d="M5.416 0.4166C5.416 0.306093 5.4599 0.200112 5.53804 0.121972C5.61618 0.0438317 5.72216 -6.70186e-05 5.83267 -6.70186e-05C6.93736 0.00114615 7.99647 0.440523 8.7776 1.22166C9.55874 2.0028 9.99812 3.0619 9.99933 4.1666C9.99933 4.27711 9.95543 4.38309 9.87729 4.46123C9.79915 4.53937 9.69317 4.58327 9.58266 4.58327C9.47216 4.58327 9.36618 4.53937 9.28804 4.46123C9.2099 4.38309 9.166 4.27711 9.166 4.1666C9.16501 3.28285 8.8135 2.43558 8.18859 1.81067C7.56369 1.18577 6.71642 0.834259 5.83267 0.833266C5.72216 0.833266 5.61618 0.789368 5.53804 0.711228C5.4599 0.633087 5.416 0.527107 5.416 0.4166V0.4166ZM5.83267 2.49993C6.2747 2.49993 6.69862 2.67553 7.01118 2.98809C7.32374 3.30065 7.49933 3.72457 7.49933 4.1666C7.49933 4.27711 7.54323 4.38309 7.62137 4.46123C7.69951 4.53937 7.80549 4.58327 7.916 4.58327C8.02651 4.58327 8.13249 4.53937 8.21063 4.46123C8.28877 4.38309 8.33267 4.27711 8.33267 4.1666C8.332 3.50376 8.0684 2.86826 7.5997 2.39956C7.13101 1.93087 6.49551 1.66726 5.83267 1.6666C5.72216 1.6666 5.61618 1.7105 5.53804 1.78864C5.4599 1.86678 5.416 1.97276 5.416 2.08327C5.416 2.19377 5.4599 2.29975 5.53804 2.37789C5.61618 2.45603 5.72216 2.49993 5.83267 2.49993V2.49993ZM9.62141 6.97452C9.86288 7.21665 9.99847 7.54465 9.99847 7.8866C9.99847 8.22855 9.86288 8.55655 9.62141 8.79868L9.24225 9.23577C5.82975 12.5029 -2.4744 4.20077 0.742259 0.777433L1.22142 0.360766C1.46383 0.126049 1.7889 -0.00379657 2.1263 -0.000677501C2.46371 0.00244157 2.78632 0.138274 3.02434 0.377433C3.03726 0.39035 3.80934 1.39327 3.80934 1.39327C4.03843 1.63394 4.16596 1.95365 4.16542 2.28593C4.16488 2.61822 4.0363 2.93751 3.80642 3.17743L3.32392 3.7841C3.59094 4.4329 3.98353 5.02254 4.47913 5.51914C4.97473 6.01574 5.56358 6.40952 6.21184 6.67785L6.82225 6.19243C7.06221 5.96273 7.38144 5.83431 7.71362 5.83384C8.0458 5.83338 8.3654 5.9609 8.606 6.18993C8.606 6.18993 9.6085 6.9616 9.62141 6.97452ZM9.04808 7.58035C9.04808 7.58035 8.051 6.81327 8.03808 6.80035C7.95224 6.71524 7.83626 6.66748 7.71537 6.66748C7.59449 6.66748 7.47851 6.71524 7.39267 6.80035C7.38142 6.81202 6.541 7.4816 6.541 7.4816C6.48437 7.52668 6.41697 7.55623 6.34544 7.56733C6.27391 7.57844 6.20072 7.57072 6.13309 7.54493C5.29328 7.23225 4.53048 6.74274 3.89635 6.10955C3.26223 5.47636 2.77159 4.71428 2.45767 3.87493C2.42984 3.80637 2.42076 3.73164 2.43138 3.65841C2.442 3.58518 2.47193 3.5161 2.51809 3.45827C2.51809 3.45827 3.18767 2.61743 3.19892 2.6066C3.28403 2.52076 3.33179 2.40477 3.33179 2.28389C3.33179 2.16301 3.28403 2.04702 3.19892 1.96118C3.18601 1.94868 2.41892 0.950766 2.41892 0.950766C2.3318 0.872644 2.21809 0.830806 2.10111 0.833828C1.98413 0.836849 1.87273 0.884501 1.78976 0.967016L1.31059 1.38368C-1.04024 4.21035 6.156 11.0074 8.63308 8.6666L9.01266 8.2291C9.10161 8.14671 9.15504 8.03296 9.16165 7.91189C9.16826 7.79083 9.12753 7.67194 9.04808 7.58035V7.58035Z" fill="white"/>
</g>
<defs>
<clipPath id="clip0_414_1091">
<rect width="10" height="10" fill="white"/>
</clipPath>
</defs>
</svg>
