<svg width="21" height="21" viewBox="0 0 21 21" fill="none" xmlns="http://www.w3.org/2000/svg">
<g clip-path="url(#clip0_414_1410)">
<path d="M20.8568 7.69502C20.6778 7.1253 20.3202 6.62831 19.8369 6.27754C19.3536 5.92678 18.7703 5.74085 18.1732 5.74727H14.3503L13.1892 2.12827C13.0066 1.5586 12.6478 1.06165 12.1645 0.709072C11.6813 0.356492 11.0985 0.166504 10.5003 0.166504C9.90208 0.166504 9.31933 0.356492 8.83607 0.709072C8.35281 1.06165 7.99401 1.5586 7.81142 2.12827L6.65029 5.74727H2.82742C2.23219 5.74811 1.65246 5.93704 1.17102 6.28706C0.689588 6.63708 0.331077 7.13028 0.146697 7.69623C-0.0376823 8.26218 -0.0384984 8.87192 0.144365 9.43836C0.327229 10.0048 0.684419 10.499 1.16492 10.8503L4.27642 13.1253L3.09342 16.7889C2.90224 17.3571 2.89982 17.9719 3.08651 18.5416C3.27321 19.1113 3.63902 19.6054 4.12942 19.9503C4.61141 20.3062 5.19551 20.4969 5.79468 20.4939C6.39384 20.4909 6.976 20.2944 7.45442 19.9336L10.5003 17.6919L13.547 19.931C14.0282 20.2849 14.6091 20.4771 15.2064 20.48C15.8036 20.483 16.3864 20.2964 16.871 19.9472C17.3555 19.598 17.7169 19.1042 17.903 18.5367C18.0892 17.9692 18.0907 17.3573 17.9072 16.7889L16.7242 13.1253L19.8392 10.8503C20.3252 10.5034 20.6865 10.0092 20.8698 9.44094C21.0531 8.87267 21.0485 8.26049 20.8568 7.69502ZM18.8067 9.43714L15.1807 12.0875C15.0317 12.1962 14.9209 12.3491 14.864 12.5244C14.8072 12.6998 14.8071 12.8886 14.8639 13.064L16.242 17.3253C16.3118 17.5414 16.3112 17.7741 16.2403 17.9898C16.1695 18.2056 16.0321 18.3934 15.8478 18.5261C15.6635 18.6588 15.4419 18.7297 15.2148 18.7286C14.9877 18.7274 14.7668 18.6543 14.5839 18.5196L11.0183 15.8946C10.8681 15.7843 10.6866 15.7248 10.5003 15.7248C10.3139 15.7248 10.1325 15.7843 9.98229 15.8946L6.41667 18.5196C6.23386 18.6561 6.01236 18.7307 5.78427 18.7328C5.55618 18.7349 5.33336 18.6642 5.14812 18.5312C4.96287 18.3981 4.82482 18.2094 4.75399 17.9926C4.68315 17.7758 4.68322 17.542 4.75417 17.3253L6.13667 13.064C6.19347 12.8886 6.19343 12.6998 6.13654 12.5244C6.07966 12.3491 5.96885 12.1962 5.81992 12.0875L2.19392 9.43714C2.01131 9.30344 1.87562 9.11545 1.80624 8.90002C1.73686 8.68459 1.73733 8.45275 1.80759 8.2376C1.87785 8.02246 2.0143 7.83502 2.19745 7.70206C2.38061 7.5691 2.60109 7.49743 2.82742 7.49727H7.28992C7.47517 7.49726 7.65564 7.43846 7.80533 7.32933C7.95503 7.2202 8.06623 7.06638 8.12292 6.89002L9.47917 2.66289C9.54878 2.44658 9.68524 2.25793 9.86889 2.12411C10.0525 1.99028 10.2739 1.91818 10.5012 1.91818C10.7284 1.91818 10.9498 1.99028 11.1334 2.12411C11.3171 2.25793 11.4535 2.44658 11.5232 2.66289L12.8794 6.89002C12.9361 7.06638 13.0473 7.2202 13.197 7.32933C13.3467 7.43846 13.5272 7.49726 13.7124 7.49727H18.1749C18.4012 7.49743 18.6217 7.5691 18.8049 7.70206C18.988 7.83502 19.1245 8.02246 19.1947 8.2376C19.265 8.45275 19.2655 8.68459 19.1961 8.90002C19.1267 9.11545 18.991 9.30344 18.8084 9.43714H18.8067Z" fill="#D77E6C"/>
</g>
<defs>
<clipPath id="clip0_414_1410">
<rect width="21" height="21" fill="white"/>
</clipPath>
</defs>
</svg>
