<svg width="69" height="69" viewBox="0 0 69 69" fill="none" xmlns="http://www.w3.org/2000/svg">
<g clip-path="url(#clip0_568_1458)">
<path d="M54.1871 33.1487C56.082 30.0818 57.1965 26.5973 57.433 23C57.433 22.2375 57.1301 21.5062 56.5909 20.9671C56.0518 20.4279 55.3205 20.125 54.558 20.125C53.7955 20.125 53.0642 20.4279 52.5251 20.9671C51.9859 21.5062 51.683 22.2375 51.683 23C51.4497 25.5181 50.638 27.9484 49.3111 30.1012C49.111 30.4222 48.9761 30.7793 48.914 31.1524C48.852 31.5255 48.864 31.9071 48.9494 32.2755C49.0349 32.6439 49.192 32.9919 49.4119 33.2996C49.6319 33.6073 49.9102 33.8686 50.2311 34.0687C50.5521 34.2688 50.9092 34.4038 51.2823 34.4658C51.6554 34.5279 52.037 34.5159 52.4054 34.4304C53.1495 34.2579 53.7945 33.7969 54.1986 33.1487H54.1871Z" fill="#BE345D"/>
<path d="M25.808 20.125C25.0455 20.125 24.3142 20.4279 23.7751 20.9671C23.2359 21.5062 22.933 22.2375 22.933 23C22.6997 25.5181 21.888 27.9484 20.5611 30.1013C20.157 30.7494 20.0269 31.5315 20.1994 32.2755C20.372 33.0196 20.833 33.6646 21.4811 34.0688C22.1293 34.4729 22.9114 34.603 23.6554 34.4304C24.3995 34.2579 25.0445 33.7969 25.4486 33.1488C27.3394 30.0808 28.4499 26.5963 28.683 23C28.683 22.2375 28.3801 21.5062 27.8409 20.9671C27.3018 20.4279 26.5705 20.125 25.808 20.125Z" fill="#BE345D"/>
<path d="M56.0625 53.4434C54.1017 52.4026 52.0778 51.3245 51.796 50.1026C51.6638 49.5478 51.7241 48.2971 53.2766 45.8678C62.3875 44.5625 69 31.6969 69 20.125C69.0803 17.8381 68.6891 15.5591 67.8506 13.4299C67.0121 11.3007 65.7444 9.36684 64.1263 7.74874C62.5082 6.13063 60.5743 4.86289 58.4451 4.02442C56.3159 3.18595 54.0369 2.7947 51.75 2.87502C48.9699 2.79887 46.2141 3.41193 43.7285 4.65951C41.2428 5.9071 39.1046 7.75044 37.5044 10.0251C35.2854 6.19688 31.8656 3.20746 27.7751 1.5202C23.6845 -0.167052 19.1517 -0.457912 14.879 0.692704C10.6064 1.84332 6.8326 4.37115 4.14255 7.88441C1.4525 11.3977 -0.00357669 15.7002 6.59783e-06 20.125C6.59783e-06 31.5416 6.48888 44.5194 15.4963 47.9694C14.873 49.0071 14.4899 50.1712 14.375 51.3763C14.375 55.8929 18.6559 57.8939 21.781 59.3573C23.506 60.1623 25.875 61.2691 25.875 62.1259C25.6408 63.0186 25.2216 63.8522 24.6445 64.5725C24.4406 64.8904 24.3014 65.2453 24.2347 65.6171C24.168 65.9888 24.1751 66.37 24.2557 66.739C24.3364 67.1079 24.4889 67.4574 24.7045 67.7674C24.9202 68.0774 25.1949 68.3419 25.5128 68.5458C26.1548 68.9575 26.9341 69.0974 27.6792 68.9345C28.0481 68.8539 28.3976 68.7014 28.7076 68.4857C29.0176 68.27 29.2821 67.9954 29.486 67.6775C30.7063 66.0646 31.4476 64.1406 31.625 62.1259C31.625 57.6093 27.3441 55.6083 24.219 54.1478C22.494 53.3399 20.125 52.233 20.0991 51.6609C20.5362 50.631 21.0837 49.6516 21.7321 48.7399C28.4941 47.8601 34.1838 41.5524 37.4066 33.7899C39.2169 38.5835 42.7028 42.5587 47.219 44.9794C46.1478 46.9425 45.7863 49.215 46.1955 51.4136C47.0753 55.1799 50.5626 57.0343 53.3658 58.5264C55.1368 59.4694 57.1406 60.5389 57.4454 61.5969C57.5209 62.7047 57.1999 63.8033 56.5398 64.6961C56.348 65.0232 56.2228 65.385 56.1715 65.7607C56.1201 66.1363 56.1436 66.5184 56.2405 66.885C56.3374 67.2516 56.5058 67.5953 56.7362 67.8965C56.9665 68.1977 57.2541 68.4504 57.5824 68.64C57.9108 68.8295 58.2734 68.9523 58.6494 69.0012C59.0254 69.05 59.4073 69.0241 59.7732 68.9247C60.1391 68.8254 60.4818 68.6546 60.7815 68.4223C61.0811 68.19 61.3319 67.9007 61.5193 67.5711C62.2709 66.4813 62.7883 65.2474 63.0387 63.9474C63.2891 62.6474 63.2671 61.3096 62.974 60.0185C62.3338 58.5075 61.39 57.1442 60.2011 56.0132C59.0122 54.8821 57.6035 54.0074 56.0625 53.4434ZM20.125 43.125C12.5178 43.125 5.75001 30.2623 5.75001 20.125C5.75001 16.3125 7.26451 12.6562 9.96035 9.96036C12.6562 7.26452 16.3125 5.75002 20.125 5.75002C23.9375 5.75002 27.5938 7.26452 30.2897 9.96036C32.9855 12.6562 34.5 16.3125 34.5 20.125C34.5 30.2623 27.7323 43.125 20.125 43.125ZM40.25 20.125C40.1633 18.5921 40.4014 17.0582 40.9487 15.6237C41.496 14.1892 42.3401 12.8864 43.4257 11.8008C44.5114 10.7151 45.8141 9.87099 47.2486 9.32372C48.6832 8.77645 50.2171 8.53835 51.75 8.62502C53.2829 8.53835 54.8168 8.77645 56.2514 9.32372C57.6859 9.87099 58.9886 10.7151 60.0743 11.8008C61.1599 12.8864 62.004 14.1892 62.5513 15.6237C63.0986 17.0582 63.3367 18.5921 63.25 20.125C63.25 29.9 57.339 40.25 51.75 40.25C46.161 40.25 40.25 29.9 40.25 20.125Z" fill="#BE345D"/>
</g>
<defs>
<clipPath id="clip0_568_1458">
<rect width="69" height="69" fill="white"/>
</clipPath>
</defs>
</svg>
