<svg width="15" height="17" viewBox="0 0 15 17" fill="none" xmlns="http://www.w3.org/2000/svg">
<path fill-rule="evenodd" clip-rule="evenodd" d="M1.21439 11.2554C1.99248 10.4716 3.04762 10.0312 4.14755 10.0312H10.7836C11.8836 10.0312 12.9387 10.4716 13.7168 11.2554C14.494 12.0391 14.9312 13.1022 14.9312 14.2107V15.8825C14.9312 16.3442 14.5596 16.7184 14.1017 16.7184C13.6438 16.7184 13.2722 16.3442 13.2722 15.8825V14.2107C13.2722 13.5457 13.01 12.9078 12.543 12.4375C12.0768 11.9673 11.4439 11.703 10.7836 11.703H4.14755C3.48726 11.703 2.85434 11.9673 2.38816 12.4375C1.92114 12.9078 1.65902 13.5457 1.65902 14.2107V15.8825C1.65902 16.3442 1.2874 16.7184 0.829511 16.7184C0.371621 16.7184 0 16.3442 0 15.8825L0 14.2107C0 13.1022 0.437143 12.0391 1.21439 11.2554Z" fill="#D77E6C"/>
<path fill-rule="evenodd" clip-rule="evenodd" d="M7.46787 1.67178C6.09337 1.67178 4.97933 2.79447 4.97933 4.17946C4.97933 5.56445 6.09337 6.68713 7.46787 6.68713C8.84236 6.68713 9.9564 5.56445 9.9564 4.17946C9.9564 2.79447 8.84236 1.67178 7.46787 1.67178ZM3.32031 4.17946C3.32031 1.87123 5.17759 0 7.46787 0C9.75814 0 11.6154 1.87123 11.6154 4.17946C11.6154 6.48769 9.75814 8.35891 7.46787 8.35891C5.17759 8.35891 3.32031 6.48769 3.32031 4.17946Z" fill="#D77E6C"/>
</svg>
