<svg width="26" height="26" viewBox="0 0 26 26" fill="none" xmlns="http://www.w3.org/2000/svg">
<path d="M15.1666 26C14.9322 26 14.7041 25.924 14.5166 25.7833L10.1833 22.5333C10.0487 22.4324 9.93952 22.3016 9.86431 22.1511C9.78909 22.0007 9.74994 21.8349 9.74994 21.6667V15.5783L2.14927 7.02758C1.60947 6.41862 1.25702 5.66672 1.13427 4.86225C1.01153 4.05779 1.12373 3.235 1.45737 2.49276C1.79102 1.75053 2.33191 1.12045 3.01505 0.678238C3.69819 0.236029 4.4945 0.000513954 5.30827 0L20.6916 0C21.5053 0.000954472 22.3014 0.236859 22.9843 0.679366C23.6671 1.12187 24.2077 1.75215 24.541 2.49447C24.8743 3.23678 24.9861 4.05955 24.8631 4.86389C24.74 5.66824 24.3873 6.41994 23.8474 7.02867L16.2499 15.5783V24.9167C16.2499 25.204 16.1358 25.4795 15.9326 25.6827C15.7295 25.8859 15.4539 26 15.1666 26ZM11.9166 21.125L14.0833 22.75V15.1667C14.0835 14.9014 14.181 14.6455 14.3574 14.4473L22.231 5.58892C22.4936 5.29217 22.6649 4.92596 22.7244 4.53424C22.7839 4.14252 22.7291 3.74195 22.5666 3.3806C22.4041 3.01926 22.1407 2.71251 21.8081 2.49718C21.4755 2.28185 21.0878 2.16708 20.6916 2.16667H5.30827C4.91226 2.16727 4.52483 2.28209 4.19244 2.49737C3.86006 2.71265 3.59683 3.01924 3.43433 3.38038C3.27183 3.74152 3.21696 4.14186 3.27629 4.5334C3.33563 4.92495 3.50665 5.29106 3.76885 5.58783L11.6436 14.4473C11.8196 14.6456 11.9167 14.9016 11.9166 15.1667V21.125Z" fill="#1C1C1C"/>
</svg>
