<svg width="17" height="17" viewBox="0 0 17 17" fill="none" xmlns="http://www.w3.org/2000/svg">
<g clip-path="url(#clip0_415_2985)">
<path d="M8.5 1.53142C10.7695 1.53142 11.0387 1.53992 11.9347 1.581C12.8612 1.6235 13.8153 1.83458 14.4904 2.50962C15.1718 3.19104 15.3765 4.13596 15.419 5.06529C15.4601 5.96133 15.4686 6.2305 15.4686 8.5C15.4686 10.7695 15.4601 11.0387 15.419 11.9347C15.3772 12.8563 15.1612 13.8196 14.4904 14.4904C13.809 15.1718 12.8647 15.3765 11.9347 15.419C11.0387 15.4601 10.7695 15.4686 8.5 15.4686C6.2305 15.4686 5.96133 15.4601 5.06529 15.419C4.15083 15.3772 3.17475 15.1562 2.50962 14.4904C1.83175 13.8125 1.6235 12.8584 1.581 11.9347C1.53992 11.0387 1.53142 10.7695 1.53142 8.5C1.53142 6.2305 1.53992 5.96133 1.581 5.06529C1.62279 4.14729 1.84096 3.17829 2.50962 2.50962C3.18962 1.82963 4.13808 1.6235 5.06529 1.581C5.96133 1.53992 6.2305 1.53142 8.5 1.53142ZM8.5 0C6.19154 0 5.90183 0.00991667 4.99517 0.051C3.68121 0.111208 2.37646 0.476708 1.42658 1.42658C0.473167 2.38 0.111208 3.68192 0.051 4.99517C0.00991667 5.90183 0 6.19154 0 8.5C0 10.8085 0.00991667 11.0982 0.051 12.0048C0.111208 13.3174 0.478125 14.6257 1.42658 15.5734C2.37929 16.5261 3.68333 16.8888 4.99517 16.949C5.90183 16.9901 6.19154 17 8.5 17C10.8085 17 11.0982 16.9901 12.0048 16.949C13.3181 16.8888 14.6242 16.5226 15.5734 15.5734C16.5275 14.6193 16.8888 13.3181 16.949 12.0048C16.9901 11.0982 17 10.8085 17 8.5C17 6.19154 16.9901 5.90183 16.949 4.99517C16.8888 3.68121 16.5226 2.37575 15.5734 1.42658C14.6221 0.475292 13.3145 0.1105 12.0048 0.051C11.0982 0.00991667 10.8085 0 8.5 0Z" fill="#D77E6C"/>
<path d="M8.49756 4.13477C6.0871 4.13477 4.13281 6.08906 4.13281 8.49952C4.13281 10.91 6.0871 12.8643 8.49756 12.8643C10.908 12.8643 12.8623 10.91 12.8623 8.49952C12.8623 6.08906 10.908 4.13477 8.49756 4.13477ZM8.49756 11.3328C6.93285 11.3328 5.66423 10.0642 5.66423 8.49952C5.66423 6.93481 6.93285 5.66618 8.49756 5.66618C10.0623 5.66618 11.3309 6.93481 11.3309 8.49952C11.3309 10.0642 10.0623 11.3328 8.49756 11.3328Z" fill="#D77E6C"/>
<path d="M13.0395 4.98238C13.6029 4.98238 14.0595 4.52571 14.0595 3.96238C14.0595 3.39905 13.6029 2.94238 13.0395 2.94238C12.4762 2.94238 12.0195 3.39905 12.0195 3.96238C12.0195 4.52571 12.4762 4.98238 13.0395 4.98238Z" fill="#D77E6C"/>
</g>
<defs>
<clipPath id="clip0_415_2985">
<rect width="17" height="17" fill="white"/>
</clipPath>
</defs>
</svg>
