<svg width="18" height="18" viewBox="0 0 18 18" fill="none" xmlns="http://www.w3.org/2000/svg">
<g clip-path="url(#clip0_415_2309)">
<path d="M17.25 8.25048H15.75V6.75049C15.75 6.55157 15.671 6.36081 15.5303 6.22016C15.3897 6.07951 15.1989 6.00049 15 6.00049C14.8011 6.00049 14.6103 6.07951 14.4697 6.22016C14.329 6.36081 14.25 6.55157 14.25 6.75049V8.25048H12.75C12.5511 8.25048 12.3603 8.3295 12.2197 8.47015C12.079 8.61081 12 8.80157 12 9.00048C12 9.19939 12.079 9.39016 12.2197 9.53081C12.3603 9.67146 12.5511 9.75048 12.75 9.75048H14.25V11.2505C14.25 11.4494 14.329 11.6402 14.4697 11.7808C14.6103 11.9215 14.8011 12.0005 15 12.0005C15.1989 12.0005 15.3897 11.9215 15.5303 11.7808C15.671 11.6402 15.75 11.4494 15.75 11.2505V9.75048H17.25C17.4489 9.75048 17.6397 9.67146 17.7803 9.53081C17.921 9.39016 18 9.19939 18 9.00048C18 8.80157 17.921 8.61081 17.7803 8.47015C17.6397 8.3295 17.4489 8.25048 17.25 8.25048Z" fill="#D77E6C"/>
<path d="M6.75 9C7.64002 9 8.51005 8.73608 9.25007 8.24162C9.99009 7.74715 10.5669 7.04435 10.9075 6.22208C11.2481 5.39981 11.3372 4.49501 11.1635 3.6221C10.9899 2.74918 10.5613 1.94736 9.93198 1.31802C9.30264 0.688685 8.50082 0.260102 7.62791 0.0864683C6.75499 -0.0871652 5.85019 0.00194979 5.02792 0.342544C4.20566 0.683138 3.50285 1.25991 3.00839 1.99994C2.51392 2.73996 2.25 3.60999 2.25 4.5C2.25119 5.69311 2.72568 6.83701 3.56934 7.68067C4.41299 8.52432 5.55689 8.99881 6.75 9ZM6.75 1.5C7.34334 1.5 7.92336 1.67595 8.41671 2.00559C8.91006 2.33524 9.29458 2.80377 9.52164 3.35195C9.7487 3.90013 9.80811 4.50333 9.69236 5.08527C9.5766 5.66722 9.29088 6.20177 8.87132 6.62132C8.45176 7.04088 7.91721 7.3266 7.33527 7.44236C6.75333 7.55811 6.15013 7.4987 5.60195 7.27164C5.05377 7.04458 4.58524 6.66006 4.25559 6.16671C3.92595 5.67337 3.75 5.09335 3.75 4.5C3.75 3.70435 4.06607 2.94129 4.62868 2.37868C5.19129 1.81607 5.95435 1.5 6.75 1.5V1.5Z" fill="#D77E6C"/>
<path d="M6.75 10.5005C4.9604 10.5025 3.24466 11.2143 1.97922 12.4797C0.713781 13.7452 0.00198514 15.4609 0 17.2505C0 17.4494 0.0790176 17.6402 0.21967 17.7808C0.360322 17.9215 0.551088 18.0005 0.75 18.0005C0.948912 18.0005 1.13968 17.9215 1.28033 17.7808C1.42098 17.6402 1.5 17.4494 1.5 17.2505C1.5 15.8581 2.05312 14.5227 3.03769 13.5382C4.02226 12.5536 5.35761 12.0005 6.75 12.0005C8.14239 12.0005 9.47774 12.5536 10.4623 13.5382C11.4469 14.5227 12 15.8581 12 17.2505C12 17.4494 12.079 17.6402 12.2197 17.7808C12.3603 17.9215 12.5511 18.0005 12.75 18.0005C12.9489 18.0005 13.1397 17.9215 13.2803 17.7808C13.421 17.6402 13.5 17.4494 13.5 17.2505C13.498 15.4609 12.7862 13.7452 11.5208 12.4797C10.2553 11.2143 8.5396 10.5025 6.75 10.5005V10.5005Z" fill="#D77E6C"/>
</g>
<defs>
<clipPath id="clip0_415_2309">
<rect width="18" height="18" fill="white"/>
</clipPath>
</defs>
</svg>
