<svg width="24" height="24" viewBox="0 0 24 24" fill="none" xmlns="http://www.w3.org/2000/svg">
<g opacity="0.5" clip-path="url(#clip0_557_1289)">
<path d="M18.7123 11.9999H13.9993C12.8948 11.9999 11.9993 11.1045 11.9993 9.99992V5.27394C12.0021 4.3416 11.5711 3.46091 10.8333 2.89096C10.1341 2.33727 9.21732 2.13992 8.35229 2.35696C2.47276 3.81646 -1.11042 9.76597 0.349131 15.6456C1.37743 19.788 4.7153 22.9578 8.90532 23.771C14.6292 24.8666 20.2142 21.3078 21.6393 15.6569C21.8572 14.7908 21.6602 13.8726 21.1063 13.172C20.5298 12.4354 19.6477 12.0035 18.7123 11.9999Z" fill="white"/>
<path d="M23.6505 7.44605C23.4222 6.59752 23.0822 5.78306 22.6395 5.02406C21.3077 2.73947 19.1324 1.06899 16.5815 0.372049C16.4134 0.326721 16.0374 0.300049 16.0374 0.300049C15.9031 0.300096 15.3245 0.300049 14.8664 0.671064C14.1933 1.2008 14.0874 1.80305 14.0774 1.85006C14.0425 1.99753 14.0244 2.14852 14.0234 2.30006V7.00008C14.0234 8.65692 15.3666 10.0001 17.0234 10.0001H21.7425C22.3685 10.0019 22.9578 9.70463 23.3285 9.20006C23.6026 8.83045 23.7436 8.37895 23.7285 7.91906C23.7205 7.75894 23.6943 7.60022 23.6505 7.44605Z" fill="white"/>
</g>
<defs>
<clipPath id="clip0_557_1289">
<rect width="24" height="24" fill="white"/>
</clipPath>
</defs>
</svg>
