<svg width="157" height="157" viewBox="0 0 157 157" fill="none" xmlns="http://www.w3.org/2000/svg">
<rect width="157" height="157" rx="20" fill="#EDEDED"/>
<path d="M71.6407 43.2622C72.0709 43.2609 72.5012 43.2597 72.9444 43.2585C73.8506 43.2566 74.7567 43.2558 75.6629 43.2558C77.0399 43.255 78.4169 43.2484 79.7939 43.2415C80.6783 43.2404 81.5627 43.2397 82.4472 43.2394C83.0576 43.2355 83.0576 43.2355 83.6804 43.2314C88.7406 43.246 92.9785 44.3047 97.3857 46.7393C97.6355 46.876 97.8852 47.0127 98.1425 47.1536C99.6635 48.0191 100.831 48.9458 102.027 50.2464C102.305 50.5094 102.582 50.7724 102.869 51.0434C103.483 51.7039 104.575 52.797 104.575 52.797C104.204 52.6731 104.935 52.9172 104.575 52.797C106.775 55.2381 108.136 57.9067 109.125 61.0181C109.213 61.2928 109.302 61.5675 109.393 61.8505C110.495 65.6049 110.455 69.5365 110.447 73.4195C110.448 73.8405 110.448 74.2615 110.448 74.6953C110.449 75.5787 110.448 76.4621 110.446 77.3454C110.445 78.6877 110.446 80.03 110.449 81.3723C110.449 82.236 110.448 83.0997 110.447 83.9634C110.448 84.3594 110.449 84.7554 110.45 85.1634C110.439 88.5341 110.379 91.8446 109.307 95.0639C110.436 95.8175 111.533 97.0359 112.242 98.2294C112.434 98.5464 112.626 98.8634 112.823 99.1901C114.036 101.615 113.975 104.511 113.24 107.087C112.119 109.88 108.05 113.008 107.123 113.282C105.684 113.737 102.772 113.919 101.435 113.624C101.884 113.632 101 113.616 101.435 113.624C98.8939 112.917 96.5619 111.519 95.1107 109.274C94.7537 109.391 94.3967 109.508 94.0289 109.629C91.4779 110.261 88.8235 110.146 86.211 110.164C85.7775 110.168 85.7775 110.168 85.3353 110.172C83.8018 110.185 82.2683 110.193 80.7348 110.198C79.4826 110.203 78.2308 110.216 76.9788 110.236C68.0394 110.375 60.4416 110.286 53.1132 104.492C52.636 104.119 52.636 104.119 52.1492 103.738C51.793 103.412 51.793 103.412 51.4297 103.08L50.3377 101.987C50.3377 102.235 50.3377 101.746 50.3377 101.987L49.2456 100.894C48.6657 100.09 48.1539 99.308 47.6531 98.4571C47.5086 98.2141 47.364 97.9711 47.2151 97.7208C45.8559 95.3612 44.9299 92.939 44.1495 90.3271C44.0855 90.1204 44.0215 89.9138 43.9556 89.7009C43.7154 88.5272 43.6918 87.3561 43.6575 86.1624C43.6489 85.8947 43.6403 85.627 43.6314 85.3512C43.6044 84.4745 43.5807 83.5977 43.558 82.7209C43.5501 82.4216 43.5421 82.1223 43.534 81.814C43.4283 77.65 43.3966 73.4942 43.5125 69.3303C43.5221 68.8954 43.5316 68.4605 43.5415 68.0124C43.7501 62.2279 45.8134 56.8594 49.6096 52.4326C51.5594 48.8869 57.3207 46.0352 60.9394 44.6442C61.174 44.5528 61.4086 44.4614 61.6504 44.3673C64.8822 43.1922 68.2403 43.2655 71.6407 43.2622ZM64.17 60.4487C64.2937 60.0771 64.0498 60.8095 64.17 60.4487C64.4098 60.3326 63.9372 60.5615 64.17 60.4487L60.5299 64.0924C60.9012 63.9686 60.1695 64.2127 60.5299 64.0924C59.9541 64.8617 59.9541 64.8617 59.4379 65.8004C59.2577 66.11 59.0775 66.4195 58.8918 66.7384C55.9757 72.0673 55.5893 76.9627 57.1856 82.7251C58.5302 87.2677 61.4619 91.9264 65.626 94.3352C66.4637 94.7255 67.3128 95.093 68.1741 95.4283C68.5082 95.6063 68.8422 95.7843 69.1865 95.9677C72.1515 97.3688 75.5567 97.6475 78.7986 97.7739C84.2656 97.9989 89.2354 100.565 93.2906 104.173C93.5883 104.574 93.884 104.976 94.1779 105.38C94.6396 105.865 94.6396 105.865 95.1107 106.359C96.5083 106.359 97.5489 105.96 98.7508 105.266L102.027 102.351C102.929 101.539 102.929 101.539 103.847 100.529C104.095 100.266 104.342 100.003 104.598 99.7324C105.595 98.2835 106.159 96.7101 106.759 95.0639C106.548 94.8873 106.337 94.7107 106.119 94.5287C102.06 91.0425 98.3928 86.042 97.9684 80.5088C97.9272 79.6902 97.894 78.8715 97.8635 78.0524C97.6468 72.6496 96.2154 67.0472 92.5569 62.8954C91.8579 62.2687 91.1446 61.7192 90.3786 61.1775C90.1426 60.9891 89.9065 60.8008 89.6634 60.6067C81.7461 54.3451 72.3133 54.7121 64.17 60.4487Z" fill="#FF3402"/>
</svg>
