<svg width="400" height="400" viewBox="0 0 400 400" fill="none" xmlns="http://www.w3.org/2000/svg">
<g clip-path="url(#clip0_3334_1904)">
<rect width="400" height="400" fill="white"/>
<g clip-path="url(#clip1_3334_1904)">
<rect width="400" height="400" fill="#14BAE0"/>
<path d="M81.1986 -0.393988C82.2586 -0.400079 83.3186 -0.40617 84.4107 -0.412446C87.9269 -0.428961 91.4428 -0.424316 94.9591 -0.4195C97.4948 -0.426848 100.031 -0.435436 102.566 -0.445166C108.719 -0.465028 114.871 -0.470766 121.023 -0.468978C126.03 -0.467665 131.037 -0.471499 136.043 -0.478903C137.491 -0.481002 138.938 -0.4831 140.386 -0.485196C141.467 -0.486761 141.467 -0.486761 142.569 -0.488358C156.172 -0.507223 169.774 -0.506222 183.377 -0.499389C195.787 -0.493818 208.197 -0.514625 220.607 -0.547749C233.384 -0.581586 246.162 -0.596642 258.939 -0.592032C266.099 -0.589797 273.258 -0.594885 280.418 -0.619925C287.156 -0.643292 293.894 -0.640234 300.632 -0.619997C303.093 -0.616604 305.555 -0.621603 308.017 -0.635981C332.63 -0.769732 353.291 4.05016 371.999 21.0004C372.83 21.7378 373.66 22.4751 374.515 23.2348C388.752 36.5987 399.641 56.7173 400.38 76.4644C400.397 78.3552 400.399 80.2463 400.387 82.1372C400.395 83.7171 400.395 83.7171 400.403 85.3288C400.418 88.8221 400.411 92.315 400.403 95.8083C400.409 98.3276 400.416 100.847 400.424 103.366C400.44 109.478 400.442 115.589 400.437 121.701C400.433 126.673 400.434 131.645 400.44 136.618C400.441 137.328 400.441 138.038 400.442 138.77C400.444 140.213 400.445 141.656 400.447 143.098C400.46 156.605 400.455 170.111 400.443 183.617C400.434 195.944 400.446 208.271 400.47 220.599C400.495 233.288 400.504 245.977 400.498 258.667C400.494 265.778 400.496 272.889 400.514 280.001C400.53 286.691 400.525 293.381 400.507 300.072C400.503 302.518 400.506 304.965 400.517 307.411C400.58 323.375 399.957 337.783 392.312 352.188C391.97 352.848 391.628 353.508 391.276 354.188C379.701 375.876 361.09 390.862 337.724 398.105C326.67 401.166 315.222 400.559 303.851 400.518C301.331 400.523 298.811 400.531 296.292 400.539C290.191 400.556 284.09 400.553 277.989 400.542C273.025 400.533 268.061 400.531 263.097 400.536C262.388 400.536 261.678 400.537 260.947 400.538C259.505 400.539 258.062 400.54 256.62 400.541C243.134 400.553 229.648 400.54 216.162 400.518C204.62 400.5 193.078 400.503 181.536 400.522C168.095 400.543 154.653 400.552 141.211 400.539C139.775 400.538 138.338 400.537 136.901 400.536C135.841 400.535 135.841 400.535 134.76 400.534C129.809 400.53 124.858 400.536 119.907 400.546C113.229 400.558 106.551 400.549 99.8731 400.526C97.4316 400.521 94.99 400.522 92.5484 400.531C76.5591 400.584 62.1597 399.943 47.7494 392.25C47.0859 391.905 46.4224 391.56 45.7389 391.205C24.0166 379.622 9.15615 361.149 1.89499 337.725C-1.16622 326.671 -0.559526 315.223 -0.518215 303.852C-0.523644 301.332 -0.530771 298.813 -0.539456 296.293C-0.555724 290.192 -0.553451 284.091 -0.541805 277.99C-0.532728 273.026 -0.531565 268.062 -0.5359 263.098C-0.536513 262.389 -0.537123 261.679 -0.537754 260.948C-0.539033 259.506 -0.540331 258.063 -0.541645 256.621C-0.553019 243.135 -0.539988 229.649 -0.518444 216.163C-0.500576 204.621 -0.503683 193.079 -0.522122 181.538C-0.543585 168.096 -0.55192 154.654 -0.539669 141.212C-0.538395 139.776 -0.537141 138.339 -0.5359 136.902C-0.535283 136.196 -0.534667 135.489 -0.534031 134.761C-0.530595 129.81 -0.536369 124.859 -0.545818 119.908C-0.558286 113.23 -0.549259 106.552 -0.526241 99.8742C-0.520981 97.4326 -0.522422 94.991 -0.531292 92.5495C-0.583999 76.5601 0.0569415 62.1608 7.74936 47.7504C8.09443 47.087 8.43949 46.4235 8.79502 45.7399C19.5351 25.5984 36.5763 10.8381 57.9994 3.00042C65.8256 0.665728 73.0474 -0.438988 81.1986 -0.393988Z" fill="#14BAE0"/>
<path d="M232.989 127.39C233.652 127.921 234.316 128.452 235 129C236.135 129.858 236.135 129.858 237.293 130.734C246.223 137.974 252.858 148.85 254.3 160.4C254.437 162.879 254.468 165.329 254.438 167.812C254.43 168.687 254.423 169.562 254.415 170.464C254.079 183.741 248.678 195.53 239.739 205.347C228.349 216.173 212.691 221.581 197.106 221.246C183.253 220.148 170.45 214.214 161 204C149.41 189.927 147.03 176.652 148 159C149.583 147.41 157.028 136.265 166 129C186.685 114.195 211.822 111.747 232.989 127.39Z" fill="#F2C733"/>
<path d="M128.999 28.0002C132.413 31.1448 133.737 34.0391 134.096 38.7033C133.253 58.5412 116.951 75.8664 103.124 88.6603C87.8654 101.788 68.3944 114.989 47.7487 115.438C47.0746 115.46 46.4006 115.483 45.7062 115.506C40.6895 115.482 37.8305 114.172 33.9987 111C30.7612 105.281 30.1546 100.77 31.5846 94.383C35.6978 80.1566 44.8583 69.3717 54.9987 59.0002C55.8005 58.1365 56.6023 57.2728 57.4283 56.383C72.5168 40.503 106.558 14.9847 128.999 28.0002Z" fill="#0CAACD"/>
<path d="M313 179C313.66 179 314.32 179 315 179C315.319 184.454 314.356 188.478 312.156 193.395C311.723 194.405 311.723 194.405 311.282 195.435C310.366 197.566 309.434 199.689 308.5 201.812C307.569 203.955 306.642 206.098 305.718 208.243C305.144 209.573 304.566 210.901 303.982 212.227C302.486 215.492 302.486 215.492 302 219C302.322 218.518 302.643 218.035 302.975 217.538C303.426 216.86 303.878 216.183 304.344 215.484C304.845 214.733 305.346 213.981 305.862 213.207C306.957 211.564 308.054 209.921 309.152 208.28C311.617 204.591 314.075 200.901 316.473 197.168C317.162 196.102 317.852 195.036 318.562 193.938C319.162 192.998 319.761 192.058 320.379 191.09C322 189 322 189 325 188C324.79 200.406 317.327 210.043 309.918 219.441C308.306 221.592 307.087 223.556 306 226C306.892 225.206 307.784 224.412 308.703 223.594C309.885 222.562 311.067 221.531 312.25 220.5C312.837 219.975 313.423 219.451 314.027 218.91C314.888 218.166 314.888 218.166 315.766 217.406C316.289 216.945 316.813 216.485 317.353 216.01C319 215 319 215 323 215C322.544 219.919 321.377 222.299 318 225.875C317.197 226.726 316.394 227.577 315.566 228.453C311.853 232.138 307.993 235.621 304 239C304.519 238.711 305.039 238.423 305.574 238.125C312.501 234.438 312.501 234.438 317 235C316.222 240.701 311.289 243.666 307 247C305.012 248.22 303.163 249.113 301 250C302.32 250.33 303.64 250.66 305 251C304.67 252.32 304.34 253.64 304 255C299.545 255.99 299.545 255.99 295 257C295 257.66 295 258.32 295 259C296.32 259 297.64 259 299 259C298.67 259.99 298.34 260.98 298 262C294.438 263.188 294.438 263.188 291 264C291.33 265.32 291.66 266.64 292 268C289.36 268.99 286.72 269.98 284 271C284.33 271.99 284.66 272.98 285 274C272.111 279.675 256.107 283.189 242 282C242 281.34 242 280.68 242 280C243.901 279.654 243.901 279.654 245.84 279.301C258.614 276.993 258.614 276.993 270 271C270 270.01 270 269.02 270 268C270.99 267.67 271.98 267.34 273 267C273.289 266.175 273.577 265.35 273.875 264.5C274.432 263.263 274.432 263.263 275 262C277.625 261.188 277.625 261.188 280 261C280.083 260.402 280.165 259.804 280.25 259.188C281.209 256.389 282.64 255.696 285 254C285.495 252.515 285.495 252.515 286 251C287.848 249.832 287.848 249.832 290.062 248.812C290.796 248.468 291.529 248.124 292.285 247.77C292.851 247.516 293.417 247.262 294 247C293.34 246.67 292.68 246.34 292 246C293.527 242.564 295.599 239.881 298 237C296.68 237 295.36 237 294 237C294.61 233.442 295.578 230.317 297 227C293.544 226.71 291.556 226.666 288.543 228.477C282.491 233.997 278.185 239.797 274.008 246.766C270.267 252.792 267.554 255.632 260.812 257.938C253.59 260.617 246.883 263.55 241.836 269.59C237.952 272.891 234.703 273.018 229.75 273.5C213.9 275.495 200.774 279.92 187 288C188.32 288 189.64 288 191 288C189.796 290.494 188.546 292.681 187 295C197.23 295 207.46 295 218 295C218 295.66 218 296.32 218 297C211.734 298.626 205.834 299.324 199.371 299.414C198.496 299.433 197.621 299.453 196.719 299.473C193.959 299.532 191.198 299.579 188.438 299.625C186.551 299.663 184.665 299.702 182.779 299.742C178.186 299.838 173.593 299.922 169 300C169 300.66 169 301.32 169 302C168.01 301.67 167.02 301.34 166 301C165.562 298.938 165.562 298.938 166 296C170.618 289.674 176.705 286.702 183.789 283.895C190.194 281.338 195.819 278.434 201.527 274.551C206.141 271.657 210.472 270.653 215.812 269.75C233.347 266.457 249.435 258.581 263 247C263.798 246.346 264.596 245.693 265.418 245.02C283.271 229.824 293.887 209.099 297 186C298.32 186 299.64 186 301 186C301.33 190.29 301.66 194.58 302 199C302.71 197.64 303.421 196.28 304.152 194.879C305.081 193.107 306.009 191.335 306.938 189.562C307.406 188.665 307.875 187.767 308.357 186.842C308.805 185.988 309.253 185.134 309.715 184.254C310.129 183.463 310.542 182.672 310.969 181.858C312 180 312 180 313 179Z" fill="#E9C63A"/>
<path d="M86 179C89.2356 180.343 90.5903 181.436 92.1055 184.59C92.449 185.292 92.7925 185.994 93.1465 186.717C93.49 187.45 93.8336 188.182 94.1875 188.938C94.5426 189.666 94.8978 190.395 95.2637 191.146C96.6814 194.081 97.9676 196.903 99 200C99.33 195.05 99.66 190.1 100 185C100.99 185 101.98 185 103 185C103.124 186.007 103.248 187.014 103.375 188.051C106.466 210.122 116.403 228.26 132 244C132.804 244.817 133.609 245.635 134.438 246.477C151.185 262.508 174.386 270.103 197.219 270.727C198.137 270.817 199.054 270.907 200 271C200.33 271.66 200.66 272.32 201 273C199.931 274.036 198.844 275.053 197.75 276.062C196.845 276.915 196.845 276.915 195.922 277.785C194 279 194 279 191.922 278.773C190 278 190 278 187.5 276.562C181.792 274.014 175.453 272.99 169.199 273.008C161.362 272.985 157.39 269.547 151.855 264.516C147.218 260.43 142.531 257.488 136.438 256.312C129.591 253.698 125.921 246.499 122.125 240.5C118.014 234.216 112.382 226.522 104.875 224.375C103.452 224.189 103.452 224.189 102 224C102.474 225.093 102.949 226.186 103.438 227.312C104.402 229.535 105.232 231.695 106 234C104.68 234 103.36 234 102 234C103.51 238.227 106.352 239.621 110 242C110 242.66 110 243.32 110 244C109.01 244.495 109.01 244.495 108 245C111.3 246.65 114.6 248.3 118 250C118 250.66 118 251.32 118 252C117.01 252.495 117.01 252.495 116 253C116.99 253.66 117.98 254.32 119 255C119 255.66 119 256.32 119 257C118.34 257 117.68 257 117 257C117 257.66 117 258.32 117 259C119.31 259.66 121.62 260.32 124 261C124 261.66 124 262.32 124 263C123.34 263 122.68 263 122 263C122.33 263.66 122.66 264.32 123 265C125.322 265.407 127.657 265.744 130 266C130 266.99 130 267.98 130 269C129.34 269.66 128.68 270.32 128 271C129.665 271.774 131.332 272.544 133 273.312C133.928 273.742 134.856 274.171 135.812 274.613C136.864 275.071 137.916 275.529 139 276C139.597 276.263 140.194 276.525 140.809 276.796C146.151 278.992 151.269 279.708 157 280.188C157.87 280.269 158.74 280.351 159.637 280.436C161.757 280.634 163.878 280.818 166 281C165.67 281.66 165.34 282.32 165 283C151.547 287.484 136.202 281.614 124 276C123.178 275.635 122.355 275.27 121.508 274.895C119.627 274.021 117.805 273.022 116 272C115.67 271.01 115.34 270.02 115 269C113.126 268.198 113.126 268.198 110.938 267.812C109.837 267.575 109.837 267.575 108.715 267.332C108.149 267.222 107.583 267.113 107 267C107.33 265.35 107.66 263.7 108 262C107.196 261.732 106.391 261.464 105.562 261.188C104.294 260.6 104.294 260.6 103 260C102.67 259.01 102.34 258.02 102 257C104.475 256.505 104.475 256.505 107 256C106.374 255.902 105.747 255.804 105.102 255.703C104.284 255.554 103.467 255.404 102.625 255.25C101.813 255.111 101.001 254.972 100.164 254.828C98 254 98 254 96.7109 251.922C96.4763 251.288 96.2417 250.653 96 250C98.64 250 101.28 250 104 250C104 249.34 104 248.68 104 248C103.116 247.902 102.231 247.804 101.32 247.703C94.904 246.344 89.8212 241.864 85.3125 237.25C84.8794 236.507 84.4462 235.765 84 235C84.33 234.01 84.66 233.02 85 232C88.0249 232.588 91.0139 233.241 94 234C93.3477 233.504 92.6955 233.007 92.0234 232.496C85.6757 227.562 80.4601 222.69 76 216C76 215.01 76 214.02 76 213C80.9278 213.43 83.1439 215.624 86.625 219C90.3546 222.749 90.3546 222.749 95 225C94.6679 224.523 94.3358 224.046 93.9937 223.554C76.495 198.265 76.495 198.265 77 187C80.7312 188.464 82.1214 190.285 84.1641 193.684C84.7287 194.611 85.2933 195.539 85.875 196.494C86.4525 197.465 87.03 198.437 87.625 199.438C88.7837 201.353 89.9426 203.268 91.1016 205.184C91.6103 206.035 92.119 206.886 92.6431 207.763C93.7185 209.536 94.8499 211.275 96 213C93.7482 205.206 91.1293 197.589 88.3418 189.973C88.0395 189.128 87.7372 188.284 87.4258 187.414C87.0145 186.284 87.0145 186.284 86.595 185.131C86 183 86 183 86 179Z" fill="#EAC63A"/>
<path d="M235 288C253.315 288.495 253.315 288.495 272 289C272 294 272 294 270.625 296.312C266.608 298.895 262.649 298.319 258 298C257.856 298.804 257.711 299.609 257.562 300.438C257 303 257 303 256 304C253.421 304.322 250.841 304.513 248.25 304.719C246.033 304.762 246.033 304.762 245 306C242.943 306.319 240.884 306.512 238.812 306.719C236.983 306.82 236.983 306.82 236 308C234.005 308.225 232.008 308.448 230.008 308.621C227.693 308.923 227.693 308.923 225 311C223 310.667 221 310.333 219 310C218.01 310.66 217.02 311.32 216 312C214.407 311.797 212.815 311.58 211.234 311.297C206.383 310.652 201.447 310.9 196.562 310.938C195.449 310.942 194.336 310.947 193.189 310.951C190.46 310.963 187.73 310.979 185 311C184.67 309.68 184.34 308.36 184 307C187.076 303.364 190.38 300.433 195.212 299.635C198.657 299.38 202.089 299.321 205.543 299.284C211.558 299.188 216.167 298.287 221.723 295.855C225.253 294.529 228.272 294.719 232 295C233.206 292.668 234.165 290.504 235 288Z" fill="#EEC737"/>
<path d="M131.562 151.75C132.235 151.742 132.907 151.735 133.6 151.727C137.284 151.741 138.856 151.904 142 154C141.125 159.875 141.125 159.875 140 161C134.777 160.589 130.756 159.212 126.062 156.938C124.919 156.39 123.776 155.842 122.598 155.277C121.74 154.856 120.883 154.434 120 154C123.759 151.578 127.175 151.733 131.562 151.75Z" fill="#E0C442"/>
<path d="M216.999 227C217.999 228 217.999 228 218.112 229.858C218.107 230.649 218.102 231.439 218.096 232.254C218.093 233.108 218.09 233.962 218.087 234.842C218.078 235.74 218.07 236.638 218.061 237.563C218.057 238.464 218.052 239.366 218.048 240.295C218.036 242.53 218.019 244.765 217.999 247C217.339 247 216.679 247 215.999 247C214.794 244.612 213.61 242.216 212.436 239.813C212.094 239.139 211.752 238.466 211.399 237.772C209.874 234.613 208.964 232.631 209.159 229.074C210.799 225.023 213.334 226.06 216.999 227Z" fill="#E4C540"/>
<path d="M225.375 222.75C228 223 228 223 229.59 224.148C231.499 226.655 231.735 228.772 232.188 231.875C232.346 232.904 232.505 233.932 232.668 234.992C232.967 237.696 233.065 240.284 233 243C229.819 240.012 226.92 236.855 224.125 233.5C223.509 232.768 222.893 232.036 222.258 231.281C221 229 221 229 221.242 226.281C222.308 223.073 222.308 223.073 225.375 222.75Z" fill="#E3C440"/>
<path d="M253 199C257.813 199.147 260.011 201.53 263.25 204.875C264.557 206.201 264.557 206.201 265.891 207.555C268 210 268 210 269 213C265.121 212.31 261.484 211.251 257.75 210C256.693 209.649 255.636 209.299 254.547 208.938C252 208 252 208 251 207C250.812 204.062 250.812 204.062 251 201C251.66 200.34 252.32 199.68 253 199Z" fill="#E3C540"/>
<path d="M186 226C188.616 226.327 190.641 226.82 193 228C192.426 232.786 191.018 236.538 188.938 240.875C188.39 242.027 187.842 243.18 187.278 244.367C186.856 245.236 186.435 246.105 186 247C185.34 247 184.68 247 184 247C183.943 243.875 183.907 240.75 183.875 237.625C183.859 236.736 183.842 235.846 183.825 234.93C183.818 234.079 183.812 233.228 183.805 232.352C183.795 231.566 183.784 230.781 183.773 229.971C184 228 184 228 186 226Z" fill="#E4C53F"/>
<path d="M235 217C237.438 217.125 237.438 217.125 240 218C242.591 220.911 243.923 223.922 245.25 227.562C245.784 228.988 245.784 228.988 246.328 230.441C247 233 247 233 246 236C243.817 234.12 241.655 232.223 239.5 230.312C238.88 229.782 238.26 229.252 237.621 228.705C233.131 224.684 233.131 224.684 232.469 221.23C233 219 233 219 235 217Z" fill="#E4C53F"/>
<path d="M269.998 125C268.331 126.999 266.643 128.972 264.936 130.937C264.237 131.783 264.237 131.783 263.524 132.646C260.703 135.85 259.457 136.895 255.127 137.879C253.578 137.938 253.578 137.938 251.998 138C249.998 135 249.998 135 250.155 132.941C251.737 129.301 255.499 128.427 258.998 127C267.451 123.726 267.451 123.726 269.998 125Z" fill="#E4C53F"/>
<path d="M200 89C200.66 89 201.32 89 202 89C203.896 95.7692 205.533 101.944 205 109C204 110 204 110 201 110.125C198 110 198 110 197 109C196.468 101.944 198.105 95.7692 200 89Z" fill="#E4C53F"/>
<path d="M161.998 217C164.498 216.688 164.498 216.688 166.998 217C168.998 219 168.998 219 169.529 221.23C168.699 225.562 165.755 227.526 162.498 230.312C161.568 231.137 161.568 231.137 160.619 231.979C159.09 233.331 157.545 234.667 155.998 236C154.663 231.993 155.76 230.378 157.311 226.5C157.761 225.355 158.21 224.211 158.674 223.031C159.998 220 159.998 220 161.998 217Z" fill="#E5C53E"/>
<path d="M277 138C272.668 142.751 266.895 148.765 260.219 149.168C259.487 149.113 258.754 149.057 258 149C257.375 145.625 257.375 145.625 257 142C261.624 137.376 270.727 137.721 277 138Z" fill="#E4C53F"/>
<path d="M258.002 112C258.662 112.33 259.322 112.66 260.002 113C258.457 115.492 256.893 117.967 255.314 120.438C254.879 121.145 254.444 121.852 253.996 122.58C250.658 127.747 250.658 127.747 247.287 129.047C245.002 129 245.002 129 243.127 127.812C242.002 126 242.002 126 242.205 124.074C244.383 118.405 252.79 114.606 258.002 112Z" fill="#E5C53E"/>
<path d="M183.999 90C184.659 90 185.319 90 185.999 90C187.203 92.3885 188.387 94.7839 189.561 97.1875C189.903 97.861 190.246 98.5346 190.598 99.2285C192.136 102.412 193.049 104.341 192.776 107.926C191.999 110 191.999 110 190.999 111C188.999 111.041 186.998 111.043 184.999 111C183.824 108.651 183.883 107.262 183.901 104.648C183.904 103.798 183.907 102.947 183.911 102.07C183.919 101.181 183.927 100.291 183.936 99.375C183.941 98.4778 183.945 97.5806 183.95 96.6562C183.962 94.4374 183.978 92.2187 183.999 90Z" fill="#E5C53E"/>
<path d="M173 223C175.339 223.287 177.674 223.619 180 224C180.473 227.938 180.125 230.256 177.848 233.43C176.934 234.59 176.005 235.738 175.062 236.875C174.594 237.468 174.125 238.061 173.643 238.672C172.464 240.144 171.236 241.576 170 243C169.67 243 169.34 243 169 243C170.202 225.798 170.202 225.798 173 223Z" fill="#EBC639"/>
<path d="M247.387 209.129C250.811 210.27 251.721 211.762 253.688 214.75C254.56 216.041 254.56 216.041 255.449 217.359C256.915 219.855 258.009 222.285 259 225C252.923 223.561 247.626 220.13 243 216C242.137 213.887 242.137 213.887 242 212C243.591 209.437 244.352 208.965 247.387 209.129Z" fill="#E6C53D"/>
<path d="M142 112C145.602 113.349 148.829 114.957 152.125 116.938C152.973 117.442 153.821 117.946 154.695 118.465C156.767 119.845 158.421 121.082 160 123C159.73 125.974 159.146 126.854 157 129C154.707 129.094 154.707 129.094 152 128C149.913 125.698 148.32 123.136 146.688 120.5C146.233 119.797 145.779 119.095 145.311 118.371C142 113.204 142 113.204 142 112Z" fill="#E5C53E"/>
<path d="M216 90C216.66 90 217.32 90 218 90C218.058 93.1249 218.094 96.2497 218.125 99.375C218.142 100.264 218.159 101.154 218.176 102.07C218.182 102.921 218.189 103.772 218.195 104.648C218.206 105.434 218.216 106.219 218.227 107.029C218 109 218 109 216 111C213.5 111.25 213.5 111.25 211 111C210.34 110.34 209.68 109.68 209 109C209.326 104.214 211.005 100.415 213.062 96.125C213.61 94.9726 214.158 93.8202 214.723 92.6328C215.144 91.764 215.566 90.8952 216 90Z" fill="#E6C53E"/>
<path d="M153 209C156.257 209.418 157.634 209.634 160 212C159.891 213.934 159.891 213.934 159 216C157.109 217.598 157.109 217.598 154.75 219.062C153.939 219.572 153.128 220.081 152.293 220.605C151.158 221.296 151.158 221.296 150 222C149.031 222.619 148.061 223.238 147.062 223.875C145 225 145 225 143 225C144.381 221.143 146.178 218.075 148.562 214.75C149.183 213.879 149.803 213.007 150.441 212.109C152 210 152 210 153 209Z" fill="#E7C53D"/>
<path d="M201 227.875C204 228 204 228 205 229C205.533 236.056 203.896 242.231 202 249C201.34 249 200.68 249 200 249C198.105 242.231 196.468 236.056 197 229C198 228 198 228 201 227.875Z" fill="#E7C53D"/>
<path d="M140 177C140.66 177.66 141.32 178.32 142 179C141.444 183.556 141.444 183.556 140 185C138.511 185.087 137.019 185.107 135.527 185.098C134.628 185.095 133.729 185.092 132.803 185.088C131.857 185.08 130.912 185.071 129.938 185.063C128.988 185.058 128.039 185.054 127.061 185.049C124.707 185.037 122.354 185.021 120 185C122.558 182.311 124.924 180.874 128.312 179.313C129.699 178.657 129.699 178.657 131.113 177.989C134.296 176.899 136.66 176.675 140 177Z" fill="#E6C53D"/>
<path d="M281 153C279.446 156.108 276.85 156.686 273.75 158.125C272.611 158.664 271.471 159.203 270.297 159.758C267.186 160.93 265.265 161.544 262 161C260 158 260 158 260.25 155.375C260.498 154.591 260.745 153.808 261 153C266.61 150.195 274.993 152.11 281 153Z" fill="#E6C53E"/>
<path d="M125 138C138.633 138.595 138.633 138.595 145 142C145.125 144.375 145.125 144.375 145 147C144.34 147.66 143.68 148.32 143 149C137.812 148.822 134.557 146.636 130.625 143.5C130.08 143.084 129.534 142.667 128.973 142.238C127.622 141.192 126.307 140.1 125 139C125 138.67 125 138.34 125 138Z" fill="#E7C53D"/>
<path d="M246.001 102C246.331 102.66 246.661 103.32 247.001 104C246.141 106.561 245.22 109.009 244.189 111.5C243.915 112.19 243.641 112.879 243.359 113.59C242.173 116.508 241.25 118.751 239.001 121C234.446 120.444 234.446 120.444 233.001 119C232.602 115.855 232.646 114.474 234.576 111.902C235.273 111.254 235.97 110.606 236.689 109.938C237.415 109.256 238.14 108.574 238.888 107.871C241.197 105.827 243.534 103.851 246.001 102Z" fill="#E9C63B"/>
<path d="M260.875 188.938C266.781 189.813 271.557 194.272 276 198C276 198.33 276 198.66 276 199C269.608 199.236 264.129 198.894 258 197C257 196 257 196 256.875 193C257.041 189.021 257.041 189.021 260.875 188.938Z" fill="#E8C53C"/>
<path d="M139 165C140 166 140 166 140.125 169C140 172 140 172 139 173C132.096 173.628 125.655 171.682 119 170C119 169.34 119 168.68 119 168C125.769 166.105 131.944 164.468 139 165Z" fill="#E9C63B"/>
<path d="M169.999 96C179.53 104.987 179.53 104.987 180.436 110.812C179.999 113 179.999 113 177.999 115C175.561 115.125 175.561 115.125 172.999 114C169.833 107.996 169.629 102.691 169.999 96Z" fill="#E8C53B"/>
<path d="M155 102C168.586 111.724 168.586 111.724 169.5 116.75C169 119 169 119 167 121C164.625 121.125 164.625 121.125 162 120C158.174 114.814 156.657 108.128 155 102Z" fill="#EAC63A"/>
<path d="M262 177C267.223 177.411 271.244 178.788 275.938 181.062C277.653 181.884 277.653 181.884 279.402 182.723C280.26 183.144 281.117 183.566 282 184C282 184.33 282 184.66 282 185C278.708 185.058 275.417 185.094 272.125 185.125C270.719 185.15 270.719 185.15 269.285 185.176C267.941 185.185 267.941 185.185 266.57 185.195C265.743 185.206 264.915 185.216 264.063 185.227C262 185 262 185 260 183C260.556 178.444 260.556 178.444 262 177Z" fill="#EAC63A"/>
<path d="M147.062 199.812C150 200 150 200 151 201C151.312 203.375 151.312 203.375 151 206C147.989 208.803 144.744 209.976 140.875 211.25C139.293 211.784 139.293 211.784 137.68 212.328C135 213 135 213 133 212C134.458 210.374 135.916 208.75 137.375 207.125C138.187 206.22 138.999 205.315 139.836 204.383C143.806 200.012 143.806 200.012 147.062 199.812Z" fill="#EBC639"/>
<path d="M266.312 164.75C272.067 164.792 277.495 166.458 283 168C283 168.66 283 169.32 283 170C276.231 171.895 270.056 173.532 263 173C262 172 262 172 261.875 169C262.05 164.801 262.067 165.07 266.312 164.75Z" fill="#EAC63A"/>
<path d="M231.002 96C231.332 96 231.662 96 232.002 96C231.887 98.0631 231.759 100.125 231.627 102.188C231.557 103.336 231.487 104.485 231.416 105.668C231.022 108.834 230.48 111.182 229.002 114C226.502 114.875 226.502 114.875 224.002 115C223.342 114.67 222.682 114.34 222.002 114C221.507 108.703 222.707 106.34 225.939 102.188C226.67 101.232 227.401 100.277 228.154 99.293C230.002 97 230.002 97 231.002 96Z" fill="#EAC63A"/>
<path d="M144 189C145 190 145 190 145.062 193.063C145.042 194.032 145.021 195.001 145 196C132.515 199.444 132.515 199.444 126 199C136.446 187.921 136.446 187.921 144 189Z" fill="#EEC637"/>
<path d="M133 125C139.467 126.162 145.096 128.125 151 131C151.125 133.375 151.125 133.375 151 136C150.34 136.66 149.68 137.32 149 138C144.919 137.954 143.3 137.267 140.227 134.531C139.368 133.531 138.51 132.531 137.625 131.5C137.175 130.988 136.725 130.476 136.262 129.949C133 126.192 133 126.192 133 125Z" fill="#EBC639"/>
<path d="M254 279C253.67 279.99 253.34 280.98 253 282C249.37 282 245.74 282 242 282C242 281.34 242 280.68 242 280C250.036 277.723 250.036 277.723 254 279Z" fill="#D1C14F"/>
<path d="M304 210C305.32 210 306.64 210 308 210C306.606 214.435 304.394 216.874 301 220C301.61 216.442 302.578 213.317 304 210Z" fill="#69B0A9"/>
<path d="M199 273C199.66 273 200.32 273 201 273C199.502 277.662 196.115 278.866 192 281C191.67 280.34 191.34 279.68 191 279C191.763 278.567 192.526 278.134 193.312 277.688C195.963 276.162 195.963 276.162 197.688 274.312C198.121 273.879 198.554 273.446 199 273Z" fill="#7BB39A"/>
<path d="M132 193C132.66 193.33 133.32 193.66 134 194C132.515 195.485 132.515 195.485 131 197C131.66 197.66 132.32 198.32 133 199C130.69 199 128.38 199 126 199C128 197 130 195 132 193Z" fill="#DFC444"/>
<path d="M170 232C170.33 232 170.66 232 171 232C171.33 234.97 171.66 237.94 172 241C170.515 241.99 170.515 241.99 169 243C169.33 239.37 169.66 235.74 170 232Z" fill="#C3BF5C"/>
</g>
</g>
<defs>
<clipPath id="clip0_3334_1904">
<rect width="400" height="400" fill="white"/>
</clipPath>
<clipPath id="clip1_3334_1904">
<rect width="400" height="400" fill="white"/>
</clipPath>
</defs>
</svg>
