<svg width="44" height="19" viewBox="0 0 44 19" fill="none" xmlns="http://www.w3.org/2000/svg">
<path d="M22.0948 0.328694C21.8433 0.611038 21.8433 0.774499 22.0652 3.49391C22.1984 5.06909 22.3167 6.52539 22.3167 6.73343C22.3611 7.47644 22.5682 5.70808 22.7457 3.13727C22.9084 0.997402 22.9084 0.462436 22.7457 0.269254C22.509 -0.0279498 22.4055 -0.0130897 22.0948 0.328694Z" fill="#D77E6C"/>
<path d="M16.0898 2.98771C16.0898 3.38893 16.7555 4.04278 19.1815 6.06377C19.3886 6.22723 19.8324 6.62845 20.1875 6.94052C20.5425 7.25258 20.8531 7.49034 20.8975 7.46062C20.9271 7.4309 20.1579 6.46499 19.1668 5.32076C18.1904 4.17652 17.2733 3.09173 17.1253 2.91341C16.9774 2.70537 16.6964 2.57162 16.4745 2.57162C16.149 2.57162 16.0898 2.63107 16.0898 2.98771Z" fill="#D77E6C"/>
<path d="M19.5511 2.91436C19.4623 3.15212 19.5659 3.38988 20.8676 5.97555C21.341 6.89688 21.7552 7.62503 21.7848 7.59531C21.8292 7.56559 21.5037 6.46594 21.0747 5.15824C20.3943 3.15212 20.2315 2.79548 19.9653 2.75089C19.773 2.72117 19.5954 2.79548 19.5511 2.91436Z" fill="#D77E6C"/>
<path d="M24.4779 2.82443C24.3447 3.04734 23.043 7.29735 23.043 7.49053C23.043 7.59455 23.5459 6.70294 24.1524 5.48441C25.2767 3.25538 25.4098 2.72041 24.8181 2.72041C24.6702 2.72041 24.5075 2.76499 24.4779 2.82443Z" fill="#D77E6C"/>
<path d="M26.507 4.44473C25.7082 5.41064 24.7615 6.52515 24.4212 6.91152C24.0662 7.31274 23.7852 7.68425 23.7852 7.72883C23.7852 7.80313 24.2881 7.4019 24.6727 7.0304C24.7171 6.98582 25.6638 6.15365 26.7881 5.18774C28.3709 3.8206 28.8147 3.35994 28.7851 3.10731C28.7556 2.89927 28.6224 2.78039 28.3561 2.75067C28.0307 2.70609 27.7644 2.95871 26.507 4.44473Z" fill="#D77E6C"/>
<path d="M27.4078 6.3761C26.8457 6.71788 25.8841 7.29743 25.3072 7.63921C24.7155 7.981 24.2569 8.29306 24.2865 8.32278C24.3605 8.39708 28.5173 6.73274 28.7835 6.53956C29.0498 6.33152 29.0054 5.88571 28.7096 5.81141C28.5616 5.78169 27.9847 6.03431 27.4078 6.3761Z" fill="#D77E6C"/>
<path d="M16.1203 6.12403C16.002 6.19833 15.9428 6.3618 15.9724 6.5104C16.002 6.70358 16.6381 6.98592 18.3097 7.56547C19.567 8.01128 20.6321 8.36792 20.6617 8.36792C20.8688 8.36792 20.2623 7.99642 18.6795 7.16425C17.7031 6.659 16.8452 6.18347 16.7712 6.12403C16.5937 5.96057 16.3718 5.96057 16.1203 6.12403Z" fill="#D77E6C"/>
<path d="M13.6046 8.69479C13.3679 8.93255 13.3827 9.18518 13.649 9.40808C13.8413 9.55668 14.4182 9.55668 16.6519 9.40808C20.8383 9.1406 20.9122 9.05144 17.2732 8.76909C13.5158 8.47189 13.8265 8.47189 13.6046 8.69479Z" fill="#D77E6C"/>
<path d="M27.2593 8.73875C26.0463 8.84277 24.848 8.94679 24.6114 8.94679C23.5611 8.97651 24.5374 9.11026 27.5403 9.34802C30.7652 9.58578 30.7652 9.58578 31.0758 9.28858C31.3273 9.03596 31.3421 8.94679 31.1794 8.75361C30.9575 8.47127 30.4397 8.47127 27.2593 8.73875Z" fill="#D77E6C"/>
<path d="M0.855469 11.2656C0.855469 12.1126 0.899847 12.3801 1.06257 12.3801C1.18091 12.3801 1.31405 12.1572 1.35843 11.86C1.47677 11.221 1.93535 10.894 2.6602 10.894H3.22232V13.8958C3.22232 17.1205 3.11877 17.6109 2.51227 17.7C2.33475 17.7297 2.18683 17.8486 2.18683 17.9675C2.18683 18.131 2.49748 18.1755 3.81404 18.1755C5.04185 18.1755 5.44125 18.131 5.44125 17.9824C5.44125 17.8783 5.24895 17.7149 4.99747 17.6257L4.55368 17.4622V14.1781V10.894H5.07143C5.67794 10.894 6.32882 11.429 6.32882 11.9343C6.32882 12.2315 6.69864 12.4989 6.87616 12.3355C6.92054 12.2909 6.90574 11.7708 6.84657 11.2061L6.74302 10.151H3.79925H0.855469V11.2656Z" fill="#D77E6C"/>
<path d="M36.7432 10.2848C36.5952 10.5225 36.7727 10.7454 37.0982 10.7454C37.2609 10.7454 37.4532 10.8792 37.542 11.0278C37.7047 11.3399 37.7491 16.6598 37.6011 17.2393C37.5568 17.4177 37.3201 17.6257 37.0834 17.7149C36.2106 18.0269 36.6248 18.1755 38.3556 18.1755C39.7757 18.1755 40.0568 18.131 40.0568 17.9526C40.0568 17.8338 39.9236 17.7297 39.7757 17.7297C39.1988 17.7297 39.0213 17.3434 39.0213 16.0208C39.0213 15.3372 39.0804 14.7428 39.1544 14.6983C39.3171 14.5942 39.6721 15.0103 40.8704 16.7192L41.8763 18.1755H42.897C43.6514 18.1755 43.9029 18.131 43.9029 17.9675C43.9029 17.8486 43.755 17.7297 43.5627 17.6703C43.3556 17.6257 42.823 17.0462 42.1869 16.1694C41.6248 15.3967 41.1514 14.6983 41.1218 14.6388C41.107 14.5794 41.3289 14.4011 41.6396 14.2376C42.3349 13.8512 42.7195 13.2122 42.7195 12.4098C42.7195 11.5776 42.3792 11.0129 41.6248 10.582C41.0923 10.2699 40.7816 10.2253 38.9325 10.1808C37.4976 10.1362 36.8023 10.1659 36.7432 10.2848ZM40.8999 11.4142C41.2994 11.8748 41.3289 12.4989 41.0035 13.2122C40.826 13.5986 40.6189 13.7472 40.1751 13.8661C39.1396 14.1484 39.0952 14.1038 39.0508 12.6178C38.9917 10.8643 39.0065 10.8346 39.8644 10.9386C40.3822 10.9981 40.6485 11.117 40.8999 11.4142Z" fill="#D77E6C"/>
<path d="M10.7376 12.0383C10.5601 12.4246 9.99794 13.7918 9.49498 15.0549C8.87368 16.5855 8.42989 17.4622 8.17842 17.6554C7.97132 17.8338 7.80859 18.0121 7.80859 18.0715C7.80859 18.131 8.31155 18.1755 8.91806 18.1755C10.0571 18.1755 10.353 17.9972 9.6577 17.7297C9.22871 17.5663 9.21391 17.4771 9.52456 16.6895L9.76125 16.0951H10.8559H11.9654L12.2612 16.7935L12.5571 17.5068L12.2612 17.7149C11.7139 18.0715 11.921 18.1755 13.208 18.1755C14.2287 18.1755 14.4654 18.131 14.4654 17.9526C14.4654 17.8338 14.3618 17.7297 14.2435 17.7297C13.9772 17.7297 13.7997 17.3879 12.8677 15.0549C11.8175 12.4544 11.4033 11.533 11.2109 11.4142C11.1222 11.3547 10.9299 11.6073 10.7376 12.0383ZM11.3441 14.5645C11.5068 14.9955 11.5808 15.3521 11.492 15.3818C11.418 15.4115 11.063 15.4115 10.708 15.3818L10.0571 15.3224L10.4417 14.4456C10.6488 13.9552 10.8707 13.6135 10.9299 13.6729C10.9891 13.7472 11.1814 14.1336 11.3441 14.5645Z" fill="#D77E6C"/>
<path d="M14.9495 11.5921C14.6389 11.711 14.7276 11.9041 15.1714 12.1122L15.5708 12.3054L15.6152 14.683C15.6596 17.4024 15.6152 17.6847 15.1714 17.759C14.9939 17.7888 14.8312 17.8928 14.7868 17.9819C14.7424 18.1305 15.0383 18.1751 15.9259 18.1751C16.8874 18.1751 17.1241 18.1305 17.1241 17.9522C17.1241 17.8333 16.9909 17.7293 16.843 17.7293C16.6951 17.7293 16.5176 17.6253 16.4732 17.4916C16.3253 17.1052 16.3696 13.5388 16.5176 13.6279C16.5915 13.6874 17.4643 14.7573 18.4554 16.0204C19.4466 17.2835 20.3489 18.3237 20.4525 18.3237C20.63 18.3237 20.6744 17.7888 20.704 15.2328C20.7483 12.1716 20.7483 12.1568 21.0886 12.1122C21.2809 12.0825 21.414 11.9636 21.414 11.815C21.414 11.5921 21.2365 11.5623 20.275 11.5623C19.343 11.5623 19.1211 11.6069 19.1211 11.7853C19.1211 11.9041 19.269 12.023 19.4466 12.0527C19.8903 12.1122 19.9495 12.4391 19.9051 14.2966L19.8608 15.8421L18.3371 13.8954C17.4939 12.8106 16.7099 11.8447 16.5915 11.711C16.3696 11.5029 15.3637 11.4137 14.9495 11.5921Z" fill="#D77E6C"/>
<path d="M21.8157 11.5921C21.6234 11.7704 21.7122 11.919 22.1264 12.1122L22.5258 12.3054L22.5702 14.683C22.6145 17.3875 22.5702 17.7293 22.156 17.7293C21.9932 17.7293 21.8601 17.8333 21.8601 17.9522C21.8601 18.1305 22.0968 18.1751 23.0583 18.1751C23.9459 18.1751 24.2418 18.1305 24.1974 17.9819C24.153 17.8928 24.0051 17.7739 23.8423 17.7442C23.6944 17.7145 23.5169 17.6253 23.4577 17.5213C23.3098 17.2984 23.3098 13.5685 23.4577 13.5833C23.5169 13.5833 24.3897 14.6533 25.3808 15.961C26.3867 17.2538 27.3039 18.3237 27.4222 18.3237C27.5849 18.3237 27.6293 17.759 27.6589 15.2477L27.7033 12.1716L28.0731 12.0825C28.6648 11.9339 28.5317 11.5772 27.8512 11.5326C26.9636 11.4583 25.9725 11.6218 26.0465 11.8298C26.0761 11.9339 26.224 12.0379 26.3867 12.0676C26.5346 12.0973 26.7122 12.1865 26.7713 12.2905C26.9341 12.5283 26.9193 15.6786 26.7565 15.6192C26.6826 15.5895 26.0465 14.8316 25.3512 13.9251C23.4577 11.4732 23.4725 11.488 22.6293 11.488C22.2299 11.488 21.8601 11.5326 21.8157 11.5921Z" fill="#D77E6C"/>
<path d="M28.7084 11.6669C28.6048 11.8452 28.7972 12.083 29.0338 12.083C29.4332 12.083 29.5516 12.6625 29.5516 14.6389C29.5516 16.8828 29.7143 17.4029 30.5723 17.9824C31.2084 18.4134 32.6137 18.458 33.3977 18.0567C34.3297 17.5961 34.5072 16.8828 34.5664 13.1529C34.5812 12.3059 34.6107 12.2167 34.951 12.083C35.4835 11.8749 35.4096 11.6817 34.7735 11.5777C33.9451 11.444 33.0279 11.5629 33.0279 11.8006C33.0279 11.9195 33.1758 12.0235 33.3386 12.0532C33.5309 12.083 33.7084 12.2464 33.7528 12.4247C33.8859 12.9597 33.8563 16.1249 33.6936 16.6896C33.4125 17.7001 32.0368 18.0716 31.2232 17.3732L30.809 17.0165V14.5943V12.1721L31.164 12.083C31.7409 11.9492 31.6966 11.6817 31.0605 11.5629C30.3652 11.444 28.8119 11.5183 28.7084 11.6669Z" fill="#D77E6C"/>
</svg>
