<svg width="40" height="40" viewBox="0 0 40 40" fill="none" xmlns="http://www.w3.org/2000/svg">
<g clip-path="url(#clip0_3032_7338)">
<path d="M37.272 23.0627L34.3428 12.5238C33.4842 9.43639 31.6183 6.72453 29.0415 4.81931C26.4648 2.91409 23.3251 1.92486 20.1216 2.00885C16.9181 2.09284 13.8346 3.24523 11.3613 5.28285C8.8879 7.32048 7.16661 10.1264 6.471 13.2546L4.20321 23.4527C3.95271 24.5796 3.9585 25.7483 4.22016 26.8726C4.48181 27.9969 4.99264 29.0481 5.71494 29.9486C6.43724 30.8491 7.35256 31.5758 8.39332 32.0752C9.43409 32.5745 10.5737 32.8338 11.7281 32.8338H13.4455C13.7993 34.5763 14.7447 36.1429 16.1214 37.2682C17.4982 38.3934 19.2216 39.0081 20.9997 39.0081C22.7778 39.0081 24.5012 38.3934 25.8779 37.2682C27.2546 36.1429 28.2 34.5763 28.5538 32.8338H29.8458C31.0341 32.8338 32.2063 32.5592 33.271 32.0312C34.3356 31.5033 35.2637 30.7363 35.9829 29.7903C36.702 28.8443 37.1927 27.7448 37.4166 26.5777C37.6405 25.4107 37.5915 24.2077 37.2735 23.0627H37.272ZM20.9997 35.9171C20.0465 35.9131 19.1179 35.6148 18.3408 35.0629C17.5636 34.5109 16.976 33.7324 16.6583 32.8338H25.341C25.0233 33.7324 24.4357 34.5109 23.6586 35.0629C22.8815 35.6148 21.9528 35.9131 20.9997 35.9171V35.9171ZM33.5272 27.9235C33.0977 28.4934 32.5411 28.9553 31.9017 29.2724C31.2624 29.5896 30.5579 29.7532 29.8442 29.7504H11.7281C11.0355 29.7503 10.3519 29.5947 9.72753 29.295C9.10318 28.9953 8.55411 28.5592 8.12083 28.019C7.68756 27.4787 7.38114 26.848 7.2242 26.1735C7.06726 25.499 7.0638 24.7978 7.21408 24.1218L9.48033 13.9221C10.0266 11.465 11.3786 9.26106 13.3213 7.66057C15.2641 6.06008 17.686 5.15493 20.2023 5.08901C22.7185 5.0231 25.1846 5.80019 27.2084 7.29677C29.2323 8.79334 30.6978 10.9235 31.372 13.3486L34.3012 23.8875C34.4947 24.5741 34.5255 25.2964 34.3912 25.997C34.2569 26.6976 33.961 27.3572 33.5272 27.9235V27.9235Z" fill="#1C1C1C"/>
</g>
<circle cx="31.1742" cy="10.3246" r="6.475" fill="#FF0202"/>
<defs>
<clipPath id="clip0_3032_7338">
<rect width="37" height="37" fill="white" transform="translate(2.5 2)"/>
</clipPath>
</defs>
</svg>
