<svg width="19" height="19" viewBox="0 0 19 19" fill="none" xmlns="http://www.w3.org/2000/svg">
<g clip-path="url(#clip0_2967_1144)">
<path d="M18.4225 7.4564C17.1946 5.45665 14.4016 2.10156 9.49961 2.10156C4.59761 2.10156 1.80461 5.45665 0.576738 7.4564C0.197156 8.07034 -0.00390625 8.77788 -0.00390625 9.49969C-0.00390625 10.2215 0.197156 10.929 0.576738 11.543C1.80461 13.5427 4.59761 16.8978 9.49961 16.8978C14.4016 16.8978 17.1946 13.5427 18.4225 11.543C18.8021 10.929 19.0031 10.2215 19.0031 9.49969C19.0031 8.77788 18.8021 8.07034 18.4225 7.4564ZM17.0727 10.7141C16.0182 12.4289 13.6313 15.3145 9.49961 15.3145C5.36791 15.3145 2.98103 12.4289 1.92653 10.7141C1.70101 10.3492 1.58156 9.92867 1.58156 9.49969C1.58156 9.0707 1.70101 8.65019 1.92653 8.28527C2.98103 6.57052 5.36791 3.6849 9.49961 3.6849C13.6313 3.6849 16.0182 6.56735 17.0727 8.28527C17.2982 8.65019 17.4177 9.0707 17.4177 9.49969C17.4177 9.92867 17.2982 10.3492 17.0727 10.7141Z" fill="#1C1C1C"/>
<path d="M9.49935 5.54102C8.71647 5.54102 7.95116 5.77317 7.30022 6.20811C6.64927 6.64306 6.14192 7.26127 5.84233 7.98456C5.54273 8.70785 5.46434 9.50374 5.61708 10.2716C5.76981 11.0394 6.1468 11.7447 6.70039 12.2983C7.25397 12.8519 7.95928 13.2289 8.72712 13.3816C9.49496 13.5344 10.2908 13.456 11.0141 13.1564C11.7374 12.8568 12.3556 12.3494 12.7906 11.6985C13.2255 11.0475 13.4577 10.2822 13.4577 9.49935C13.4564 8.44992 13.039 7.44383 12.2969 6.70177C11.5549 5.95971 10.5488 5.54227 9.49935 5.54102ZM9.49935 11.8743C9.02962 11.8743 8.57044 11.7351 8.17987 11.4741C7.7893 11.2131 7.48489 10.8422 7.30514 10.4082C7.12538 9.97425 7.07835 9.49671 7.16999 9.03601C7.26163 8.5753 7.48782 8.15212 7.81997 7.81997C8.15212 7.48782 8.57531 7.26162 9.03601 7.16998C9.49672 7.07834 9.97425 7.12538 10.4082 7.30513C10.8422 7.48489 11.2131 7.7893 11.4741 8.17987C11.7351 8.57044 11.8744 9.02962 11.8744 9.49935C11.8744 10.1292 11.6241 10.7333 11.1787 11.1787C10.7333 11.6241 10.1292 11.8743 9.49935 11.8743Z" fill="#1C1C1C"/>
</g>
<defs>
<clipPath id="clip0_2967_1144">
<rect width="19" height="19" fill="white"/>
</clipPath>
</defs>
</svg>
