<svg width="19" height="19" viewBox="0 0 19 19" fill="none" xmlns="http://www.w3.org/2000/svg">
<g clip-path="url(#clip0_414_1076)">
<path d="M18.4264 7.65294C17.7117 6.48264 16.8102 5.43727 15.7577 4.55831L17.9744 2.34165C18.1186 2.19234 18.1984 1.99236 18.1966 1.78479C18.1948 1.57722 18.1115 1.37866 17.9647 1.23187C17.8179 1.08509 17.6194 1.00183 17.4118 1.00003C17.2042 0.998226 17.0042 1.07802 16.8549 1.22223L14.4443 3.63602C12.95 2.74842 11.2416 2.28581 9.50352 2.29811C4.60231 2.29811 1.80931 5.65319 0.580645 7.65294C0.201063 8.26688 0 8.97442 0 9.69623C0 10.418 0.201063 11.1256 0.580645 11.7395C1.29533 12.9098 2.19682 13.9552 3.24935 14.8341L1.03269 17.0508C0.957074 17.1238 0.896763 17.2112 0.855273 17.3078C0.813782 17.4044 0.791943 17.5083 0.79103 17.6134C0.790116 17.7185 0.810147 17.8227 0.849952 17.92C0.889758 18.0173 0.948542 18.1057 1.02287 18.18C1.09721 18.2544 1.1856 18.3132 1.28289 18.353C1.38018 18.3928 1.48443 18.4128 1.58955 18.4119C1.69466 18.411 1.79855 18.3891 1.89513 18.3476C1.99172 18.3062 2.07907 18.2458 2.1521 18.1702L4.56827 15.7541C6.06077 16.6415 7.76713 17.1049 9.50352 17.0944C14.4047 17.0944 17.1977 13.7393 18.4264 11.7395C18.806 11.1256 19.007 10.418 19.007 9.69623C19.007 8.97442 18.806 8.26688 18.4264 7.65294ZM1.92964 10.9106C1.70413 10.5457 1.58468 10.1252 1.58468 9.69623C1.58468 9.26725 1.70413 8.84674 1.92964 8.48181C2.98573 6.76706 5.3726 3.88144 9.50352 3.88144C10.8179 3.87407 12.1138 4.19085 13.2766 4.80373L11.683 6.39735C10.9229 5.89275 10.0117 5.66664 9.10391 5.75741C8.19613 5.84817 7.34771 6.25021 6.7026 6.89531C6.0575 7.54041 5.65546 8.38884 5.5647 9.29662C5.47393 10.2044 5.70004 11.1156 6.20464 11.8757L4.37589 13.7044C3.40618 12.9205 2.57868 11.9754 1.92964 10.9106ZM11.8785 9.69623C11.8785 10.3261 11.6283 10.9302 11.1829 11.3756C10.7375 11.821 10.1334 12.0712 9.50352 12.0712C9.15084 12.0699 8.80305 11.9887 8.48623 11.8337L11.641 8.67894C11.796 8.99576 11.8772 9.34355 11.8785 9.69623ZM7.12852 9.69623C7.12852 9.06634 7.37874 8.46225 7.82414 8.01685C8.26954 7.57145 8.87363 7.32123 9.50352 7.32123C9.8562 7.3226 10.204 7.40379 10.5208 7.55873L7.36602 10.7135C7.21108 10.3967 7.12989 10.0489 7.12852 9.69623ZM17.0774 10.9106C16.0213 12.6254 13.6344 15.511 9.50352 15.511C8.18914 15.5184 6.89321 15.2016 5.73044 14.5887L7.32406 12.9951C8.08411 13.4997 8.99534 13.7258 9.90313 13.6351C10.8109 13.5443 11.6593 13.1422 12.3044 12.4971C12.9495 11.852 13.3516 11.0036 13.4423 10.0958C13.5331 9.18805 13.307 8.27682 12.8024 7.51677L14.6311 5.68802C15.6009 6.47199 16.4284 7.41706 17.0774 8.48181C17.3029 8.84674 17.4224 9.26725 17.4224 9.69623C17.4224 10.1252 17.3029 10.5457 17.0774 10.9106Z" fill="#1C1C1C"/>
</g>
<defs>
<clipPath id="clip0_414_1076">
<rect width="19" height="19" fill="white"/>
</clipPath>
</defs>
</svg>
