<svg width="34" height="35" viewBox="0 0 34 35" fill="none" xmlns="http://www.w3.org/2000/svg">
<g clip-path="url(#clip0_3035_7347)">
<path d="M18.416 1.45871C18.416 1.07194 18.5652 0.701002 18.8309 0.427512C19.0966 0.154021 19.4569 0.000375786 19.8326 0.000375786C23.5886 0.00462187 27.1895 1.54244 29.8454 4.27643C32.5013 7.01041 33.9952 10.7173 33.9993 14.5837C33.9993 14.9705 33.85 15.3414 33.5844 15.6149C33.3187 15.8884 32.9583 16.042 32.5826 16.042C32.2069 16.042 31.8466 15.8884 31.5809 15.6149C31.3152 15.3414 31.166 14.9705 31.166 14.5837C31.1626 11.4906 29.9675 8.52514 27.8428 6.33797C25.7181 4.1508 22.8374 2.92052 19.8326 2.91704C19.4569 2.91704 19.0966 2.7634 18.8309 2.48991C18.5652 2.21642 18.416 1.84548 18.416 1.45871V1.45871ZM19.8326 8.75038C21.3355 8.75038 22.7769 9.36496 23.8396 10.4589C24.9023 11.5529 25.4993 13.0366 25.4993 14.5837C25.4993 14.9705 25.6486 15.3414 25.9142 15.6149C26.1799 15.8884 26.5402 16.042 26.916 16.042C27.2917 16.042 27.652 15.8884 27.9177 15.6149C28.1834 15.3414 28.3326 14.9705 28.3326 14.5837C28.3304 12.2638 27.4341 10.0395 25.8406 8.39908C24.247 6.75864 22.0863 5.83603 19.8326 5.83371C19.4569 5.83371 19.0966 5.98736 18.8309 6.26085C18.5652 6.53434 18.416 6.90527 18.416 7.29204C18.416 7.67882 18.5652 8.04975 18.8309 8.32324C19.0966 8.59673 19.4569 8.75038 19.8326 8.75038V8.75038ZM32.7144 24.4114C33.5353 25.2589 33.9964 26.4069 33.9964 27.6037C33.9964 28.8005 33.5353 29.9485 32.7144 30.796L31.4252 32.3258C19.8227 43.7606 -8.41141 14.7033 2.52524 2.72163L4.15441 1.26329C4.97858 0.44178 6.08381 -0.0126776 7.23098 -0.0017609C8.37816 0.00915584 9.47504 0.484569 10.2843 1.32163C10.3282 1.36683 12.9533 4.87704 12.9533 4.87704C13.7322 5.71942 14.1658 6.8384 14.164 8.00138C14.1621 9.16436 13.725 10.2819 12.9434 11.1216L11.3029 13.245C12.2108 15.5157 13.5456 17.5795 15.2306 19.3176C16.9157 21.0557 18.9177 22.4339 21.1218 23.3731L23.1972 21.6741C24.0131 20.8702 25.0985 20.4207 26.2279 20.4191C27.3573 20.4174 28.4439 20.8638 29.262 21.6654C29.262 21.6654 32.6705 24.3662 32.7144 24.4114ZM30.765 26.5318C30.765 26.5318 27.375 23.847 27.331 23.8018C27.0392 23.5039 26.6448 23.3368 26.2338 23.3368C25.8228 23.3368 25.4285 23.5039 25.1366 23.8018C25.0984 23.8427 22.241 26.1862 22.241 26.1862C22.0484 26.344 21.8192 26.4474 21.5761 26.4863C21.3329 26.5251 21.084 26.4981 20.8541 26.4079C17.9987 25.3135 15.4052 23.6002 13.2492 21.384C11.0931 19.1679 9.42497 16.5006 8.35765 13.5629C8.26302 13.3229 8.23216 13.0613 8.26827 12.805C8.30437 12.5487 8.40612 12.307 8.56307 12.1045C8.56307 12.1045 10.8396 9.16163 10.8779 9.12371C11.1673 8.82327 11.3296 8.41732 11.3296 7.99423C11.3296 7.57114 11.1673 7.16519 10.8779 6.86475C10.834 6.821 8.2259 3.32829 8.2259 3.32829C7.92968 3.05487 7.54307 2.90843 7.14534 2.91901C6.7476 2.92958 6.36886 3.09636 6.08674 3.38517L4.45757 4.8435C-3.53525 14.7368 20.932 38.5266 29.354 30.3337L30.6446 28.8025C30.9471 28.5141 31.1287 28.116 31.1512 27.6922C31.1736 27.2685 31.0352 26.8524 30.765 26.5318V26.5318Z" fill="#1C1C1C"/>
</g>
<defs>
<clipPath id="clip0_3035_7347">
<rect width="34" height="35" fill="white"/>
</clipPath>
</defs>
</svg>
