<svg width="13" height="14" viewBox="0 0 13 14" fill="none" xmlns="http://www.w3.org/2000/svg">
<path fill-rule="evenodd" clip-rule="evenodd" d="M1.60263 9.47431C2.19397 8.87861 2.99588 8.54395 3.83183 8.54395H8.87525C9.7112 8.54395 10.5131 8.87861 11.1044 9.47431C11.6951 10.0699 12.0274 10.8779 12.0274 11.7203V12.9909C12.0274 13.3418 11.745 13.6262 11.397 13.6262C11.049 13.6262 10.7665 13.3418 10.7665 12.9909V11.7203C10.7665 11.2149 10.5673 10.7301 10.2124 10.3727C9.85809 10.0153 9.37707 9.8145 8.87525 9.8145H3.83183C3.33001 9.8145 2.84899 10.0153 2.49469 10.3727C2.13976 10.7301 1.94054 11.2149 1.94054 11.7203L1.94054 12.9909C1.94054 13.3418 1.65811 13.6262 1.31012 13.6262C0.962119 13.6262 0.679687 13.3418 0.679687 12.9909V11.7203C0.679687 10.8779 1.01192 10.0699 1.60263 9.47431Z" fill="#1C1C1C"/>
<path fill-rule="evenodd" clip-rule="evenodd" d="M6.35331 2.19048C5.30869 2.19048 4.46203 3.04372 4.46203 4.09631C4.46203 5.1489 5.30869 6.00214 6.35331 6.00214C7.39793 6.00214 8.2446 5.1489 8.2446 4.09631C8.2446 3.04372 7.39793 2.19048 6.35331 2.19048ZM3.20117 4.09631C3.20117 2.34205 4.6127 0.919922 6.35331 0.919922C8.09392 0.919922 9.50545 2.34205 9.50545 4.09631C9.50545 5.85056 8.09392 7.2727 6.35331 7.2727C4.6127 7.2727 3.20117 5.85056 3.20117 4.09631Z" fill="#1C1C1C"/>
</svg>
