<svg width="24" height="24" viewBox="0 0 24 24" fill="none" xmlns="http://www.w3.org/2000/svg">
<g clip-path="url(#clip0_718_1377)">
<path d="M23 16.0003C22.7348 16.0003 22.4804 16.1057 22.2929 16.2932C22.1053 16.4807 22 16.7351 22 17.0003V19.0003C22 19.796 21.6839 20.559 21.1213 21.1216C20.5587 21.6842 19.7956 22.0003 19 22.0003H17C16.7348 22.0003 16.4804 22.1057 16.2929 22.2932C16.1054 22.4807 16 22.7351 16 23.0003C16 23.2655 16.1054 23.5199 16.2929 23.7074C16.4804 23.8949 16.7348 24.0003 17 24.0003H19C20.3256 23.9987 21.5964 23.4714 22.5338 22.5341C23.4711 21.5968 23.9984 20.3259 24 19.0003V17.0003C24 16.7351 23.8946 16.4807 23.7071 16.2932C23.5196 16.1057 23.2652 16.0003 23 16.0003Z" fill="#5B5B5B"/>
<path d="M1 8C1.26522 8 1.51957 7.89464 1.70711 7.70711C1.89464 7.51957 2 7.26522 2 7V5C2 4.20435 2.31607 3.44129 2.87868 2.87868C3.44129 2.31607 4.20435 2 5 2H7C7.26522 2 7.51957 1.89464 7.70711 1.70711C7.89464 1.51957 8 1.26522 8 1C8 0.734784 7.89464 0.48043 7.70711 0.292893C7.51957 0.105357 7.26522 0 7 0L5 0C3.6744 0.00158786 2.40356 0.528882 1.46622 1.46622C0.528882 2.40356 0.00158786 3.6744 0 5L0 7C0 7.26522 0.105357 7.51957 0.292893 7.70711C0.48043 7.89464 0.734784 8 1 8Z" fill="#5B5B5B"/>
<path d="M7 22.0003H5C4.20435 22.0003 3.44129 21.6842 2.87868 21.1216C2.31607 20.559 2 19.796 2 19.0003V17.0003C2 16.7351 1.89464 16.4807 1.70711 16.2932C1.51957 16.1057 1.26522 16.0003 1 16.0003C0.734784 16.0003 0.48043 16.1057 0.292893 16.2932C0.105357 16.4807 0 16.7351 0 17.0003L0 19.0003C0.00158786 20.3259 0.528882 21.5968 1.46622 22.5341C2.40356 23.4714 3.6744 23.9987 5 24.0003H7C7.26522 24.0003 7.51957 23.8949 7.70711 23.7074C7.89464 23.5199 8 23.2655 8 23.0003C8 22.7351 7.89464 22.4807 7.70711 22.2932C7.51957 22.1057 7.26522 22.0003 7 22.0003Z" fill="#5B5B5B"/>
<path d="M19 -7.62939e-06H17C16.7348 -7.62939e-06 16.4804 0.105349 16.2929 0.292886C16.1054 0.480422 16 0.734776 16 0.999992C16 1.26521 16.1054 1.51956 16.2929 1.7071C16.4804 1.89464 16.7348 1.99999 17 1.99999H19C19.7956 1.99999 20.5587 2.31606 21.1213 2.87867C21.6839 3.44128 22 4.20434 22 4.99999V6.99999C22 7.26521 22.1053 7.51956 22.2929 7.7071C22.4804 7.89464 22.7348 7.99999 23 7.99999C23.2652 7.99999 23.5196 7.89464 23.7071 7.7071C23.8946 7.51956 24 7.26521 24 6.99999V4.99999C23.9984 3.6744 23.4711 2.40355 22.5338 1.46621C21.5964 0.528874 20.3256 0.00158023 19 -7.62939e-06V-7.62939e-06Z" fill="#5B5B5B"/>
<path d="M12 11C14.2091 11 16 9.20913 16 6.99999C16 4.79085 14.2091 2.99999 12 2.99999C9.79086 2.99999 8 4.79085 8 6.99999C8 9.20913 9.79086 11 12 11Z" fill="#5B5B5B"/>
<path d="M11 13.0003C9.40919 13.0019 7.88399 13.6346 6.75911 14.7594C5.63424 15.8843 5.00159 17.4095 5 19.0003C5 19.2655 5.10536 19.5199 5.29289 19.7074C5.48043 19.895 5.73478 20.0003 6 20.0003H18C18.2652 20.0003 18.5196 19.895 18.7071 19.7074C18.8946 19.5199 19 19.2655 19 19.0003C18.9984 17.4095 18.3658 15.8843 17.2409 14.7594C16.116 13.6346 14.5908 13.0019 13 13.0003H11Z" fill="#5B5B5B"/>
</g>
<defs>
<clipPath id="clip0_718_1377">
<rect width="24" height="24" fill="white"/>
</clipPath>
</defs>
</svg>
