<svg width="24" height="24" viewBox="0 0 24 24" fill="none" xmlns="http://www.w3.org/2000/svg">
<g clip-path="url(#clip0_557_1334)">
<path d="M18.7123 12.0001H13.9993C12.8948 12.0001 11.9993 11.1046 11.9993 10V5.27406C12.0021 4.34172 11.5711 3.46103 10.8333 2.89108C10.1341 2.33739 9.21732 2.14005 8.35229 2.35708C2.47276 3.81658 -1.11042 9.76609 0.349131 15.6457C1.37743 19.7881 4.7153 22.9579 8.90532 23.7711C14.6292 24.8667 20.2142 21.3079 21.6393 15.6571C21.8572 14.7909 21.6602 13.8727 21.1063 13.1721C20.5298 12.4355 19.6477 12.0036 18.7123 12.0001Z" fill="#7F7F7F"/>
<path d="M23.6505 7.44605C23.4222 6.59752 23.0822 5.78306 22.6395 5.02406C21.3077 2.73947 19.1324 1.06899 16.5815 0.372049C16.4134 0.326721 16.0374 0.300049 16.0374 0.300049C15.9031 0.300096 15.3245 0.300049 14.8664 0.671064C14.1933 1.2008 14.0874 1.80305 14.0774 1.85006C14.0425 1.99753 14.0244 2.14852 14.0234 2.30006V7.00008C14.0234 8.65692 15.3666 10.0001 17.0234 10.0001H21.7425C22.3685 10.0019 22.9578 9.70463 23.3285 9.20006C23.6026 8.83045 23.7436 8.37895 23.7285 7.91906C23.7205 7.75894 23.6943 7.60022 23.6505 7.44605Z" fill="#7F7F7F"/>
</g>
<defs>
<clipPath id="clip0_557_1334">
<rect width="24" height="24" fill="white"/>
</clipPath>
</defs>
</svg>
