<svg width="24" height="24" viewBox="0 0 24 24" fill="none" xmlns="http://www.w3.org/2000/svg">
<g clip-path="url(#clip0_3022_1314)">
<path d="M23.9999 8.48067V20.0007C23.9999 20.2659 23.8946 20.5202 23.707 20.7078C23.5195 20.8953 23.2651 21.0007 22.9999 21.0007C22.7347 21.0007 22.4803 20.8953 22.2928 20.7078C22.1053 20.5202 21.9999 20.2659 21.9999 20.0007V11.7527L14.5999 15.2887C13.8197 15.7492 12.9289 15.9891 12.0229 15.9827C11.0728 15.9841 10.1399 15.7288 9.32291 15.2437L1.94291 11.7307C1.36279 11.4187 0.876721 10.9572 0.535132 10.394C0.193543 9.83085 0.00888329 9.18652 0.000312565 8.5279C-0.00825816 7.86928 0.159573 7.22037 0.486391 6.64849C0.813209 6.07661 1.28711 5.60261 1.85891 5.27567C1.88591 5.25967 1.91491 5.24467 1.94291 5.23067L9.39991 1.67267C10.205 1.21033 11.1187 0.970796 12.047 0.978705C12.9754 0.986614 13.8848 1.24168 14.6819 1.71767L22.0569 5.23067C22.6388 5.55265 23.1252 6.02296 23.4664 6.5938C23.8077 7.16463 23.9918 7.81565 23.9999 8.48067V8.48067ZM12.0219 17.9807C10.7425 17.9835 9.48504 17.6482 8.37691 17.0087L3.99991 14.9197V17.6197C4.00051 18.6872 4.34228 19.7266 4.97534 20.5861C5.6084 21.4457 6.49962 22.0804 7.51891 22.3977C8.97524 22.8158 10.4849 23.019 11.9999 23.0007C13.5152 23.0177 15.0248 22.8132 16.4809 22.3937C17.5002 22.0764 18.3914 21.4417 19.0245 20.5821C19.6575 19.7226 19.9993 18.6832 19.9999 17.6157V14.9247L15.5409 17.0547C14.4706 17.6696 13.2563 17.9898 12.0219 17.9827V17.9807Z" fill="white"/>
</g>
<defs>
<clipPath id="clip0_3022_1314">
<rect width="24" height="24" fill="white"/>
</clipPath>
</defs>
</svg>
