<svg width="24" height="24" viewBox="0 0 24 24" fill="none" xmlns="http://www.w3.org/2000/svg">
<g clip-path="url(#clip0_557_1332)">
<path d="M14.762 11.5868C14.2154 11.898 13.6194 12.1131 13 12.2228V23.8738C13.527 23.7712 14.0337 23.583 14.5 23.3168L20.527 19.8378C21.2861 19.3977 21.9165 18.7661 22.3552 18.0061C22.7939 17.2461 23.0255 16.3843 23.027 15.5068V8.54681C23.0238 8.01262 22.9343 7.48245 22.762 6.97681L14.762 11.5868Z" fill="#7F7F7F"/>
<path d="M10.2424 9.8569C10.778 10.165 11.3851 10.3271 12.0029 10.3271C12.6208 10.3271 13.2278 10.165 13.7634 9.8569L21.7634 5.2469C21.4091 4.83978 20.991 4.49293 20.5254 4.2199L14.5004 0.736897C13.7398 0.299519 12.8778 0.0693359 12.0004 0.0693359C11.1231 0.0693359 10.261 0.299519 9.50044 0.736897L3.47344 4.2169C3.02449 4.47979 2.61957 4.81149 2.27344 5.1999L10.2424 9.8569Z" fill="#7F7F7F"/>
<path d="M10.9997 12.2233C10.3799 12.1139 9.78355 11.8988 9.23666 11.5873L1.25666 6.92334C1.07198 7.44502 0.975988 7.99395 0.972656 8.54734V15.5073C0.974119 16.3848 1.20576 17.2466 1.64445 18.0066C2.08314 18.7666 2.71352 19.3982 3.47266 19.8383L9.49966 23.3173C9.96593 23.5836 10.4726 23.7717 10.9997 23.8743V12.2233Z" fill="#7F7F7F"/>
</g>
<defs>
<clipPath id="clip0_557_1332">
<rect width="24" height="24" fill="white"/>
</clipPath>
</defs>
</svg>
