<svg width="78" height="66" viewBox="0 0 78 66" fill="none" xmlns="http://www.w3.org/2000/svg">
<path d="M33.9531 4.60887C33.0221 3.79107 32.0385 3.02547 30.9846 2.36427C25.6976 -0.906932 18.9351 -0.576332 13.5075 2.08587C2.72272 7.39287 -1.98467 25.1931 0.773018 36.9033C2.19577 42.8715 5.58579 48.1959 9.85406 52.1979C15.106 57.1395 21.6401 60.2541 28.3147 62.3769C39.7846 66.0135 52.5016 66.7617 63.4269 61.5243C70.2772 58.2357 75.9682 50.1273 77.0573 42.0885C77.7598 36.7641 76.3547 30.8655 72.8417 26.9505C69.1004 22.7919 63.3391 22.0785 58.3858 20.6517C53.7487 19.3293 49.2872 17.2587 45.177 14.5791C40.8912 11.7777 37.7822 8.00187 33.9531 4.60887Z" fill="#F8CDC4"/>
<path d="M57.0695 47.7087C56.806 48.1437 45.9334 48.5091 45.5469 48.1611C45.1605 47.7957 44.2998 38.0517 45.1254 37.2165C45.9334 36.3987 56.121 36.3987 56.6479 36.7815C57.1749 37.1469 57.333 47.2563 57.0695 47.7087Z" fill="#8B4595"/>
<path d="M59.9328 47.5868C59.6693 48.0392 48.7967 48.4046 48.4102 48.0392C48.0238 47.6912 47.1631 37.9298 47.9887 37.112C48.7967 36.2942 58.9843 36.2768 59.5112 36.6596C60.0382 37.0424 60.2138 47.1518 59.9328 47.5868Z" fill="#AA75D3"/>
<path d="M63.5865 47.9174C63.5865 47.9174 55.331 47.9696 55.05 47.6912C54.769 47.4302 54.4352 40.3484 55.05 39.7742C55.6648 39.2 63.4285 39.461 63.4285 39.461C63.7973 39.7568 63.7973 47.6042 63.5865 47.9174Z" fill="#EA9D2D"/>
<path d="M67.3464 47.6911C67.1356 48.0217 59.2139 47.9695 58.9328 47.6911C58.6518 47.4301 58.318 40.3483 58.9328 39.7741C59.5476 39.1999 66.9775 39.4957 67.3464 39.7741C67.7153 40.0699 67.5572 47.3779 67.3464 47.6911Z" fill="#FFC05C"/>
<path d="M53.6087 36.7119C53.6087 36.7119 48.0582 36.7467 47.8825 36.5727C47.6893 36.3813 47.461 31.6311 47.8825 31.2483C48.2865 30.8655 53.5033 31.0395 53.5033 31.0395C53.7492 31.2309 53.7492 36.5031 53.6087 36.7119Z" fill="#EA9D2D"/>
<path d="M56.138 36.5728C55.9975 36.7816 50.6578 36.7468 50.4822 36.5728C50.2889 36.3814 50.0606 31.6312 50.4822 31.2484C50.9037 30.8656 55.8746 31.057 56.138 31.2484C56.384 31.4398 56.2786 36.364 56.138 36.5728Z" fill="#FFC05C"/>
<path d="M60.8457 39.9135C60.8457 39.9135 53.7144 39.9831 53.486 39.6177C53.2401 39.2697 52.9415 29.9085 53.486 29.1603C54.013 28.4121 60.7052 28.7427 60.7052 28.7427C61.0389 29.1255 61.0213 39.4959 60.8457 39.9135Z" fill="#CE1A5C"/>
<path d="M64.0947 39.6177C63.9191 40.0353 57.0688 39.9831 56.8229 39.6177C56.5945 39.2697 56.2959 29.9085 56.8229 29.1603C57.3674 28.4121 63.7785 28.7775 64.0947 29.1603C64.4109 29.5431 64.2704 39.2001 64.0947 39.6177Z" fill="#EA487A"/>
<path d="M46.3364 62.7075C45.2298 62.7075 44.3516 61.8201 44.3516 60.7065C44.3516 59.6103 45.2298 58.7229 46.3364 58.7229C47.443 58.7229 48.3388 59.6103 48.3388 60.7065C48.3388 61.8201 47.443 62.7075 46.3364 62.7075Z" fill="#602968"/>
<path d="M46.3368 62.1159C45.564 62.1159 44.9316 61.4895 44.9316 60.7065C44.9316 59.9409 45.564 59.3145 46.3368 59.3145C47.1272 59.3145 47.742 59.9409 47.742 60.7065C47.742 61.4895 47.1272 62.1159 46.3368 62.1159ZM46.3368 61.9593C45.6518 61.9593 45.0897 61.4025 45.0897 60.7065C45.0897 60.0279 45.6518 59.4711 46.3368 59.4711C47.0219 59.4711 47.5839 60.0279 47.5839 60.7065C47.5839 61.4025 47.0219 61.9593 46.3368 61.9593Z" fill="#602968"/>
<path d="M45.6523 58.0964V61.0892C45.6523 61.733 46.6184 61.9766 46.9697 61.0892L48.533 58.0964H45.6523Z" fill="white"/>
<path d="M62.3208 62.7075C61.2142 62.7075 60.3184 61.8201 60.3184 60.7065C60.3184 59.6103 61.2142 58.7229 62.3208 58.7229C63.4273 58.7229 64.3056 59.6103 64.3056 60.7065C64.3056 61.8201 63.4273 62.7075 62.3208 62.7075Z" fill="#602968"/>
<path d="M62.3212 62.1159C61.5484 62.1159 60.916 61.4895 60.916 60.7065C60.916 59.9409 61.5484 59.3145 62.3212 59.3145C63.0941 59.3145 63.7264 59.9409 63.7264 60.7065C63.7264 61.4895 63.0941 62.1159 62.3212 62.1159ZM62.3212 61.9593C61.6362 61.9593 61.0741 61.4025 61.0741 60.7065C61.0741 60.0279 61.6362 59.4711 62.3212 59.4711C63.0062 59.4711 63.5683 60.0279 63.5683 60.7065C63.5683 61.4025 63.0062 61.9593 62.3212 61.9593Z" fill="#602968"/>
<path d="M61.635 58.0964V61.0892C61.6174 61.733 62.6011 61.9766 62.9524 61.0892L64.5156 58.0964H61.635Z" fill="white"/>
<path d="M46.5133 61.0894C46.5133 61.246 46.3903 61.3504 46.2498 61.3504C46.1093 61.3504 45.9863 61.246 45.9863 61.0894C45.9863 60.9502 46.1093 60.8284 46.2498 60.8284C46.3903 60.8284 46.5133 60.9502 46.5133 61.0894Z" fill="#F1E4DB"/>
<path d="M62.4781 61.0894C62.4781 61.246 62.3552 61.3504 62.2146 61.3504C62.0741 61.3504 61.9512 61.246 61.9512 61.0894C61.9512 60.9502 62.0741 60.8284 62.2146 60.8284C62.3552 60.8284 62.4781 60.9502 62.4781 61.0894Z" fill="#F1E4DB"/>
<path d="M66.2734 58.34H43.3162C42.8243 58.34 42.3852 58.079 42.1217 57.6788C41.8407 57.2612 41.8056 56.7392 42.0164 56.3042L45.1253 49.553C45.3361 49.0658 45.7401 48.1958 47.0399 48.1436L66.291 47.4128L66.3261 47.9L47.0575 48.6308C46.0563 48.6656 45.7752 49.292 45.5645 49.7444L45.5469 49.7966L42.4555 56.4956C42.3325 56.7914 42.3501 57.1394 42.5257 57.4178C42.7014 57.6962 43 57.8528 43.3162 57.8528H66.2734V58.34Z" fill="white"/>
<path d="M45.6685 48.6832C44.7552 48.6832 43.9472 48.0046 43.7891 47.0998L41.2598 32.5708L70.6634 36.6424L68.3097 46.6648C68.1516 47.3434 67.5544 47.848 66.8342 47.8828L45.7564 48.6832C45.733 48.6832 45.7037 48.6832 45.6685 48.6832ZM41.857 33.145L44.2809 47.0128C44.3863 47.6914 44.9835 48.196 45.6685 48.196C45.692 48.196 45.7154 48.196 45.7388 48.196L66.8167 47.3956C67.3085 47.3782 67.73 47.0302 67.8354 46.5604L70.0662 37.0426L41.857 33.145Z" fill="white"/>
<path d="M41.3485 32.9709L39.1881 29.0211C38.7665 28.2729 37.9937 27.8031 37.1505 27.8031H34.7617V27.3333H37.1505C38.1693 27.3333 39.1178 27.8901 39.6096 28.7949L41.7701 32.7447L41.3485 32.9709Z" fill="white"/>
<path d="M37.3956 28.3947C36.7281 28.3947 36.1836 27.8553 36.1836 27.1767C36.1836 26.4981 36.7281 25.9587 37.3956 25.9587C38.063 25.9587 38.6075 26.4981 38.6075 27.1767C38.6075 27.8553 38.063 28.3947 37.3956 28.3947Z" fill="#602968"/>
<path d="M43.8418 46.1254V45.8122L68.2218 45.4294V45.76L43.8418 46.1254Z" fill="white"/>
<path d="M68.9962 42.454L43.2637 41.7754L43.2812 41.4622L68.9962 42.1408V42.454Z" fill="white"/>
<path d="M69.944 38.9738L42.2969 37.3034L42.3144 36.9902L69.9615 38.6606L69.944 38.9738Z" fill="white"/>
<path d="M46.2131 48.457L43.877 33.2146L44.1931 33.1624L46.5292 48.4048L46.2131 48.457Z" fill="white"/>
<path d="M50.0262 48.3179L48.5684 33.6845L48.9021 33.6497L50.36 48.2831L50.0262 48.3179Z" fill="white"/>
<path d="M53.9077 48.1785L53.2227 34.2933L53.5388 34.2759L54.2414 48.1611L53.9077 48.1785Z" fill="white"/>
<path d="M58.0348 47.9348L57.6309 35.1284H57.947L58.351 47.9174L58.0348 47.9348Z" fill="white"/>
<path d="M62.1094 47.8131L62.0742 35.8071H62.3904L62.4431 47.8131H62.1094Z" fill="white"/>
<path d="M66.2029 47.6739L65.8691 47.6565L66.8352 36.4683L67.1514 36.5031L66.2029 47.6739Z" fill="white"/>
<path d="M48.3925 58.4098H45.6523V58.3228H48.3925V58.4098Z" fill="#E9D9CF"/>
<path d="M64.3768 58.4098H61.6367V58.3228H64.3768V58.4098Z" fill="#E9D9CF"/>
<path d="M20.1656 28.1511L20.0602 28.0467C20.0602 28.0293 21.3776 26.8461 21.2195 25.9935C21.161 25.7035 20.9326 25.4831 20.5345 25.3323C18.7253 24.6537 17.2147 27.0027 17.1972 27.0201L17.0566 26.9331C17.0742 26.9157 17.4606 26.3067 18.0754 25.7847C18.9185 25.0887 19.7792 24.8799 20.5872 25.1757C21.0439 25.3497 21.3073 25.6107 21.3776 25.9587C21.5532 26.8983 20.2183 28.1163 20.1656 28.1511Z" fill="#602968"/>
<path d="M18.3213 42.4018L24.2055 28.8645C24.223 28.5861 15.6865 25.3497 15.423 25.6455C13.368 29.3865 9.83742 37.8255 9.83742 37.8255C9.6969 38.1213 9.6442 38.8173 10.6103 39.3915C11.7344 40.0701 16.4945 41.932 18.3213 42.4018Z" fill="#8B4595"/>
<path d="M19.462 42.7148C16.9503 42.071 14.4034 41.1314 12.0321 39.9308C11.7335 39.809 11.5754 39.4262 11.7159 39.0956C11.7511 38.2604 13.7008 35.5808 16.6868 26.1326C16.9503 25.8716 24.4153 28.76 24.5032 29.0732C24.591 29.3864 21.0956 41.636 21.0956 41.636C20.9902 41.9666 20.5686 42.9758 19.462 42.7148Z" fill="#AA75D3"/>
<path d="M19.1985 27.7509C19.1283 27.9075 18.9702 27.9771 18.8297 27.9249C18.6716 27.8553 18.6013 27.6987 18.654 27.5595C18.7067 27.4029 18.8824 27.3333 19.0229 27.3855C19.181 27.4377 19.2512 27.6117 19.1985 27.7509Z" fill="#602968"/>
<path d="M22.2024 28.8818C22.1497 29.021 21.9741 29.108 21.8336 29.0384C21.6755 28.9862 21.6052 28.8296 21.6579 28.673C21.7282 28.5338 21.8863 28.4642 22.0268 28.5164C22.1849 28.5686 22.2551 28.7252 22.2024 28.8818Z" fill="#602968"/>
<path d="M22.01 28.7948L21.8519 28.7774C21.8519 28.7426 22.3086 26.0108 20.4819 25.3148C20.0837 25.164 19.7675 25.1814 19.5333 25.367C18.8483 25.889 19.024 27.629 19.024 27.6638L18.8659 27.6812C18.8659 27.5942 18.6727 25.8194 19.428 25.2452C19.709 25.019 20.0954 25.0016 20.5345 25.1756C21.3425 25.4714 21.8695 26.2022 22.01 27.2636C22.133 28.064 22.01 28.76 22.01 28.7948Z" fill="#602968"/>
<path d="M33.1277 26.7418C32.9169 27.8728 34.2694 28.36 34.4275 28.4296C35.7449 28.9516 37.396 28.7602 37.8351 28.3426C38.362 28.36 38.5904 28.1338 38.5728 27.9424C39.0646 27.8902 39.0998 27.4552 38.9768 27.4204C39.3808 27.4726 39.5213 26.9332 38.9593 26.7592C38.6431 26.707 36.869 26.2546 36.869 26.2024C36.7636 25.3846 34.7612 25.5412 34.4275 25.6282C33.9181 25.7674 33.2682 26.0806 33.1277 26.7418Z" fill="#F8AF86"/>
<path d="M38.9764 27.5075C38.0982 27.4031 37.2024 27.2291 36.2188 26.9681L36.2714 26.8115C37.2375 27.0725 38.1333 27.2465 38.994 27.3335L38.9764 27.5075Z" fill="#602968"/>
<path d="M38.2914 28.0121C37.1497 28.0121 36.2012 27.7511 36.2012 27.7511L36.2363 27.5945C36.2539 27.5945 37.3253 27.8903 38.59 27.8381V27.9947C38.4963 28.0063 38.3968 28.0121 38.2914 28.0121Z" fill="#602968"/>
<path d="M37.5013 28.4296C37.0446 28.4296 36.623 28.36 36.6055 28.36L36.623 28.2034C36.6406 28.2034 37.2729 28.2904 37.8701 28.2556V28.4122C37.753 28.4238 37.6301 28.4296 37.5013 28.4296Z" fill="#602968"/>
<path d="M36.8509 26.2894L35.9199 26.0284L35.9551 25.8718L36.886 26.1328L36.8509 26.2894Z" fill="#602968"/>
<path d="M17.8808 59.9758L20.5682 59.854C20.5682 59.854 20.8141 60.5326 21.7275 60.985C23.7826 61.7332 23.8177 62.7076 23.484 62.7076H18.478C17.9335 62.7076 17.5295 62.2204 17.5997 61.6984L17.8808 59.9758Z" fill="#602968"/>
<path d="M9.71392 56.5479L11.8744 58.1313C11.8744 58.1313 11.6461 58.8098 12.05 59.732C13.1742 61.5938 12.577 62.3768 12.3135 62.168L8.43168 59.036C8.01012 58.688 8.01012 58.0617 8.41411 57.7137L9.71392 56.5479Z" fill="#602968"/>
<path d="M25.7511 28.8473C24.9431 29.6129 25.7511 30.7439 25.8213 30.9005C26.1902 31.6835 27.8764 32.9537 27.8764 32.9537C28.2804 33.3017 28.5966 32.9885 28.4912 32.8493C28.4385 32.7971 28.7196 33.0581 28.7722 33.1103C29.2992 33.5279 29.5451 33.0581 29.387 32.8319C29.7383 33.2321 30.195 32.8841 29.9842 32.6057C30.2653 32.8667 30.6868 32.5187 30.3355 32.0837C30.1774 31.8053 28.4385 29.8913 28.4385 29.8913C28.6142 29.7521 29.2816 30.5003 29.7559 30.2045C29.8086 30.1523 29.791 30.1001 29.7559 30.0653C28.6493 29.0387 27.7184 28.7951 27.4022 28.6733C26.9279 28.5167 26.2253 28.3949 25.7511 28.8473Z" fill="#F8AF86"/>
<path d="M28.4035 32.9014L27.3672 31.7704L27.4901 31.666L28.5265 32.797L28.4035 32.9014Z" fill="#602968"/>
<path d="M29.3173 32.8841L27.877 31.4399L27.9999 31.3181L29.4227 32.7797L29.3173 32.8841Z" fill="#602968"/>
<path d="M29.9324 32.6579L28.3867 31.0049L28.4921 30.8831L30.0554 32.5361L29.9324 32.6579Z" fill="#602968"/>
<path d="M27.2441 31.9097L27.1738 31.7531C27.5954 31.5443 28.0521 31.1963 28.579 30.6917L28.702 30.7961C28.1399 31.3355 27.6832 31.6835 27.2441 31.9097Z" fill="#602968"/>
<path d="M27.5599 30.222C27.314 30.222 27.033 30.1698 26.752 29.9784L26.8398 29.8566C27.6126 30.3264 28.3679 29.8392 28.3855 29.8218L28.4909 29.961C28.4733 29.961 28.0869 30.222 27.5599 30.222Z" fill="#602968"/>
<path d="M16.793 23.2618C16.793 24.532 17.8469 25.576 19.1291 25.576C20.0249 25.5586 20.8153 25.0714 21.2193 24.2884L21.2369 24.2536C21.2896 24.1492 21.3247 24.0622 21.3423 23.9578L24.7147 15.832C24.8904 15.4666 24.9782 15.0664 24.9782 14.6488C24.9782 13.135 23.7311 11.917 22.2029 11.917C21.0612 11.917 20.0425 12.5956 19.6385 13.657L19.6209 13.6744C19.5741 13.802 19.5389 13.9238 19.5155 14.0398L16.9511 22.4092L16.9159 22.5136C16.834 22.7572 16.793 23.0066 16.793 23.2618Z" fill="white"/>
<path d="M21.1309 21.7655C21.1309 21.7655 27.2962 28.0121 27.3489 28.4471C27.384 28.8821 25.7154 30.6395 25.3641 30.6917C25.0128 30.7439 17.9341 25.2803 17.9341 25.2803C14.913 23.2619 18.3908 19.2251 21.1309 21.7655Z" fill="white"/>
<path d="M20.9726 23.0878L20.8496 22.966C21.1131 22.7398 21.4117 22.5658 21.763 22.4962C21.4995 22.3744 21.2536 22.3048 21.0253 22.3048C21.0135 22.3048 21.0077 22.3048 21.0077 22.3048V22.1482C21.0077 22.1482 21.0135 22.1482 21.0253 22.1482C21.3414 22.1482 21.7103 22.2526 22.044 22.4614L22.2372 22.5832L22.0089 22.618C21.599 22.6644 21.2536 22.821 20.9726 23.0878Z" fill="#602968"/>
<path d="M20.2344 28.4121C18.9697 33.2667 18.0036 37.9473 17.4943 42.3669C17.4943 42.3669 8.92261 55.7997 9.01044 56.2695C9.09826 56.7567 11.6803 59.1231 12.1897 59.0013C12.7518 58.8099 21.622 48.3351 23.3961 44.0199C25.2579 39.6351 24.9945 33.0927 24.9945 33.0927L24.8891 28.6905L20.6735 28.4295" fill="#99848A"/>
<path d="M29.2294 28.9517L19.9376 29.0387C19.8673 30.0131 19.8849 31.2311 20.728 32.1185L20.1835 44.2985C20.1835 44.2985 17.0394 59.2625 17.2677 59.6975C17.4785 60.1499 21.0266 60.3239 21.3252 59.9585C21.6414 59.5931 27.912 44.7683 29.2294 28.9517Z" fill="#99848A"/>
<path d="M18.7596 51.3975L18.6016 51.3801C18.865 48.6657 19.8487 43.6023 19.8662 43.5501C19.796 39.8091 20.0594 35.9115 20.6567 31.9965C20.6215 31.9501 20.5805 31.9037 20.5337 31.8573C20.3756 31.6311 20.1473 31.3701 20.0243 30.9699L20.1824 30.9177C20.3054 31.3005 20.4986 31.5441 20.6742 31.7529C20.7211 31.8109 20.762 31.8689 20.7972 31.9269L20.8147 31.9617V31.9965C20.2351 35.9115 19.9716 39.8091 20.0243 43.5675C20.0068 43.6371 19.0231 48.6831 18.7596 51.3975Z" fill="#602968"/>
<path d="M22.7461 11.917L23.6419 8.12378L26.9617 9.46358C26.9617 9.46358 26.3469 10.9948 26.382 11.9344C26.4347 12.874 26.6455 13.8136 26.6455 13.8136L22.7461 11.917Z" fill="#F8AF86"/>
<path d="M24.8365 9.67247C24.8365 9.67247 25.6445 10.6469 26.7511 10.6991C27.4185 10.7339 28.0157 10.3511 28.2792 9.75947C28.4373 9.41147 28.5603 8.92427 28.5778 8.28047C28.5778 8.28047 29.0169 7.79327 29.0345 7.61927C29.0521 7.44527 28.5954 6.29687 28.5954 6.29687C28.5954 6.29687 28.6129 4.62647 27.6996 3.93047C26.8038 3.23447 23.9583 3.47807 23.9583 3.47807L22.9922 4.66127L23.5894 8.28047L24.8365 9.67247Z" fill="#F8AF86"/>
<path d="M25.8916 5.80956C25.8916 5.80956 28.7371 5.00916 28.298 3.70416C27.8764 2.38176 26.0672 2.46876 26.0672 2.46876C23.8189 2.39916 21.7638 3.25176 21.676 5.47896C21.5706 7.70616 23.5203 8.78496 23.5203 8.78496L23.854 7.75836C23.854 7.75836 22.9582 6.36636 24.0824 5.77476C25.0485 5.39196 25.2417 6.87096 25.3119 7.47996C25.9618 7.13196 25.8916 5.80956 25.8916 5.80956Z" fill="#602968"/>
<path d="M25.5039 32.2923V32.1357C27.6117 32.0139 27.9806 30.5523 27.9806 30.4827L28.1562 30.5175C28.1386 30.5349 27.7522 32.1705 25.5039 32.2923Z" fill="#602968"/>
<path d="M26.5767 12.3172L26.4011 12.004C25.154 12.352 24.2055 12.0388 22.8881 11.3428C21.237 11.6386 19.5684 12.6826 19.5684 14.701C19.5684 14.701 19.867 29.7868 19.7967 30.1174C22.9057 30.97 26.0498 31.1962 29.229 30.6916L29.4223 29.7172C30.0722 22.7746 29.4574 16.615 26.5767 12.3172Z" fill="white"/>
<path d="M22.9222 25.3149C23.4667 26.4633 24.8719 26.9505 26.0312 26.4111C26.8392 26.0283 27.3485 25.2453 27.3485 24.3579V24.3231C27.3485 24.2013 27.3485 24.0969 27.331 24.0099L26.8567 15.2403C26.8392 14.8227 26.7513 14.4225 26.5757 14.0571C25.9258 12.6825 24.2571 12.1083 22.8871 12.7695C21.8507 13.2567 21.236 14.3007 21.3062 15.4317L21.3238 15.4665C21.3355 15.5941 21.3531 15.7159 21.3765 15.8319L22.6938 24.4797L22.7114 24.5841C22.7348 24.8393 22.8051 25.0829 22.9222 25.3149Z" fill="white"/>
<path d="M26.2765 22.0611C26.2765 22.0611 34.3739 25.0017 34.69 25.4715C35.0062 25.9413 34.3388 27.9945 34.005 28.3251C33.6537 28.6731 24.8713 26.6895 24.8713 26.6895C21.2002 26.1501 22.6405 20.9475 26.2765 22.0611Z" fill="white"/>
<path d="M26.6111 23.3835L26.4705 23.3313C26.5993 22.9949 26.7984 22.7223 27.0677 22.5135C27.056 22.5135 27.0502 22.5135 27.0502 22.5135C26.7691 22.5135 26.5232 22.5657 26.3124 22.6527L26.2422 22.5135C26.5408 22.3743 26.9097 22.3221 27.3136 22.3569L27.542 22.3917L27.3488 22.5135C27.0092 22.7223 26.7633 23.0123 26.6111 23.3835Z" fill="#602968"/>
<path d="M29.6326 23.3487L27.2263 22.4961V22.4439L26.8223 16.2147L26.9804 16.1973L27.3843 22.3743L29.6853 23.2095L29.6326 23.3487Z" fill="#602968"/>
<path d="M29.5276 27.7509C29.4925 27.7509 24.8729 26.7243 24.5216 26.6547C24.346 26.6199 24.1762 26.5619 24.0123 26.4807C23.9771 26.4691 23.942 26.4517 23.9069 26.4285C23.4326 26.1849 23.0638 25.8195 22.853 25.3497C22.7359 25.1061 22.6598 24.8509 22.6246 24.5841L22.6071 24.4971L21.4478 16.8933C21.4478 16.8411 21.2546 15.5883 21.8518 14.5269L21.9923 14.6139C21.4302 15.6057 21.6059 16.8585 21.6234 16.8759L22.7827 24.5667C22.8178 24.8219 22.8881 25.0597 22.9935 25.2801C23.2043 25.7151 23.538 26.0631 23.9771 26.2893C24.0123 26.3125 24.0474 26.3299 24.0825 26.3415C24.223 26.4111 24.3811 26.4633 24.5568 26.4981C24.9081 26.5677 29.5276 27.5943 29.5628 27.5943L29.5276 27.7509Z" fill="#602968"/>
<path d="M19.8662 26.707L19.6906 26.6896C19.7608 25.1758 19.6203 23.5402 19.4798 21.9394C19.2163 19.0684 18.9529 16.1104 19.8662 13.5874L20.0243 13.6396C19.1285 16.1278 19.392 19.0858 19.6379 21.9394C19.7784 23.5228 19.9189 25.1758 19.8662 26.707Z" fill="#602968"/>
<path d="M18.0405 42.9759C17.7771 42.7323 17.496 42.4713 17.4433 42.4365L17.3906 42.4017L17.4082 42.3495C17.4433 42.2625 17.4433 42.2625 18.5323 42.5061L18.4972 42.6627C18.2689 42.6105 17.9878 42.5409 17.7595 42.5061C17.8824 42.6279 18.0405 42.7671 18.1459 42.8715L18.0405 42.9759Z" fill="#602968"/>
<path d="M18.8659 27.6815C18.8659 27.5771 18.5673 25.2629 19.7968 25.0889L19.8144 25.2455C18.7429 25.4021 19.024 27.6293 19.024 27.6467L18.8659 27.6815Z" fill="#602968"/>
<path d="M25.1895 6.20977L25.3124 7.47997C25.3124 7.47997 24.6801 10.5772 26.5244 10.873C28.3511 11.1514 28.9132 9.81157 28.5795 8.28037C27.3499 8.73277 26.4366 7.96717 25.892 5.80957L25.1895 6.20977Z" fill="#602968"/>
</svg>
