<svg width="89" height="78" viewBox="0 0 89 78" fill="none" xmlns="http://www.w3.org/2000/svg">
<rect width="89" height="78" rx="9" fill="#D77E6C"/>
<path d="M44.6947 21.4154C44.3076 21.85 44.3076 22.1016 44.6492 26.2876C44.8541 28.7122 45.0362 30.9539 45.0362 31.2741C45.1045 32.4178 45.4233 29.6958 45.6965 25.7386C45.9469 22.4447 45.9469 21.6213 45.6965 21.3239C45.3322 20.8664 45.1728 20.8893 44.6947 21.4154Z" fill="white"/>
<path d="M35.4492 25.5095C35.4492 26.1271 36.4738 27.1336 40.2078 30.2444C40.5265 30.496 41.2096 31.1136 41.756 31.594C42.3024 32.0743 42.7806 32.4403 42.8489 32.3946C42.8944 32.3488 41.7104 30.862 40.185 29.1007C38.6823 27.3394 37.2707 25.6696 37.043 25.3951C36.8153 25.0749 36.3827 24.869 36.0412 24.869C35.5403 24.869 35.4492 24.9605 35.4492 25.5095Z" fill="white"/>
<path d="M40.7787 25.3959C40.6421 25.7619 40.8015 26.1278 42.8051 30.1079C43.5336 31.5261 44.1711 32.6469 44.2167 32.6012C44.285 32.5554 43.7841 30.8628 43.1238 28.8498C42.0765 25.7619 41.826 25.2129 41.4162 25.1443C41.1202 25.0985 40.847 25.2129 40.7787 25.3959Z" fill="white"/>
<path d="M48.3609 25.259C48.1559 25.6021 46.1523 32.144 46.1523 32.4414C46.1523 32.6015 46.9265 31.2291 47.86 29.3534C49.5903 25.9223 49.7952 25.0988 48.8845 25.0988C48.6568 25.0988 48.4064 25.1675 48.3609 25.259Z" fill="white"/>
<path d="M51.4784 27.7504C50.2489 29.2372 48.7918 30.9527 48.2681 31.5475C47.7217 32.1651 47.2891 32.7369 47.2891 32.8055C47.2891 32.9199 48.0632 32.3023 48.6551 31.7305C48.7235 31.6618 50.1806 30.3809 51.911 28.8941C54.3472 26.7897 55.0302 26.0806 54.9847 25.6917C54.9391 25.3715 54.7342 25.1885 54.3244 25.1427C53.8235 25.0741 53.4137 25.463 51.4784 27.7504Z" fill="white"/>
<path d="M52.8687 30.7254C52.0035 31.2515 50.5235 32.1436 49.6356 32.6697C48.7249 33.1958 48.019 33.6761 48.0646 33.7219C48.1784 33.8362 54.5763 31.2744 54.9861 30.977C55.3959 30.6568 55.3276 29.9705 54.8723 29.8562C54.6446 29.8104 53.7566 30.1993 52.8687 30.7254Z" fill="white"/>
<path d="M35.4971 30.3361C35.315 30.4504 35.2239 30.702 35.2694 30.9308C35.315 31.2282 36.294 31.6628 38.8668 32.5548C40.8021 33.2411 42.4414 33.79 42.4869 33.79C42.8057 33.79 41.8722 33.2182 39.436 31.9372C37.9333 31.1595 36.6127 30.4276 36.4989 30.3361C36.2257 30.0844 35.8842 30.0844 35.4971 30.3361Z" fill="white"/>
<path d="M31.6243 34.294C31.26 34.66 31.2828 35.0488 31.6926 35.3919C31.9886 35.6207 32.8766 35.6207 36.3146 35.3919C42.7579 34.9802 42.8718 34.8429 37.2708 34.4083C31.4877 33.9509 31.9659 33.9509 31.6243 34.294Z" fill="white"/>
<path d="M52.6413 34.3616C50.7743 34.5218 48.9301 34.6819 48.5658 34.6819C46.9493 34.7276 48.452 34.9335 53.0739 35.2995C58.0374 35.6655 58.0374 35.6655 58.5155 35.208C58.9025 34.8191 58.9253 34.6819 58.6749 34.3845C58.3333 33.9499 57.5365 33.9499 52.6413 34.3616Z" fill="white"/>
<path d="M12 38.2513C12 39.5551 12.0683 39.9668 12.3188 39.9668C12.5009 39.9668 12.7058 39.6237 12.7741 39.1662C12.9563 38.1827 13.6621 37.6794 14.7777 37.6794H15.6429V42.3C15.6429 47.2636 15.4835 48.0185 14.55 48.1557C14.2768 48.2015 14.0491 48.3845 14.0491 48.5675C14.0491 48.8191 14.5273 48.8877 16.5536 48.8877C18.4434 48.8877 19.0581 48.8191 19.0581 48.5903C19.0581 48.4302 18.7621 48.1786 18.3751 48.0414L17.692 47.7897V42.7346V37.6794H18.4889C19.4224 37.6794 20.4242 38.5029 20.4242 39.2806C20.4242 39.7381 20.9934 40.1498 21.2666 39.8982C21.3349 39.8296 21.3122 39.029 21.2211 38.1598L21.0617 36.5357H16.5309H12V38.2513Z" fill="white"/>
<path d="M67.2359 36.7416C67.0083 37.1076 67.2815 37.4507 67.7824 37.4507C68.0328 37.4507 68.3288 37.6566 68.4654 37.8853C68.7159 38.3657 68.7842 46.5545 68.5565 47.4466C68.4882 47.7211 68.1239 48.0414 67.7596 48.1786C66.4163 48.659 67.0538 48.8877 69.7177 48.8877C71.9034 48.8877 72.336 48.8191 72.336 48.5446C72.336 48.3616 72.1311 48.2015 71.9034 48.2015C71.0154 48.2015 70.7422 47.6068 70.7422 45.571C70.7422 44.5188 70.8333 43.6038 70.9471 43.5352C71.1976 43.3751 71.744 44.0155 73.5882 46.646L75.1365 48.8877H76.7075C77.8686 48.8877 78.2557 48.8191 78.2557 48.5675C78.2557 48.3845 78.028 48.2015 77.732 48.11C77.4133 48.0414 76.5936 47.1493 75.6146 45.7997C74.7494 44.6103 74.0208 43.5352 73.9753 43.4437C73.9525 43.3522 74.294 43.0777 74.7722 42.8261C75.8423 42.2314 76.4343 41.2478 76.4343 40.0126C76.4343 38.7316 75.9106 37.8624 74.7494 37.1991C73.9298 36.7187 73.4516 36.6501 70.6056 36.5815C68.3971 36.5129 67.327 36.5586 67.2359 36.7416ZM73.6338 38.48C74.2485 39.1891 74.294 40.1498 73.7931 41.2478C73.5199 41.8425 73.2012 42.0712 72.5181 42.2542C70.9244 42.6888 70.8561 42.6202 70.7878 40.3328C70.6967 37.6337 70.7195 37.5879 72.04 37.7481C72.8369 37.8395 73.2467 38.0225 73.6338 38.48Z" fill="white"/>
<path d="M27.2073 39.4407C26.9341 40.0355 26.0689 42.1399 25.2948 44.0842C24.3385 46.4402 23.6555 47.7897 23.2684 48.0871C22.9497 48.3616 22.6992 48.6361 22.6992 48.7276C22.6992 48.8191 23.4733 48.8877 24.4068 48.8877C26.16 48.8877 26.6153 48.6132 25.5452 48.2015C24.885 47.9499 24.8622 47.8126 25.3403 46.6003L25.7046 45.6853H27.3894H29.0971L29.5524 46.7604L30.0078 47.8584L29.5524 48.1786C28.71 48.7276 29.0288 48.8877 31.0096 48.8877C32.5806 48.8877 32.9449 48.8191 32.9449 48.5446C32.9449 48.3616 32.7855 48.2015 32.6033 48.2015C32.1935 48.2015 31.9203 47.6754 30.4859 44.0842C28.8694 40.0812 28.2319 38.663 27.9359 38.48C27.7993 38.3885 27.5033 38.7774 27.2073 39.4407ZM28.1408 43.3293C28.3912 43.9927 28.5051 44.5416 28.3685 44.5874C28.2546 44.6331 27.7082 44.6331 27.1618 44.5874L26.16 44.4959L26.7519 43.1463C27.0707 42.3915 27.4122 41.8654 27.5033 41.9569C27.5944 42.0712 27.8903 42.666 28.1408 43.3293Z" fill="white"/>
<path d="M33.6971 38.7543C33.219 38.9373 33.3556 39.2346 34.0386 39.5549L34.6534 39.8522L34.7217 43.5121C34.79 47.698 34.7217 48.1326 34.0386 48.247C33.7654 48.2927 33.515 48.4529 33.4467 48.5901C33.3784 48.8188 33.8337 48.8875 35.1998 48.8875C36.6797 48.8875 37.044 48.8188 37.044 48.5444C37.044 48.3614 36.8391 48.2013 36.6114 48.2013C36.3838 48.2013 36.1105 48.0411 36.0422 47.8353C35.8146 47.2405 35.8829 41.7508 36.1105 41.888C36.2244 41.9795 37.5677 43.6264 39.0932 45.5707C40.6186 47.515 42.0075 49.1162 42.1669 49.1162C42.4401 49.1162 42.5084 48.2927 42.5539 44.3584C42.6222 39.6464 42.6222 39.6235 43.1459 39.5549C43.4419 39.5091 43.6468 39.3261 43.6468 39.0974C43.6468 38.7543 43.3736 38.7085 41.8936 38.7085C40.4593 38.7085 40.1177 38.7772 40.1177 39.0516C40.1177 39.2346 40.3454 39.4176 40.6186 39.4634C41.3017 39.5549 41.3927 40.0581 41.3244 42.9174L41.2561 45.2963L38.911 42.2998C37.6132 40.63 36.4065 39.1431 36.2244 38.9373C35.8829 38.617 34.3346 38.4798 33.6971 38.7543Z" fill="white"/>
<path d="M44.2625 38.7543C43.9666 39.0288 44.1032 39.2575 44.7407 39.5549L45.3554 39.8522L45.4237 43.5121C45.492 47.6751 45.4237 48.2013 44.7862 48.2013C44.5358 48.2013 44.3308 48.3614 44.3308 48.5444C44.3308 48.8188 44.6951 48.8875 46.1751 48.8875C47.5411 48.8875 47.9965 48.8188 47.9282 48.5901C47.8599 48.4529 47.6322 48.2699 47.3818 48.2241C47.1541 48.1784 46.8809 48.0411 46.7898 47.881C46.5621 47.5379 46.5621 41.7965 46.7898 41.8194C46.8809 41.8194 48.2242 43.4663 49.7497 45.4792C51.2979 47.4693 52.7095 49.1162 52.8917 49.1162C53.1421 49.1162 53.2104 48.247 53.2559 44.3813L53.3242 39.6464L53.8934 39.5091C54.8042 39.2804 54.5993 38.7314 53.5519 38.6628C52.1858 38.5484 50.6604 38.8 50.7742 39.1203C50.8198 39.2804 51.0474 39.4405 51.2979 39.4863C51.5256 39.532 51.7988 39.6692 51.8899 39.8294C52.1403 40.1953 52.1175 45.0446 51.8671 44.9531C51.7532 44.9074 50.7742 43.7408 49.7041 42.3455C46.7898 38.5713 46.8126 38.5942 45.5148 38.5942C44.9 38.5942 44.3308 38.6628 44.2625 38.7543Z" fill="white"/>
<path d="M54.8723 38.8684C54.7129 39.1429 55.0089 39.5089 55.3732 39.5089C55.9879 39.5089 56.1701 40.401 56.1701 43.4432C56.1701 46.8972 56.4205 47.6978 57.7411 48.5899C58.7201 49.2532 60.8831 49.3219 62.0898 48.7043C63.5242 47.9952 63.7974 46.8972 63.8885 41.1558C63.9112 39.852 63.9568 39.7148 64.4805 39.5089C65.3001 39.1887 65.1863 38.8913 64.2072 38.7312C62.9322 38.5253 61.5206 38.7083 61.5206 39.0743C61.5206 39.2573 61.7483 39.4174 61.9987 39.4632C62.2947 39.5089 62.5679 39.7605 62.6362 40.035C62.8411 40.8585 62.7956 45.7306 62.5452 46.5999C62.1126 48.1553 59.9951 48.7271 58.7429 47.6521L58.1054 47.1031V43.3746V39.6462L58.6518 39.5089C59.5398 39.303 59.4715 38.8913 58.4924 38.7083C57.4223 38.5253 55.0317 38.6397 54.8723 38.8684Z" fill="white"/>
</svg>
