<svg width="67" height="28" viewBox="0 0 67 28" fill="none" xmlns="http://www.w3.org/2000/svg">
<path d="M32.6947 0.413309C32.3076 0.845903 32.3076 1.09635 32.6492 5.26292C32.8541 7.67634 33.0362 9.90761 33.0362 10.2264C33.1045 11.3648 33.4233 8.65537 33.6965 4.71648C33.9469 1.43787 33.9469 0.618222 33.6965 0.322237C33.3322 -0.133125 33.1728 -0.110357 32.6947 0.413309Z" fill="white"/>
<path d="M23.4512 4.4878C23.4512 5.10254 24.4757 6.10434 28.2097 9.2008C28.5285 9.45125 29.2115 10.066 29.7579 10.5441C30.3044 11.0222 30.7825 11.3865 30.8508 11.341C30.8963 11.2955 29.7124 9.81554 28.1869 8.06239C26.6842 6.30925 25.2726 4.64718 25.0449 4.37396C24.8173 4.0552 24.3847 3.85029 24.0431 3.85029C23.5422 3.85029 23.4512 3.94136 23.4512 4.4878Z" fill="white"/>
<path d="M28.7787 4.37479C28.6421 4.73908 28.8015 5.10337 30.8051 9.06503C31.5336 10.4766 32.1711 11.5923 32.2167 11.5467C32.285 11.5012 31.7841 9.81637 31.1238 7.81278C30.0765 4.73908 29.826 4.19265 29.4162 4.12434C29.1202 4.07881 28.847 4.19265 28.7787 4.37479Z" fill="white"/>
<path d="M36.3609 4.23808C36.1559 4.5796 34.1523 11.0913 34.1523 11.3873C34.1523 11.5466 34.9265 10.1806 35.86 8.31357C37.5903 4.89835 37.7952 4.0787 36.8845 4.0787C36.6568 4.0787 36.4064 4.147 36.3609 4.23808Z" fill="white"/>
<path d="M39.4803 6.71855C38.2509 8.19848 36.7937 9.90609 36.27 10.4981C35.7236 11.1128 35.291 11.682 35.291 11.7503C35.291 11.8641 36.0651 11.2494 36.6571 10.6802C36.7254 10.6119 38.1826 9.33688 39.9129 7.85696C42.3491 5.76229 43.0322 5.05648 42.9866 4.66942C42.9411 4.35067 42.7362 4.16852 42.3264 4.12299C41.8255 4.05468 41.4156 4.44174 39.4803 6.71855Z" fill="white"/>
<path d="M40.8687 9.67957C40.0035 10.2032 38.5235 11.0912 37.6356 11.6149C36.7249 12.1385 36.019 12.6167 36.0646 12.6622C36.1784 12.776 42.5763 10.226 42.9861 9.93002C43.3959 9.61127 43.3276 8.92823 42.8723 8.81438C42.6446 8.76885 41.7566 9.15591 40.8687 9.67957Z" fill="white"/>
<path d="M23.4971 9.29285C23.315 9.40669 23.2239 9.65714 23.2694 9.88482C23.315 10.1808 24.294 10.6134 26.8668 11.5014C28.8021 12.1844 30.4414 12.7308 30.4869 12.7308C30.8057 12.7308 29.8722 12.1616 27.436 10.8866C25.9333 10.1125 24.6127 9.38392 24.4989 9.29285C24.2257 9.0424 23.8842 9.0424 23.4971 9.29285Z" fill="white"/>
<path d="M19.6263 13.2314C19.262 13.5957 19.2848 13.9827 19.6946 14.3243C19.9906 14.5519 20.8785 14.5519 24.3165 14.3243C30.7599 13.9144 30.8737 13.7778 25.2728 13.3452C19.4897 12.8899 19.9678 12.8899 19.6263 13.2314Z" fill="white"/>
<path d="M40.6413 13.2987C38.7743 13.4581 36.9301 13.6175 36.5658 13.6175C34.9493 13.663 36.452 13.868 41.0739 14.2322C46.0374 14.5965 46.0374 14.5965 46.5155 14.1412C46.9025 13.7541 46.9253 13.6175 46.6749 13.3215C46.3333 12.8889 45.5365 12.8889 40.6413 13.2987Z" fill="white"/>
<path d="M0 17.1705C0 18.4683 0.0683043 18.8781 0.318754 18.8781C0.500898 18.8781 0.705811 18.5366 0.774116 18.0812C0.956261 17.1022 1.66207 16.6013 2.77771 16.6013H3.6429V21.2005C3.6429 26.1412 3.48352 26.8925 2.55003 27.0291C2.27681 27.0746 2.04913 27.2568 2.04913 27.4389C2.04913 27.6894 2.52726 27.7577 4.55362 27.7577C6.44338 27.7577 7.05811 27.6894 7.05811 27.4617C7.05811 27.3023 6.76213 27.0519 6.37507 26.9153L5.69203 26.6648V21.6331V16.6013H6.48891C7.4224 16.6013 8.4242 17.421 8.4242 18.1951C8.4242 18.6504 8.9934 19.0603 9.26662 18.8098C9.33493 18.7415 9.31216 17.9446 9.22109 17.0794L9.06171 15.4629H4.53085H0V17.1705Z" fill="white"/>
<path d="M55.2359 15.6678C55.0083 16.0321 55.2815 16.3736 55.7824 16.3736C56.0328 16.3736 56.3288 16.5785 56.4654 16.8062C56.7159 17.2844 56.7842 25.4353 56.5565 26.3233C56.4882 26.5965 56.1239 26.9153 55.7596 27.0519C54.4163 27.53 55.0538 27.7577 57.7177 27.7577C59.9034 27.7577 60.336 27.6894 60.336 27.4162C60.336 27.234 60.1311 27.0746 59.9034 27.0746C59.0154 27.0746 58.7422 26.4827 58.7422 24.4563C58.7422 23.409 58.8333 22.4983 58.9471 22.43C59.1976 22.2706 59.744 22.9081 61.5882 25.5264L63.1365 27.7577H64.7075C65.8686 27.7577 66.2557 27.6894 66.2557 27.4389C66.2557 27.2568 66.028 27.0746 65.732 26.9836C65.4133 26.9153 64.5936 26.0273 63.6146 24.684C62.7494 23.5001 62.0208 22.43 61.9753 22.3389C61.9525 22.2478 62.294 21.9746 62.7722 21.7241C63.8423 21.1322 64.4342 20.1531 64.4342 18.9237C64.4342 17.6486 63.9106 16.7835 62.7494 16.1232C61.9298 15.6451 61.4516 15.5768 58.6056 15.5084C56.3971 15.4401 55.327 15.4857 55.2359 15.6678ZM61.6338 17.3982C62.2485 18.104 62.294 19.0603 61.7931 20.1531C61.5199 20.7451 61.2012 20.9728 60.5181 21.1549C58.9244 21.5875 58.8561 21.5192 58.7878 19.2424C58.6967 16.5558 58.7195 16.5102 60.04 16.6696C60.8369 16.7607 61.2467 16.9428 61.6338 17.3982Z" fill="white"/>
<path d="M15.2093 18.3545C14.936 18.9464 14.0709 21.0411 13.2967 22.9764C12.3405 25.3215 11.6574 26.6648 11.2704 26.9608C10.9516 27.234 10.7012 27.5072 10.7012 27.5983C10.7012 27.6894 11.4753 27.7577 12.4088 27.7577C14.1619 27.7577 14.6173 27.4845 13.5472 27.0746C12.8869 26.8242 12.8641 26.6876 13.3423 25.4809L13.7066 24.5702H15.3914H17.099L17.5544 25.6403L18.0097 26.7331L17.5544 27.0519C16.712 27.5983 17.0307 27.7577 19.0115 27.7577C20.5825 27.7577 20.9468 27.6894 20.9468 27.4162C20.9468 27.234 20.7874 27.0746 20.6053 27.0746C20.1955 27.0746 19.9223 26.551 18.4879 22.9764C16.8713 18.992 16.2338 17.5803 15.9378 17.3982C15.8012 17.3071 15.5052 17.6942 15.2093 18.3545ZM16.1428 22.225C16.3932 22.8853 16.507 23.4317 16.3704 23.4773C16.2566 23.5228 15.7102 23.5228 15.1637 23.4773L14.1619 23.3862L14.7539 22.0429C15.0726 21.2915 15.4142 20.7679 15.5052 20.859C15.5963 20.9728 15.8923 21.5648 16.1428 22.225Z" fill="white"/>
<path d="M21.6991 17.671C21.2209 17.8531 21.3576 18.1491 22.0406 18.4679L22.6553 18.7638L22.7236 22.4067C22.7919 26.5733 22.7236 27.0059 22.0406 27.1197C21.7674 27.1653 21.5169 27.3246 21.4486 27.4613C21.3803 27.6889 21.8357 27.7572 23.2018 27.7572C24.6817 27.7572 25.046 27.6889 25.046 27.4157C25.046 27.2336 24.8411 27.0742 24.6134 27.0742C24.3857 27.0742 24.1125 26.9148 24.0442 26.7099C23.8165 26.1179 23.8848 20.6536 24.1125 20.7902C24.2263 20.8813 25.5697 22.5206 27.0951 24.4559C28.6206 26.3912 30.0094 27.9849 30.1688 27.9849C30.442 27.9849 30.5103 27.1653 30.5559 23.2492C30.6242 18.5589 30.6242 18.5362 31.1478 18.4679C31.4438 18.4223 31.6487 18.2402 31.6487 18.0125C31.6487 17.671 31.3755 17.6254 29.8956 17.6254C28.4612 17.6254 28.1197 17.6937 28.1197 17.967C28.1197 18.1491 28.3474 18.3312 28.6206 18.3768C29.3036 18.4679 29.3947 18.9688 29.3264 21.8148L29.2581 24.1826L26.913 21.2C25.6152 19.538 24.4085 18.058 24.2263 17.8531C23.8848 17.5344 22.3366 17.3978 21.6991 17.671Z" fill="white"/>
<path d="M32.2625 17.671C31.9666 17.9442 32.1032 18.1719 32.7407 18.4679L33.3554 18.7638L33.4237 22.4067C33.492 26.5505 33.4237 27.0742 32.7862 27.0742C32.5358 27.0742 32.3308 27.2336 32.3308 27.4157C32.3308 27.6889 32.6951 27.7572 34.1751 27.7572C35.5411 27.7572 35.9965 27.6889 35.9282 27.4613C35.8599 27.3246 35.6322 27.1425 35.3818 27.097C35.1541 27.0514 34.8809 26.9148 34.7898 26.7554C34.5621 26.4139 34.5621 20.6991 34.7898 20.7219C34.8809 20.7219 36.2242 22.3612 37.7497 24.3648C39.2979 26.3456 40.7095 27.9849 40.8917 27.9849C41.1421 27.9849 41.2104 27.1197 41.2559 23.2719L41.3242 18.5589L41.8934 18.4223C42.8042 18.1946 42.5993 17.6482 41.5519 17.5799C40.1858 17.4661 38.6604 17.7165 38.7742 18.0353C38.8198 18.1946 39.0474 18.354 39.2979 18.3995C39.5256 18.4451 39.7988 18.5817 39.8899 18.7411C40.1403 19.1054 40.1175 23.9322 39.8671 23.8411C39.7532 23.7956 38.7742 22.6344 37.7041 21.2456C34.7898 17.4888 34.8126 17.5116 33.5148 17.5116C32.9 17.5116 32.3308 17.5799 32.2625 17.671Z" fill="white"/>
<path d="M42.8723 17.7851C42.7129 18.0583 43.0089 18.4226 43.3732 18.4226C43.9879 18.4226 44.1701 19.3106 44.1701 22.3387C44.1701 25.7767 44.4205 26.5736 45.7411 27.4615C46.7201 28.1218 48.8831 28.1901 50.0898 27.5754C51.5242 26.8696 51.7974 25.7767 51.8885 20.0619C51.9112 18.7641 51.9568 18.6275 52.4805 18.4226C53.3001 18.1038 53.1863 17.8079 52.2072 17.6485C50.9322 17.4436 49.5206 17.6257 49.5206 17.99C49.5206 18.1721 49.7483 18.3315 49.9987 18.3771C50.2947 18.4226 50.5679 18.673 50.6362 18.9463C50.8411 19.7659 50.7956 24.6155 50.5452 25.4807C50.1126 27.0289 47.9951 27.5981 46.7429 26.528L46.1054 25.9816V22.2704V18.5592L46.6518 18.4226C47.5398 18.2177 47.4715 17.8079 46.4924 17.6257C45.4223 17.4436 43.0317 17.5574 42.8723 17.7851Z" fill="white"/>
</svg>
