<svg width="67" height="28" viewBox="0 0 67 28" fill="none" xmlns="http://www.w3.org/2000/svg">
<path d="M32.6947 0.41392C32.3076 0.846514 32.3076 1.09696 32.6492 5.26353C32.8541 7.67695 33.0362 9.90822 33.0362 10.227C33.1045 11.3654 33.4233 8.65598 33.6965 4.71709C33.9469 1.43848 33.9469 0.618833 33.6965 0.322847C33.3322 -0.132515 33.1728 -0.109747 32.6947 0.41392Z" fill="#1C1C1C"/>
<path d="M23.4512 4.48841C23.4512 5.10315 24.4757 6.10495 28.2097 9.20141C28.5285 9.45186 29.2115 10.0666 29.7579 10.5447C30.3044 11.0229 30.7825 11.3871 30.8508 11.3416C30.8963 11.2961 29.7124 9.81615 28.1869 8.063C26.6842 6.30986 25.2726 4.64779 25.0449 4.37457C24.8173 4.05582 24.3847 3.8509 24.0431 3.8509C23.5422 3.8509 23.4512 3.94197 23.4512 4.48841Z" fill="#1C1C1C"/>
<path d="M28.7787 4.3754C28.6421 4.73969 28.8015 5.10398 30.8051 9.06564C31.5336 10.4773 32.1711 11.5929 32.2167 11.5474C32.285 11.5018 31.7841 9.81698 31.1238 7.81339C30.0765 4.73969 29.826 4.19326 29.4162 4.12496C29.1202 4.07942 28.847 4.19326 28.7787 4.3754Z" fill="#1C1C1C"/>
<path d="M36.3609 4.23869C36.1559 4.58021 34.1523 11.0919 34.1523 11.3879C34.1523 11.5473 34.9265 10.1812 35.86 8.31418C37.5903 4.89896 37.7952 4.07931 36.8845 4.07931C36.6568 4.07931 36.4064 4.14761 36.3609 4.23869Z" fill="#1C1C1C"/>
<path d="M39.4803 6.71916C38.2509 8.19909 36.7937 9.9067 36.27 10.4987C35.7236 11.1134 35.291 11.6826 35.291 11.7509C35.291 11.8648 36.0651 11.25 36.6571 10.6808C36.7254 10.6125 38.1826 9.33749 39.9129 7.85757C42.3491 5.7629 43.0322 5.05709 42.9866 4.67003C42.9411 4.35128 42.7362 4.16913 42.3264 4.1236C41.8255 4.05529 41.4156 4.44235 39.4803 6.71916Z" fill="#1C1C1C"/>
<path d="M40.8687 9.68018C40.0035 10.2038 38.5235 11.0918 37.6356 11.6155C36.7249 12.1391 36.019 12.6173 36.0646 12.6628C36.1784 12.7766 42.5763 10.2266 42.9861 9.93063C43.3959 9.61188 43.3276 8.92884 42.8723 8.815C42.6446 8.76946 41.7566 9.15652 40.8687 9.68018Z" fill="#1C1C1C"/>
<path d="M23.4971 9.29346C23.315 9.4073 23.2239 9.65775 23.2694 9.88543C23.315 10.1814 24.294 10.614 26.8668 11.502C28.8021 12.185 30.4414 12.7314 30.4869 12.7314C30.8057 12.7314 29.8722 12.1622 27.436 10.8872C25.9333 10.1131 24.6127 9.38453 24.4989 9.29346C24.2257 9.04301 23.8842 9.04301 23.4971 9.29346Z" fill="#1C1C1C"/>
<path d="M19.6263 13.232C19.262 13.5963 19.2848 13.9834 19.6946 14.3249C19.9906 14.5526 20.8785 14.5526 24.3165 14.3249C30.7599 13.9151 30.8737 13.7785 25.2728 13.3459C19.4897 12.8905 19.9678 12.8905 19.6263 13.232Z" fill="#1C1C1C"/>
<path d="M40.6413 13.2994C38.7743 13.4588 36.9301 13.6181 36.5658 13.6181C34.9493 13.6637 36.452 13.8686 41.0739 14.2329C46.0374 14.5972 46.0374 14.5972 46.5155 14.1418C46.9025 13.7548 46.9253 13.6181 46.6749 13.3222C46.3333 12.8896 45.5365 12.8896 40.6413 13.2994Z" fill="#1C1C1C"/>
<path d="M0 17.1711C0 18.4689 0.0683043 18.8787 0.318754 18.8787C0.500898 18.8787 0.705811 18.5372 0.774116 18.0819C0.956261 17.1028 1.66207 16.6019 2.77771 16.6019H3.6429V21.2011C3.6429 26.1418 3.48352 26.8931 2.55003 27.0297C2.27681 27.0753 2.04913 27.2574 2.04913 27.4395C2.04913 27.69 2.52726 27.7583 4.55362 27.7583C6.44338 27.7583 7.05811 27.69 7.05811 27.4623C7.05811 27.3029 6.76213 27.0525 6.37507 26.9159L5.69203 26.6654V21.6337V16.6019H6.48891C7.4224 16.6019 8.4242 17.4216 8.4242 18.1957C8.4242 18.6511 8.9934 19.0609 9.26662 18.8104C9.33493 18.7421 9.31216 17.9452 9.22109 17.0801L9.06171 15.4635H4.53085H0V17.1711Z" fill="#1C1C1C"/>
<path d="M55.2359 15.6684C55.0083 16.0327 55.2815 16.3742 55.7824 16.3742C56.0328 16.3742 56.3288 16.5792 56.4654 16.8068C56.7159 17.285 56.7842 25.436 56.5565 26.3239C56.4882 26.5971 56.1239 26.9159 55.7596 27.0525C54.4163 27.5306 55.0538 27.7583 57.7177 27.7583C59.9034 27.7583 60.336 27.69 60.336 27.4168C60.336 27.2346 60.1311 27.0753 59.9034 27.0753C59.0154 27.0753 58.7422 26.4833 58.7422 24.4569C58.7422 23.4096 58.8333 22.4989 58.9471 22.4306C59.1976 22.2712 59.744 22.9087 61.5882 25.527L63.1365 27.7583H64.7075C65.8686 27.7583 66.2557 27.69 66.2557 27.4395C66.2557 27.2574 66.028 27.0753 65.732 26.9842C65.4133 26.9159 64.5936 26.0279 63.6146 24.6846C62.7494 23.5007 62.0208 22.4306 61.9753 22.3395C61.9525 22.2484 62.294 21.9752 62.7722 21.7248C63.8423 21.1328 64.4343 20.1538 64.4343 18.9243C64.4343 17.6493 63.9106 16.7841 62.7494 16.1238C61.9298 15.6457 61.4516 15.5774 58.6056 15.5091C56.3971 15.4408 55.327 15.4863 55.2359 15.6684ZM61.6338 17.3988C62.2485 18.1046 62.294 19.0609 61.7931 20.1538C61.5199 20.7457 61.2012 20.9734 60.5181 21.1555C58.9244 21.5881 58.8561 21.5198 58.7878 19.243C58.6967 16.5564 58.7195 16.5109 60.04 16.6702C60.8369 16.7613 61.2467 16.9434 61.6338 17.3988Z" fill="#1C1C1C"/>
<path d="M15.2093 18.3551C14.936 18.947 14.0709 21.0417 13.2967 22.977C12.3405 25.3221 11.6574 26.6654 11.2704 26.9614C10.9516 27.2346 10.7012 27.5079 10.7012 27.5989C10.7012 27.69 11.4753 27.7583 12.4088 27.7583C14.1619 27.7583 14.6173 27.4851 13.5472 27.0753C12.8869 26.8248 12.8641 26.6882 13.3423 25.4815L13.7066 24.5708H15.3914H17.099L17.5544 25.6409L18.0097 26.7337L17.5544 27.0525C16.712 27.5989 17.0307 27.7583 19.0115 27.7583C20.5825 27.7583 20.9468 27.69 20.9468 27.4168C20.9468 27.2346 20.7874 27.0753 20.6053 27.0753C20.1955 27.0753 19.9223 26.5516 18.4879 22.977C16.8713 18.9926 16.2338 17.581 15.9378 17.3988C15.8012 17.3077 15.5052 17.6948 15.2093 18.3551ZM16.1428 22.2257C16.3932 22.8859 16.507 23.4324 16.3704 23.4779C16.2566 23.5234 15.7102 23.5234 15.1637 23.4779L14.1619 23.3868L14.7539 22.0435C15.0726 21.2922 15.4142 20.7685 15.5052 20.8596C15.5963 20.9734 15.8923 21.5654 16.1428 22.2257Z" fill="#1C1C1C"/>
<path d="M21.6991 17.6716C21.2209 17.8537 21.3576 18.1497 22.0406 18.4685L22.6553 18.7645L22.7236 22.4073C22.7919 26.5739 22.7236 27.0065 22.0406 27.1203C21.7674 27.1659 21.5169 27.3253 21.4486 27.4619C21.3803 27.6895 21.8357 27.7579 23.2018 27.7579C24.6817 27.7579 25.046 27.6895 25.046 27.4163C25.046 27.2342 24.8411 27.0748 24.6134 27.0748C24.3857 27.0748 24.1125 26.9154 24.0442 26.7105C23.8165 26.1185 23.8848 20.6542 24.1125 20.7908C24.2263 20.8819 25.5697 22.5212 27.0951 24.4565C28.6206 26.3918 30.0094 27.9855 30.1688 27.9855C30.442 27.9855 30.5103 27.1659 30.5559 23.2498C30.6242 18.5595 30.6242 18.5368 31.1478 18.4685C31.4438 18.4229 31.6487 18.2408 31.6487 18.0131C31.6487 17.6716 31.3755 17.626 29.8956 17.626C28.4612 17.626 28.1197 17.6943 28.1197 17.9676C28.1197 18.1497 28.3474 18.3319 28.6206 18.3774C29.3036 18.4685 29.3947 18.9694 29.3264 21.8154L29.2581 24.1833L26.913 21.2006C25.6152 19.5386 24.4085 18.0586 24.2263 17.8537C23.8848 17.535 22.3366 17.3984 21.6991 17.6716Z" fill="#1C1C1C"/>
<path d="M32.2625 17.6716C31.9666 17.9448 32.1032 18.1725 32.7407 18.4685L33.3554 18.7644L33.4237 22.4073C33.492 26.5511 33.4237 27.0748 32.7862 27.0748C32.5358 27.0748 32.3308 27.2342 32.3308 27.4163C32.3308 27.6895 32.6951 27.7579 34.1751 27.7579C35.5411 27.7579 35.9965 27.6895 35.9282 27.4619C35.8599 27.3253 35.6322 27.1431 35.3818 27.0976C35.1541 27.052 34.8809 26.9154 34.7898 26.7561C34.5621 26.4145 34.5621 20.6997 34.7898 20.7225C34.8809 20.7225 36.2242 22.3618 37.7497 24.3654C39.2979 26.3462 40.7095 27.9855 40.8917 27.9855C41.1421 27.9855 41.2104 27.1203 41.2559 23.2725L41.3242 18.5595L41.8934 18.4229C42.8042 18.1952 42.5993 17.6488 41.5519 17.5805C40.1858 17.4667 38.6604 17.7171 38.7742 18.0359C38.8198 18.1952 39.0474 18.3546 39.2979 18.4002C39.5256 18.4457 39.7988 18.5823 39.8899 18.7417C40.1403 19.106 40.1175 23.9328 39.8671 23.8417C39.7532 23.7962 38.7742 22.635 37.7041 21.2462C34.7898 17.4894 34.8126 17.5122 33.5148 17.5122C32.9 17.5122 32.3308 17.5805 32.2625 17.6716Z" fill="#1C1C1C"/>
<path d="M42.8723 17.7857C42.7129 18.0589 43.0089 18.4232 43.3732 18.4232C43.9879 18.4232 44.1701 19.3112 44.1701 22.3393C44.1701 25.7773 44.4205 26.5742 45.7411 27.4621C46.7201 28.1224 48.8831 28.1907 50.0898 27.576C51.5242 26.8702 51.7974 25.7773 51.8885 20.0625C51.9112 18.7647 51.9568 18.6281 52.4805 18.4232C53.3001 18.1045 53.1863 17.8085 52.2072 17.6491C50.9322 17.4442 49.5206 17.6263 49.5206 17.9906C49.5206 18.1728 49.7483 18.3321 49.9987 18.3777C50.2947 18.4232 50.5679 18.6737 50.6362 18.9469C50.8411 19.7665 50.7956 24.6161 50.5452 25.4813C50.1126 27.0296 47.9951 27.5988 46.7429 26.5287L46.1054 25.9822V22.271V18.5598L46.6518 18.4232C47.5398 18.2183 47.4715 17.8085 46.4924 17.6263C45.4223 17.4442 43.0317 17.558 42.8723 17.7857Z" fill="#1C1C1C"/>
</svg>
