<svg width="32" height="32" viewBox="0 0 32 32" fill="none" xmlns="http://www.w3.org/2000/svg">
<g clip-path="url(#clip0_3042_7367)">
<path d="M20 26.6667H6.66667C4.89921 26.6646 3.20474 25.9615 1.95496 24.7117C0.705176 23.4619 0.00211714 21.7675 0 20L0 6.66667C0.00211714 4.89921 0.705176 3.20474 1.95496 1.95496C3.20474 0.705176 4.89921 0.00211714 6.66667 0L20 0C21.7675 0.00211714 23.4619 0.705176 24.7117 1.95496C25.9615 3.20474 26.6646 4.89921 26.6667 6.66667V20C26.6646 21.7675 25.9615 23.4619 24.7117 24.7117C23.4619 25.9615 21.7675 26.6646 20 26.6667V26.6667ZM6.66667 2.66667C5.6058 2.66667 4.58839 3.08809 3.83824 3.83824C3.08809 4.58839 2.66667 5.6058 2.66667 6.66667V20C2.66667 21.0609 3.08809 22.0783 3.83824 22.8284C4.58839 23.5786 5.6058 24 6.66667 24H20C21.0609 24 22.0783 23.5786 22.8284 22.8284C23.5786 22.0783 24 21.0609 24 20V6.66667C24 5.6058 23.5786 4.58839 22.8284 3.83824C22.0783 3.08809 21.0609 2.66667 20 2.66667H6.66667ZM32 25.3333V8C32 7.64638 31.8595 7.30724 31.6095 7.05719C31.3594 6.80714 31.0203 6.66667 30.6667 6.66667C30.313 6.66667 29.9739 6.80714 29.7239 7.05719C29.4738 7.30724 29.3333 7.64638 29.3333 8V25.3333C29.3333 26.3942 28.9119 27.4116 28.1618 28.1618C27.4116 28.9119 26.3942 29.3333 25.3333 29.3333H8C7.64638 29.3333 7.30724 29.4738 7.05719 29.7239C6.80714 29.9739 6.66667 30.313 6.66667 30.6667C6.66667 31.0203 6.80714 31.3594 7.05719 31.6095C7.30724 31.8595 7.64638 32 8 32H25.3333C27.1008 31.9979 28.7953 31.2948 30.045 30.045C31.2948 28.7953 31.9979 27.1008 32 25.3333V25.3333Z" fill="#353535"/>
</g>
<defs>
<clipPath id="clip0_3042_7367">
<rect width="32" height="32" fill="white"/>
</clipPath>
</defs>
</svg>
