<svg width="35" height="35" viewBox="0 0 35 35" fill="none" xmlns="http://www.w3.org/2000/svg">
<g clip-path="url(#clip0_3075_3275)">
<path d="M2.91667 16.0417H18.9583C19.7319 16.0417 20.4737 15.7344 21.0207 15.1874C21.5677 14.6404 21.875 13.8985 21.875 13.125V2.91667C21.875 2.14312 21.5677 1.40125 21.0207 0.854272C20.4737 0.307291 19.7319 0 18.9583 0L2.91667 0C2.14312 0 1.40125 0.307291 0.854272 0.854272C0.307291 1.40125 0 2.14312 0 2.91667L0 13.125C0 13.8985 0.307291 14.6404 0.854272 15.1874C1.40125 15.7344 2.14312 16.0417 2.91667 16.0417ZM2.91667 2.91667H18.9583V13.125H2.91667V2.91667Z" fill="#D77E6C"/>
<path d="M32.0837 0H27.7087C26.9351 0 26.1932 0.307291 25.6463 0.854272C25.0993 1.40125 24.792 2.14312 24.792 2.91667V13.125C24.792 13.8985 25.0993 14.6404 25.6463 15.1874C26.1932 15.7344 26.9351 16.0417 27.7087 16.0417H32.0837C32.8572 16.0417 33.5991 15.7344 34.1461 15.1874C34.693 14.6404 35.0003 13.8985 35.0003 13.125V2.91667C35.0003 2.14312 34.693 1.40125 34.1461 0.854272C33.5991 0.307291 32.8572 0 32.0837 0V0ZM32.0837 13.125H27.7087V2.91667H32.0837V13.125Z" fill="#D77E6C"/>
<path d="M7.29167 18.959H2.91667C2.14312 18.959 1.40125 19.2663 0.854272 19.8133C0.307291 20.3602 0 21.1021 0 21.8756L0 32.084C0 32.8575 0.307291 33.5994 0.854272 34.1464C1.40125 34.6933 2.14312 35.0006 2.91667 35.0006H7.29167C8.06522 35.0006 8.80708 34.6933 9.35406 34.1464C9.90104 33.5994 10.2083 32.8575 10.2083 32.084V21.8756C10.2083 21.1021 9.90104 20.3602 9.35406 19.8133C8.80708 19.2663 8.06522 18.959 7.29167 18.959ZM7.29167 32.084H2.91667V21.8756H7.29167V32.084Z" fill="#D77E6C"/>
<path d="M32.0833 18.959H16.0417C15.2681 18.959 14.5263 19.2663 13.9793 19.8133C13.4323 20.3602 13.125 21.1021 13.125 21.8756V32.084C13.125 32.8575 13.4323 33.5994 13.9793 34.1464C14.5263 34.6933 15.2681 35.0006 16.0417 35.0006H32.0833C32.8569 35.0006 33.5987 34.6933 34.1457 34.1464C34.6927 33.5994 35 32.8575 35 32.084V21.8756C35 21.1021 34.6927 20.3602 34.1457 19.8133C33.5987 19.2663 32.8569 18.959 32.0833 18.959ZM32.0833 32.084H16.0417V21.8756H32.0833V32.084Z" fill="#D77E6C"/>
</g>
<defs>
<clipPath id="clip0_3075_3275">
<rect width="35" height="35" fill="white"/>
</clipPath>
</defs>
</svg>
