<svg width="22" height="21" viewBox="0 0 22 21" fill="none" xmlns="http://www.w3.org/2000/svg">
<g clip-path="url(#clip0_721_1385)">
<path d="M21.1919 0.771961C20.8633 0.454447 20.4544 0.223209 20.0048 0.100587C19.5552 -0.0220341 19.08 -0.0318939 18.6253 0.0719605L3.95858 3.02071C3.11395 3.13128 2.31842 3.46475 1.6616 3.98357C1.00478 4.50239 0.512754 5.18595 0.240928 5.95727C-0.0308988 6.72859 -0.0717268 7.55703 0.123042 8.3493C0.31781 9.14157 0.740439 9.8662 1.34333 10.4416L2.91817 11.944C3.0034 12.0253 3.071 12.1219 3.11709 12.2282C3.16317 12.3345 3.18685 12.4484 3.18675 12.5635V15.3355C3.18877 15.7252 3.28277 16.1095 3.46175 16.4598L3.45442 16.466L3.47825 16.4887C3.74685 17.0042 4.18553 17.4211 4.72675 17.6752L4.75058 17.698L4.757 17.691C5.124 17.8618 5.52661 17.9515 5.93492 17.9535H8.83892C9.08188 17.9533 9.31498 18.0452 9.487 18.209L11.0609 19.7113C11.4831 20.1188 11.9855 20.4424 12.5393 20.6636C13.0931 20.8848 13.6873 20.9992 14.2876 21.0002C14.7879 20.9996 15.2847 20.9216 15.7588 20.7692C16.5595 20.5183 17.2708 20.0587 17.8124 19.4425C18.354 18.8262 18.7044 18.0777 18.8242 17.2815L21.9179 3.25084C22.0324 2.81302 22.0256 2.35433 21.8983 1.91975C21.7711 1.48518 21.5276 1.08965 21.1919 0.771961V0.771961ZM4.21617 10.7085L2.64042 9.20609C2.27349 8.86428 2.01633 8.42965 1.8991 7.95322C1.78187 7.47679 1.80944 6.97833 1.97858 6.51634C2.14257 6.04237 2.44572 5.62333 2.85198 5.30907C3.25824 4.9948 3.75051 4.79852 4.27025 4.74359L18.7912 1.82546L5.01825 14.9741V12.5635C5.01964 12.219 4.94947 11.8777 4.81179 11.5593C4.67412 11.2409 4.47167 10.9517 4.21617 10.7085V10.7085ZM17.0229 16.9822C16.9525 17.4655 16.7424 17.9205 16.4162 18.2961C16.0899 18.6718 15.6604 18.9532 15.176 19.1088C14.6915 19.2643 14.1711 19.2879 13.6734 19.1769C13.1756 19.0659 12.7201 18.8246 12.358 18.4802L10.7813 16.9752C10.5268 16.7309 10.2241 16.5373 9.89072 16.4054C9.55731 16.2735 9.19981 16.2061 8.83892 16.207H6.3135L20.0883 3.06271L17.0229 16.9822Z" fill="#1C1C1C"/>
</g>
<defs>
<clipPath id="clip0_721_1385">
<rect width="22" height="21" fill="white"/>
</clipPath>
</defs>
</svg>
