<svg width="24" height="24" viewBox="0 0 24 24" fill="none" xmlns="http://www.w3.org/2000/svg">
<path d="M13.1013 19.0001C12.9035 18.9992 12.7104 18.9398 12.5464 18.8292C12.3825 18.7187 12.2549 18.5619 12.18 18.3789C12.1051 18.1959 12.0861 17.9947 12.1255 17.8009C12.1649 17.6071 12.2609 17.4293 12.4013 17.2901L17.0013 12.7101C17.095 12.6171 17.1694 12.5065 17.2202 12.3846C17.2709 12.2628 17.2971 12.1321 17.2971 12.0001C17.2971 11.868 17.2709 11.7373 17.2202 11.6155C17.1694 11.4936 17.095 11.383 17.0013 11.2901L12.4013 6.71006C12.3075 6.6171 12.2332 6.5065 12.1824 6.38464C12.1316 6.26278 12.1055 6.13207 12.1055 6.00006C12.1055 5.86805 12.1316 5.73734 12.1824 5.61548C12.2332 5.49362 12.3075 5.38302 12.4013 5.29006C12.5886 5.10381 12.8421 4.99927 13.1063 4.99927C13.3705 4.99927 13.6239 5.10381 13.8113 5.29006L18.4013 9.88006C18.9631 10.4426 19.2787 11.2051 19.2787 12.0001C19.2787 12.7951 18.9631 13.5576 18.4013 14.1201L13.8113 18.7101C13.7178 18.8027 13.607 18.8761 13.4852 18.9258C13.3633 18.9756 13.2329 19.0008 13.1013 19.0001Z" fill="#D77E6C"/>
<path d="M6.10128 19.0001C5.9035 18.9992 5.71042 18.9398 5.54643 18.8292C5.38245 18.7187 5.25493 18.5619 5.18001 18.3789C5.10508 18.1959 5.08611 17.9947 5.1255 17.8009C5.16488 17.6071 5.26085 17.4293 5.40128 17.2901L10.6913 12.0001L5.40128 6.71006C5.30755 6.6171 5.23315 6.5065 5.18238 6.38464C5.13162 6.26278 5.10548 6.13207 5.10548 6.00006C5.10548 5.86805 5.13162 5.73734 5.18238 5.61548C5.23315 5.49362 5.30755 5.38302 5.40128 5.29006C5.58864 5.10381 5.84209 4.99927 6.10628 4.99927C6.37046 4.99927 6.62391 5.10381 6.81128 5.29006L12.8113 11.2901C12.905 11.383 12.9794 11.4936 13.0302 11.6155C13.0809 11.7373 13.1071 11.868 13.1071 12.0001C13.1071 12.1321 13.0809 12.2628 13.0302 12.3846C12.9794 12.5065 12.905 12.6171 12.8113 12.7101L6.81128 18.7101C6.71784 18.8027 6.60702 18.8761 6.48518 18.9258C6.36335 18.9756 6.23288 19.0008 6.10128 19.0001Z" fill="#D77E6C"/>
</svg>
