<svg width="15" height="15" viewBox="0 0 15 15" fill="none" xmlns="http://www.w3.org/2000/svg">
<path d="M8.18781 11.8745C8.0642 11.874 7.94352 11.8368 7.84103 11.7677C7.73854 11.6986 7.65885 11.6007 7.61202 11.4863C7.56519 11.3719 7.55333 11.2462 7.57795 11.1251C7.60256 11.0039 7.66255 10.8928 7.75031 10.8058L10.6253 7.94327C10.6839 7.88517 10.7304 7.81604 10.7621 7.73988C10.7939 7.66372 10.8102 7.58203 10.8102 7.49952C10.8102 7.41701 10.7939 7.33532 10.7621 7.25916C10.7304 7.183 10.6839 7.11387 10.6253 7.05577L7.75031 4.19327C7.69173 4.13517 7.64523 4.06604 7.6135 3.98988C7.58177 3.91372 7.56544 3.83203 7.56544 3.74952C7.56544 3.66701 7.58177 3.58532 7.6135 3.50916C7.64523 3.433 7.69173 3.36387 7.75031 3.30577C7.86741 3.18936 8.02582 3.12402 8.19094 3.12402C8.35605 3.12402 8.51446 3.18936 8.63156 3.30577L11.5003 6.17452C11.8514 6.52608 12.0487 7.00264 12.0487 7.49952C12.0487 7.9964 11.8514 8.47296 11.5003 8.82452L8.63156 11.6933C8.57316 11.7512 8.5039 11.797 8.42775 11.8281C8.3516 11.8592 8.27007 11.875 8.18781 11.8745Z" fill="#1C1C1C"/>
<path d="M3.81281 11.8745C3.6892 11.874 3.56852 11.8368 3.46603 11.7677C3.36354 11.6986 3.28385 11.6007 3.23702 11.4863C3.19019 11.3719 3.17833 11.2462 3.20295 11.1251C3.22756 11.0039 3.28755 10.8928 3.37531 10.8058L6.68156 7.49952L3.37531 4.19327C3.31673 4.13517 3.27023 4.06604 3.2385 3.98988C3.20677 3.91372 3.19044 3.83203 3.19044 3.74952C3.19044 3.66701 3.20677 3.58532 3.2385 3.50916C3.27023 3.433 3.31673 3.36387 3.37531 3.30577C3.49241 3.18936 3.65082 3.12402 3.81593 3.12402C3.98105 3.12402 4.13946 3.18936 4.25656 3.30577L8.00656 7.05577C8.06514 7.11387 8.11164 7.183 8.14337 7.25916C8.1751 7.33532 8.19143 7.41701 8.19143 7.49952C8.19143 7.58203 8.1751 7.66372 8.14337 7.73988C8.11164 7.81604 8.06514 7.88517 8.00656 7.94327L4.25656 11.6933C4.19816 11.7512 4.1289 11.797 4.05275 11.8281C3.9766 11.8592 3.89506 11.875 3.81281 11.8745Z" fill="#1C1C1C"/>
</svg>
