<svg width="40" height="40" viewBox="0 0 40 40" fill="none" xmlns="http://www.w3.org/2000/svg">
<g clip-path="url(#clip0_3038_7364)">
<path d="M20 0C15.0758 0.00351061 10.3269 1.8277 6.66667 5.12167V1.66667C6.66667 1.22464 6.49107 0.800716 6.17851 0.488155C5.86595 0.175595 5.44203 0 5 0C4.55797 0 4.13405 0.175595 3.82149 0.488155C3.50893 0.800716 3.33333 1.22464 3.33333 1.66667V6.66667C3.33333 7.99275 3.86012 9.26452 4.7978 10.2022C5.73548 11.1399 7.00725 11.6667 8.33333 11.6667H13.3333C13.7754 11.6667 14.1993 11.4911 14.5118 11.1785C14.8244 10.866 15 10.442 15 10C15 9.55797 14.8244 9.13405 14.5118 8.82149C14.1993 8.50893 13.7754 8.33333 13.3333 8.33333H8.33333C8.27713 8.325 8.22147 8.31332 8.16667 8.29833C10.8825 5.56305 14.4635 3.85513 18.2984 3.46611C22.1333 3.07709 25.9844 4.03109 29.1942 6.16527C32.404 8.29944 34.7737 11.4815 35.8987 15.1683C37.0236 18.855 36.8342 22.8179 35.3626 26.3806C33.8911 29.9432 31.2287 32.8847 27.8299 34.7029C24.4311 36.5212 20.5067 37.1034 16.7264 36.3504C12.9461 35.5973 9.54431 33.5556 7.10176 30.5737C4.65921 27.5918 3.32728 23.8546 3.33333 20C3.33333 19.558 3.15774 19.1341 2.84518 18.8215C2.53262 18.5089 2.10869 18.3333 1.66667 18.3333C1.22464 18.3333 0.800716 18.5089 0.488155 18.8215C0.175595 19.1341 0 19.558 0 20C0 23.9556 1.17298 27.8224 3.37061 31.1114C5.56824 34.4004 8.69181 36.9638 12.3463 38.4776C16.0009 39.9913 20.0222 40.3874 23.9018 39.6157C27.7814 38.844 31.3451 36.9392 34.1421 34.1421C36.9392 31.3451 38.844 27.7814 39.6157 23.9018C40.3874 20.0222 39.9913 16.0009 38.4776 12.3463C36.9638 8.69181 34.4004 5.56824 31.1114 3.37061C27.8224 1.17298 23.9556 0 20 0V0Z" fill="#1C1C1C"/>
<path d="M20.0007 10C19.5586 10 19.1347 10.1756 18.8221 10.4882C18.5096 10.8007 18.334 11.2246 18.334 11.6667V20C18.3341 20.442 18.5097 20.8658 18.8223 21.1783L23.8223 26.1783C24.1367 26.4819 24.5577 26.6499 24.9947 26.6461C25.4316 26.6423 25.8497 26.467 26.1587 26.158C26.4677 25.849 26.643 25.431 26.6468 24.994C26.6506 24.557 26.4826 24.136 26.179 23.8217L21.6673 19.31V11.6667C21.6673 11.2246 21.4917 10.8007 21.1792 10.4882C20.8666 10.1756 20.4427 10 20.0007 10Z" fill="#1C1C1C"/>
</g>
<defs>
<clipPath id="clip0_3038_7364">
<rect width="40" height="40" fill="white"/>
</clipPath>
</defs>
</svg>
