<svg width="18" height="18" viewBox="0 0 18 18" fill="none" xmlns="http://www.w3.org/2000/svg">
<g clip-path="url(#clip0_2869_1194)">
<path d="M16.1849 9.80408L14.8215 4.89862C14.4218 3.46152 13.5533 2.19924 12.3539 1.31243C11.1545 0.425613 9.69312 -0.0348424 8.202 0.00425217C6.71089 0.0433467 5.27562 0.579747 4.12436 1.52819C2.97309 2.47663 2.17189 3.78269 1.84811 5.23876L0.792527 9.98563C0.675929 10.5101 0.678625 11.0541 0.800415 11.5775C0.922205 12.1008 1.15998 12.5901 1.49619 13.0092C1.83239 13.4284 2.25844 13.7667 2.74288 13.9991C3.22732 14.2315 3.75778 14.3522 4.2951 14.3522H5.09449C5.25919 15.1633 5.69923 15.8925 6.34005 16.4162C6.98087 16.94 7.78306 17.2261 8.6107 17.2261C9.43834 17.2261 10.2405 16.94 10.8813 16.4162C11.5222 15.8925 11.9622 15.1633 12.1269 14.3522H12.7282C13.2814 14.3522 13.827 14.2244 14.3226 13.9786C14.8181 13.7329 15.2501 13.3759 15.5849 12.9356C15.9196 12.4952 16.148 11.9834 16.2522 11.4402C16.3564 10.897 16.3336 10.337 16.1856 9.80408H16.1849ZM8.6107 15.7874C8.16704 15.7855 7.73478 15.6467 7.37307 15.3898C7.01135 15.1329 6.73784 14.7705 6.58996 14.3522H10.6314C10.4836 14.7705 10.21 15.1329 9.84833 15.3898C9.48661 15.6467 9.05436 15.7855 8.6107 15.7874ZM14.4419 12.0666C14.2419 12.3319 13.9828 12.5469 13.6852 12.6945C13.3876 12.8421 13.0597 12.9183 12.7275 12.917H4.2951C3.97274 12.9169 3.65452 12.8445 3.36391 12.705C3.0733 12.5655 2.81772 12.3625 2.61605 12.1111C2.41437 11.8596 2.27174 11.566 2.19869 11.2521C2.12564 10.9381 2.12403 10.6117 2.19399 10.2971L3.24885 5.54947C3.50313 4.40578 4.13242 3.37991 5.0367 2.63493C5.94097 1.88996 7.06832 1.46865 8.23954 1.43796C9.41076 1.40728 10.5586 1.76899 11.5007 2.4656C12.4427 3.1622 13.1248 4.15372 13.4387 5.28253L14.8021 10.188C14.8922 10.5076 14.9065 10.8438 14.844 11.1699C14.7815 11.496 14.6438 11.803 14.4419 12.0666Z" fill="#1C1C1C"/>
</g>
<defs>
<clipPath id="clip0_2869_1194">
<rect width="17.2222" height="17.2222" fill="white"/>
</clipPath>
</defs>
</svg>
