<svg width="38" height="35" viewBox="0 0 38 35" fill="none" xmlns="http://www.w3.org/2000/svg">
<g clip-path="url(#clip0_3035_7346)">
<path d="M33.25 35.0013H30.0833V27.6469C30.0821 26.5036 29.5884 25.4074 28.7106 24.599C27.8329 23.7905 26.6428 23.3358 25.4014 23.3346H12.5986C11.3572 23.3358 10.1671 23.7905 9.28936 24.599C8.4116 25.4074 7.91792 26.5036 7.91667 27.6469V35.0013H4.75V27.6469C4.75251 25.7304 5.58022 23.893 7.05157 22.5378C8.52292 21.1826 10.5178 20.4203 12.5986 20.418H25.4014C27.4822 20.4203 29.4771 21.1826 30.9484 22.5378C32.4198 23.893 33.2475 25.7304 33.25 27.6469V35.0013Z" fill="white"/>
<path d="M19 17.5C17.1211 17.5 15.2844 16.9868 13.7221 16.0254C12.1598 15.0639 10.9422 13.6973 10.2231 12.0985C9.50412 10.4996 9.31598 8.7403 9.68254 7.04296C10.0491 5.34563 10.9539 3.78653 12.2825 2.56282C13.6111 1.33911 15.3038 0.505753 17.1466 0.168133C18.9895 -0.169488 20.8996 0.00379125 22.6355 0.666058C24.3714 1.32832 25.8551 2.44983 26.899 3.88876C27.9428 5.32769 28.5 7.01942 28.5 8.75C28.4975 11.0699 27.4958 13.2942 25.7147 14.9346C23.9337 16.5751 21.5188 17.4977 19 17.5V17.5ZM19 2.91667C17.7474 2.91667 16.5229 3.25879 15.4814 3.89976C14.4399 4.54074 13.6281 5.45178 13.1488 6.51768C12.6694 7.58359 12.544 8.75647 12.7884 9.88803C13.0327 11.0196 13.6359 12.059 14.5217 12.8748C15.4074 13.6906 16.5359 14.2462 17.7644 14.4713C18.993 14.6963 20.2664 14.5808 21.4237 14.1393C22.5809 13.6978 23.5701 12.9501 24.266 11.9908C24.9619 11.0315 25.3333 9.90373 25.3333 8.75C25.3333 7.20291 24.6661 5.71918 23.4783 4.62521C22.2906 3.53125 20.6797 2.91667 19 2.91667Z" fill="white"/>
</g>
<defs>
<clipPath id="clip0_3035_7346">
<rect width="38" height="35" fill="white"/>
</clipPath>
</defs>
</svg>
