<svg width="24" height="22" viewBox="0 0 24 22" fill="none" xmlns="http://www.w3.org/2000/svg">
<g clip-path="url(#clip0_721_1383)">
<path d="M11.9981 11C12.7892 11 13.5626 10.785 14.2204 10.3821C14.8782 9.97916 15.3909 9.4065 15.6936 8.73651C15.9964 8.06651 16.0756 7.32927 15.9212 6.618C15.7669 5.90674 15.3859 5.2534 14.8265 4.74061C14.2671 4.22782 13.5544 3.8786 12.7785 3.73712C12.0025 3.59564 11.1983 3.66825 10.4674 3.94578C9.73646 4.2233 9.11175 4.69326 8.67223 5.29624C8.2327 5.89922 7.9981 6.60814 7.9981 7.33333C7.9981 8.30579 8.41953 9.23843 9.16968 9.92606C9.91982 10.6137 10.9372 11 11.9981 11ZM11.9981 5.5C12.3937 5.5 12.7803 5.60752 13.1092 5.80897C13.4381 6.01042 13.6945 6.29675 13.8459 6.63175C13.9972 6.96674 14.0368 7.33537 13.9597 7.691C13.8825 8.04663 13.692 8.3733 13.4123 8.6297C13.1326 8.88609 12.7762 9.0607 12.3883 9.13144C12.0003 9.20218 11.5982 9.16587 11.2327 9.02711C10.8673 8.88835 10.5549 8.65337 10.3352 8.35188C10.1154 8.05039 9.9981 7.69593 9.9981 7.33333C9.9981 6.8471 10.2088 6.38079 10.5839 6.03697C10.959 5.69315 11.4677 5.5 11.9981 5.5ZM20.6581 8.39392L19.9391 8.17483C20.0685 7.1481 19.9596 6.10788 19.6197 5.12241C19.2798 4.13694 18.7164 3.22847 17.9666 2.45657C17.2168 1.68467 16.2974 1.06678 15.2688 0.643421C14.2402 0.220062 13.1256 0.000795191 11.9981 0C10.8559 0.000404222 9.72698 0.22522 8.68752 0.659299C7.64806 1.09338 6.72217 1.72664 5.97223 2.51641C5.22228 3.30618 4.66571 4.23413 4.34001 5.23771C4.01431 6.2413 3.92705 7.29722 4.0841 8.33433C3.12714 8.4979 2.24223 8.91176 1.5361 9.526C1.04728 9.95202 0.658672 10.4652 0.394181 11.0339C0.12969 11.6027 -0.0050985 12.2151 -0.00189742 12.8333V16.5688C0.000204178 17.56 0.351895 18.524 1.00069 19.317C1.64949 20.1099 2.56062 20.6894 3.5981 20.9688L6.4681 21.7938C6.95017 21.9313 7.45224 22.0008 7.9571 22C8.41509 21.9995 8.8709 21.9421 9.3121 21.8295L15.0921 20.262C15.607 20.1332 16.1502 20.1332 16.6651 20.262L19.0521 20.9953C19.6404 21.1266 20.2535 21.1337 20.8453 21.0162C21.437 20.8986 21.9919 20.6595 22.4682 20.3167C22.9444 19.974 23.3295 19.5366 23.5946 19.0376C23.8596 18.5386 23.9976 17.9909 23.9981 17.4359V12.716C23.9958 11.7676 23.6736 10.8431 23.0757 10.0692C22.4777 9.29523 21.6333 8.70975 20.6581 8.393V8.39392ZM7.7561 3.4485C8.31236 2.93653 8.97343 2.5303 9.70139 2.2531C10.4293 1.97591 11.2098 1.83322 11.9981 1.83322C12.7864 1.83322 13.5669 1.97591 14.2948 2.2531C15.0228 2.5303 15.6838 2.93653 16.2401 3.4485C17.3623 4.48355 17.993 5.883 17.9951 7.34226C17.9971 8.80152 17.3703 10.2025 16.2511 11.2402L12.6981 14.4073C12.5127 14.5739 12.2633 14.6673 12.0036 14.6673C11.7439 14.6673 11.4945 14.5739 11.3091 14.4073L7.7561 11.2539C6.63157 10.2166 6.00041 8.8136 6.00041 7.35121C6.00041 5.88881 6.63157 4.48581 7.7561 3.4485V3.4485ZM21.9981 17.4359C21.9987 17.7136 21.9302 17.9877 21.7978 18.2374C21.6654 18.4871 21.4726 18.7058 21.2341 18.8769C21.0087 19.043 20.7462 19.1616 20.4652 19.2242C20.1841 19.2867 19.8915 19.2918 19.6081 19.239L17.2631 18.5167C16.3761 18.2831 15.436 18.278 14.5461 18.502L8.7621 20.0677C8.20638 20.2082 7.61826 20.199 7.0681 20.0411L4.1741 19.2161C3.54776 19.0501 2.99706 18.7023 2.6047 18.2249C2.21234 17.7476 1.99949 17.1664 1.9981 16.5688V12.8333C1.99586 12.4628 2.07631 12.0958 2.23453 11.7548C2.39274 11.4138 2.62537 11.1061 2.9181 10.8506C3.37636 10.4502 3.96012 10.1918 4.5871 10.1118C4.99021 11.0277 5.59048 11.8597 6.3521 12.5583L9.9191 15.7236C10.4766 16.224 11.2258 16.5042 12.0061 16.5042C12.7864 16.5042 13.5356 16.224 14.0931 15.7236L17.6561 12.5492C18.4539 11.8149 19.0719 10.9334 19.4691 9.96325L20.0061 10.1264C20.5885 10.3177 21.0923 10.669 21.4488 11.1325C21.8053 11.5959 21.9971 12.1489 21.9981 12.716V17.4359Z" fill="#1C1C1C"/>
</g>
<defs>
<clipPath id="clip0_721_1383">
<rect width="24" height="22" fill="white"/>
</clipPath>
</defs>
</svg>
