<svg width="19" height="20" viewBox="0 0 19 20" fill="none" xmlns="http://www.w3.org/2000/svg">
<g clip-path="url(#clip0_415_2150)">
<path d="M18.2096 13.3336C17.9997 13.3336 17.7983 13.4214 17.6498 13.5777C17.5014 13.734 17.418 13.9459 17.418 14.1669V15.8336C17.418 16.4966 17.1677 17.1325 16.7223 17.6014C16.2769 18.0702 15.6729 18.3336 15.043 18.3336H13.4596C13.2497 18.3336 13.0483 18.4214 12.8998 18.5777C12.7514 18.7339 12.668 18.9459 12.668 19.1669C12.668 19.3879 12.7514 19.5999 12.8998 19.7562C13.0483 19.9125 13.2497 20.0003 13.4596 20.0003H15.043C16.0924 19.9989 17.0985 19.5595 17.8405 18.7784C18.5826 17.9973 19 16.9383 19.0013 15.8336V14.1669C19.0013 13.9459 18.9179 13.734 18.7694 13.5777C18.621 13.4214 18.4196 13.3336 18.2096 13.3336Z" fill="#D77E6C"/>
<path d="M0.791667 6.66667C1.00163 6.66667 1.20299 6.57887 1.35146 6.42259C1.49993 6.26631 1.58333 6.05435 1.58333 5.83333V4.16667C1.58333 3.50363 1.83356 2.86774 2.27895 2.3989C2.72435 1.93006 3.32844 1.66667 3.95833 1.66667H5.54167C5.75163 1.66667 5.95299 1.57887 6.10146 1.42259C6.24993 1.26631 6.33333 1.05435 6.33333 0.833333C6.33333 0.61232 6.24993 0.400358 6.10146 0.244078C5.95299 0.0877974 5.75163 0 5.54167 0L3.95833 0C2.9089 0.00132321 1.90282 0.440735 1.16076 1.22185C0.418698 2.00296 0.00125705 3.062 0 4.16667L0 5.83333C0 6.05435 0.0834075 6.26631 0.231874 6.42259C0.38034 6.57887 0.581704 6.66667 0.791667 6.66667Z" fill="#D77E6C"/>
<path d="M5.54167 18.3336H3.95833C3.32844 18.3336 2.72435 18.0702 2.27895 17.6014C1.83356 17.1325 1.58333 16.4966 1.58333 15.8336V14.1669C1.58333 13.9459 1.49993 13.734 1.35146 13.5777C1.20299 13.4214 1.00163 13.3336 0.791667 13.3336C0.581704 13.3336 0.38034 13.4214 0.231874 13.5777C0.0834075 13.734 0 13.9459 0 14.1669L0 15.8336C0.00125705 16.9383 0.418698 17.9973 1.16076 18.7784C1.90282 19.5595 2.9089 19.9989 3.95833 20.0003H5.54167C5.75163 20.0003 5.95299 19.9125 6.10146 19.7562C6.24993 19.5999 6.33333 19.3879 6.33333 19.1669C6.33333 18.9459 6.24993 18.7339 6.10146 18.5777C5.95299 18.4214 5.75163 18.3336 5.54167 18.3336Z" fill="#D77E6C"/>
<path d="M15.043 -7.62939e-06H13.4596C13.2497 -7.62939e-06 13.0483 0.0877898 12.8998 0.24407C12.7514 0.40035 12.668 0.612312 12.668 0.833326C12.668 1.05434 12.7514 1.2663 12.8998 1.42258C13.0483 1.57886 13.2497 1.66666 13.4596 1.66666H15.043C15.6729 1.66666 16.2769 1.93005 16.7223 2.39889C17.1677 2.86773 17.418 3.50362 17.418 4.16666V5.83333C17.418 6.05434 17.5014 6.2663 17.6498 6.42258C17.7983 6.57886 17.9997 6.66666 18.2096 6.66666C18.4196 6.66666 18.621 6.57886 18.7694 6.42258C18.9179 6.2663 19.0013 6.05434 19.0013 5.83333V4.16666C19 3.062 18.5826 2.00296 17.8405 1.22184C17.0985 0.440727 16.0924 0.00131559 15.043 -7.62939e-06V-7.62939e-06Z" fill="#D77E6C"/>
<path d="M9.4987 9.16663C10.125 9.16663 10.7372 8.97114 11.258 8.60487C11.7788 8.2386 12.1846 7.718 12.4243 7.10891C12.664 6.49983 12.7267 5.8296 12.6045 5.183C12.4823 4.5364 12.1807 3.94245 11.7379 3.47628C11.295 3.0101 10.7308 2.69263 10.1165 2.56402C9.50221 2.4354 8.8655 2.50141 8.28687 2.7537C7.70823 3.00599 7.21367 3.43324 6.86571 3.9814C6.51775 4.52956 6.33203 5.17403 6.33203 5.8333C6.33203 6.71736 6.66566 7.5652 7.25953 8.19032C7.85339 8.81545 8.65885 9.16663 9.4987 9.16663ZM9.4987 4.16663C9.81185 4.16663 10.118 4.26438 10.3784 4.44752C10.6387 4.63065 10.8417 4.89095 10.9615 5.19549C11.0813 5.50004 11.1127 5.83515 11.0516 6.15845C10.9905 6.48175 10.8397 6.77872 10.6183 7.01181C10.3969 7.2449 10.1147 7.40363 9.80759 7.46794C9.50045 7.53225 9.1821 7.49925 8.89278 7.3731C8.60347 7.24695 8.35618 7.03333 8.1822 6.75925C8.00823 6.48517 7.91536 6.16294 7.91536 5.8333C7.91536 5.39127 8.08218 4.96735 8.37911 4.65479C8.67605 4.34223 9.07877 4.16663 9.4987 4.16663Z" fill="#D77E6C"/>
<path d="M14.2487 16.6669C14.4587 16.6669 14.66 16.5791 14.8085 16.4229C14.957 16.2666 15.0404 16.0546 15.0404 15.8336C15.0391 14.5079 14.5383 13.2369 13.6477 12.2995C12.7572 11.3621 11.5498 10.8349 10.2904 10.8336H8.70703C7.44764 10.8349 6.24019 11.3621 5.34966 12.2995C4.45914 13.2369 3.95829 14.5079 3.95703 15.8336C3.95703 16.0546 4.04044 16.2666 4.18891 16.4229C4.33737 16.5791 4.53873 16.6669 4.7487 16.6669C4.95866 16.6669 5.16002 16.5791 5.30849 16.4229C5.45696 16.2666 5.54036 16.0546 5.54036 15.8336C5.54036 14.9495 5.87399 14.1017 6.46786 13.4766C7.06172 12.8515 7.86718 12.5003 8.70703 12.5003H10.2904C11.1302 12.5003 11.9357 12.8515 12.5295 13.4766C13.1234 14.1017 13.457 14.9495 13.457 15.8336C13.457 16.0546 13.5404 16.2666 13.6889 16.4229C13.8374 16.5791 14.0387 16.6669 14.2487 16.6669Z" fill="#D77E6C"/>
</g>
<defs>
<clipPath id="clip0_415_2150">
<rect width="19" height="20" fill="white"/>
</clipPath>
</defs>
</svg>
