<svg width="35" height="35" viewBox="0 0 35 35" fill="none" xmlns="http://www.w3.org/2000/svg">
<path d="M17.5003 11.668C16.3466 11.668 15.2188 12.0101 14.2595 12.6511C13.3002 13.292 12.5525 14.2031 12.111 15.269C11.6695 16.3349 11.554 17.5078 11.7791 18.6393C12.0042 19.7709 12.5597 20.8103 13.3755 21.6261C14.1913 22.4419 15.2307 22.9975 16.3623 23.2226C17.4939 23.4476 18.6667 23.3321 19.7326 22.8906C20.7986 22.4491 21.7096 21.7014 22.3506 20.7421C22.9915 19.7828 23.3337 18.655 23.3337 17.5013C23.3337 15.9542 22.7191 14.4705 21.6251 13.3765C20.5312 12.2826 19.0474 11.668 17.5003 11.668V11.668ZM17.5003 20.418C16.9235 20.418 16.3596 20.2469 15.8799 19.9264C15.4003 19.6059 15.0264 19.1504 14.8057 18.6175C14.5849 18.0845 14.5272 17.4981 14.6397 16.9323C14.7522 16.3665 15.03 15.8468 15.4379 15.4389C15.8458 15.031 16.3655 14.7532 16.9313 14.6407C17.4971 14.5281 18.0835 14.5859 18.6165 14.8067C19.1494 15.0274 19.605 15.4012 19.9254 15.8809C20.2459 16.3605 20.417 16.9244 20.417 17.5013C20.417 18.2749 20.1097 19.0167 19.5627 19.5637C19.0157 20.1107 18.2739 20.418 17.5003 20.418Z" fill="#D77E6C"/>
<path d="M31.0538 20.2708L30.4063 19.8975C30.6978 18.3115 30.6978 16.6856 30.4063 15.0996L31.0538 14.7262C31.5517 14.439 31.9882 14.0565 32.3383 13.6005C32.6884 13.1446 32.9452 12.6241 33.0942 12.0689C33.2432 11.5137 33.2813 10.9346 33.2064 10.3646C33.1316 9.79465 32.9452 9.24501 32.658 8.74708C32.3707 8.24916 31.9882 7.81268 31.5322 7.46259C31.0763 7.11249 30.5558 6.85563 30.0006 6.70667C29.4454 6.55771 28.8663 6.51957 28.2963 6.59442C27.7263 6.66927 27.1767 6.85565 26.6788 7.14292L26.0298 7.51771C24.8041 6.47051 23.3956 5.6587 21.875 5.12313V4.375C21.875 3.21468 21.4141 2.10188 20.5936 1.28141C19.7732 0.460936 18.6604 0 17.5 0C16.3397 0 15.2269 0.460936 14.4064 1.28141C13.586 2.10188 13.125 3.21468 13.125 4.375V5.12313C11.6046 5.66062 10.1965 6.47442 8.9717 7.52354L8.31982 7.14583C7.31421 6.56567 6.11932 6.40875 4.99801 6.70959C3.8767 7.01043 2.92082 7.74439 2.34066 8.75C1.7605 9.75561 1.60357 10.9505 1.90441 12.0718C2.20525 13.1931 2.93921 14.149 3.94482 14.7292L4.59232 15.1025C4.30082 16.6885 4.30082 18.3144 4.59232 19.9004L3.94482 20.2738C2.93921 20.8539 2.20525 21.8098 1.90441 22.9311C1.60357 24.0524 1.7605 25.2473 2.34066 26.2529C2.92082 27.2585 3.8767 27.9925 4.99801 28.2933C6.11932 28.5942 7.31421 28.4372 8.31982 27.8571L8.96878 27.4823C10.1949 28.5296 11.604 29.3415 13.125 29.8769V30.625C13.125 31.7853 13.586 32.8981 14.4064 33.7186C15.2269 34.5391 16.3397 35 17.5 35C18.6604 35 19.7732 34.5391 20.5936 33.7186C21.4141 32.8981 21.875 31.7853 21.875 30.625V29.8769C23.3955 29.3394 24.8036 28.5256 26.0284 27.4765L26.6802 27.8527C27.6859 28.4329 28.8807 28.5898 30.0021 28.289C31.1234 27.9881 32.0792 27.2542 32.6594 26.2485C33.2396 25.2429 33.3965 24.048 33.0957 22.9267C32.7948 21.8054 32.0609 20.8495 31.0552 20.2694L31.0538 20.2708ZM27.338 14.7642C27.8318 16.5536 27.8318 18.4434 27.338 20.2329C27.2517 20.5444 27.2714 20.8757 27.3939 21.1747C27.5163 21.4738 27.7347 21.7237 28.0146 21.8852L29.5955 22.7981C29.9306 22.9915 30.1752 23.3101 30.2754 23.6838C30.3756 24.0576 30.3233 24.4558 30.1299 24.7909C29.9365 25.1261 29.6179 25.3707 29.2442 25.4709C28.8705 25.5711 28.4723 25.5188 28.1371 25.3254L26.5534 24.4096C26.2732 24.2473 25.947 24.1829 25.6262 24.2265C25.3054 24.27 25.0082 24.4191 24.7815 24.6502C23.4834 25.9753 21.8482 26.9208 20.0521 27.3846C19.7386 27.4652 19.4609 27.6478 19.2626 27.9036C19.0643 28.1595 18.9567 28.474 18.9569 28.7977V30.625C18.9569 31.0118 18.8033 31.3827 18.5298 31.6562C18.2563 31.9297 17.8853 32.0833 17.4986 32.0833C17.1118 32.0833 16.7409 31.9297 16.4674 31.6562C16.1939 31.3827 16.0402 31.0118 16.0402 30.625V28.7992C16.0404 28.4755 15.9329 28.1609 15.7346 27.9051C15.5363 27.6492 15.2585 27.4666 14.945 27.386C13.1489 26.9204 11.5141 25.9729 10.2171 24.6458C9.99038 24.4147 9.69319 24.2657 9.37238 24.2221C9.05158 24.1785 8.72539 24.2429 8.44524 24.4052L6.86441 25.3196C6.69849 25.4169 6.51498 25.4803 6.32442 25.5064C6.13387 25.5324 5.94005 25.5206 5.75411 25.4714C5.56817 25.4222 5.3938 25.3368 5.24102 25.22C5.08824 25.1031 4.96008 24.9572 4.86392 24.7907C4.76775 24.6241 4.70548 24.4402 4.68069 24.2495C4.6559 24.0588 4.66909 23.865 4.71948 23.6794C4.76987 23.4938 4.85647 23.32 4.97431 23.168C5.09214 23.016 5.23888 22.8888 5.40607 22.7938L6.98691 21.8808C7.26683 21.7193 7.48518 21.4694 7.60766 21.1703C7.73014 20.8713 7.74981 20.54 7.66357 20.2285C7.16972 18.4391 7.16972 16.5493 7.66357 14.7598C7.74825 14.449 7.72765 14.1189 7.60497 13.8211C7.48229 13.5232 7.26445 13.2743 6.98545 13.1133L5.40462 12.2004C5.06948 12.007 4.82489 11.6884 4.72465 11.3147C4.62442 10.941 4.67675 10.5427 4.87014 10.2076C5.06352 9.87246 5.38212 9.62787 5.75585 9.52764C6.12957 9.42741 6.52781 9.47974 6.86295 9.67313L8.4467 10.589C8.72609 10.7516 9.05159 10.8168 9.37205 10.7743C9.69252 10.7318 9.98978 10.584 10.2171 10.3542C11.5152 9.02904 13.1504 8.08357 14.9465 7.61979C15.261 7.53895 15.5394 7.35547 15.7378 7.09844C15.9362 6.84141 16.0432 6.52552 16.0417 6.20083V4.375C16.0417 3.98823 16.1953 3.61729 16.4688 3.3438C16.7423 3.07031 17.1133 2.91667 17.5 2.91667C17.8868 2.91667 18.2577 3.07031 18.5312 3.3438C18.8047 3.61729 18.9584 3.98823 18.9584 4.375V6.20083C18.9582 6.52452 19.0657 6.83906 19.264 7.09491C19.4623 7.35075 19.7401 7.53336 20.0536 7.61396C21.8503 8.07939 23.4856 9.02691 24.7829 10.3542C25.0097 10.5853 25.3069 10.7343 25.6277 10.7779C25.9485 10.8215 26.2747 10.7571 26.5548 10.5948L28.1357 9.68042C28.3016 9.58315 28.4851 9.51966 28.6756 9.49361C28.8662 9.46755 29.06 9.47945 29.246 9.52861C29.4319 9.57776 29.6063 9.66322 29.759 9.78004C29.9118 9.89687 30.04 10.0428 30.1361 10.2093C30.2323 10.3759 30.2946 10.5598 30.3194 10.7505C30.3442 10.9412 30.331 11.135 30.2806 11.3206C30.2302 11.5062 30.1436 11.68 30.0258 11.832C29.9079 11.984 29.7612 12.1112 29.594 12.2063L28.0132 13.1192C27.7347 13.2806 27.5175 13.5297 27.3953 13.8275C27.2732 14.1253 27.253 14.4551 27.338 14.7656V14.7642Z" fill="#D77E6C"/>
</svg>
