<svg width="46" height="46" viewBox="0 0 46 46" fill="none" xmlns="http://www.w3.org/2000/svg">
<g clip-path="url(#clip0_3042_7369)">
<path d="M37.055 28.1122C35.6058 28.1134 34.1787 28.4672 32.8968 29.143C31.6149 29.8189 30.5167 30.7965 29.6969 31.9916L17.2213 26.3585C18.1074 24.2188 18.1109 21.8154 17.2309 19.6731L29.6893 14.0113C30.9042 15.7684 32.7086 17.0319 34.7753 17.5726C36.842 18.1132 39.034 17.8953 40.9537 16.9582C42.8735 16.0211 44.3938 14.427 45.2389 12.4651C46.084 10.5031 46.1979 8.30323 45.56 6.26447C44.922 4.22572 43.5745 2.48313 41.7618 1.35279C39.9491 0.222451 37.7914 -0.220762 35.6799 0.103545C33.5684 0.427852 31.6431 1.4982 30.2532 3.12043C28.8633 4.74266 28.1009 6.80933 28.1042 8.94556C28.1123 9.45117 28.1636 9.95517 28.2575 10.4521L15.0133 16.4704C13.7413 15.2786 12.1489 14.4844 10.4317 14.1853C8.71449 13.8861 6.9473 14.0951 5.34723 14.7865C3.74716 15.4779 2.3839 16.6217 1.42494 18.0773C0.465973 19.5328 -0.0469299 21.2368 -0.0507596 22.9799C-0.0545894 24.7229 0.450821 26.4292 1.40338 27.8889C2.35594 29.3487 3.71416 30.4984 5.31117 31.1969C6.90819 31.8953 8.67444 32.112 10.3929 31.8204C12.1115 31.5289 13.7074 30.7416 14.9846 29.5555L28.2633 35.5508C28.171 36.0473 28.1204 36.5505 28.1118 37.0554C28.1115 38.8247 28.6358 40.5544 29.6186 42.0257C30.6013 43.497 31.9983 44.6439 33.6329 45.3211C35.2675 45.9984 37.0662 46.1757 38.8016 45.8306C40.5369 45.4855 42.131 44.6336 43.3821 43.3824C44.6332 42.1313 45.4851 40.5373 45.8302 38.8019C46.1753 37.0666 45.998 35.2679 45.3207 33.6333C44.6435 31.9987 43.4967 30.6017 42.0254 29.6189C40.554 28.6362 38.8243 28.1118 37.055 28.1122V28.1122ZM37.055 3.83381C38.0661 3.83343 39.0546 4.13291 39.8955 4.69436C40.7363 5.25582 41.3918 6.05403 41.779 6.98805C42.1662 7.92206 42.2677 8.94993 42.0707 9.94164C41.8737 10.9333 41.387 11.8444 40.6722 12.5594C39.9573 13.2745 39.0465 13.7616 38.0549 13.9589C37.0633 14.1563 36.0354 14.0552 35.1012 13.6684C34.167 13.2815 33.3686 12.6264 32.8068 11.7857C32.245 10.945 31.9452 9.95665 31.9452 8.94556C31.9462 7.59048 32.4848 6.29117 33.4428 5.3328C34.4008 4.37444 35.6999 3.83533 37.055 3.83381V3.83381ZM8.94518 28.1122C7.93409 28.1126 6.9456 27.8131 6.10472 27.2517C5.26385 26.6902 4.60836 25.892 4.22117 24.958C3.83398 24.024 3.73248 22.9961 3.9295 22.0044C4.12652 21.0127 4.61322 20.1017 5.32803 19.3866C6.04285 18.6715 6.95367 18.1845 7.9453 17.9871C8.93694 17.7897 9.96484 17.8908 10.899 18.2777C11.8332 18.6645 12.6316 19.3197 13.1934 20.1603C13.7552 21.001 14.055 21.9894 14.055 23.0005C14.0535 24.3554 13.5147 25.6544 12.5568 26.6127C11.5989 27.5709 10.3001 28.1102 8.94518 28.1122ZM37.055 42.1671C36.044 42.1671 35.0557 41.8673 34.2151 41.3057C33.3745 40.744 32.7193 39.9456 32.3324 39.0116C31.9455 38.0775 31.8442 37.0497 32.0415 36.0581C32.2387 35.0666 32.7256 34.1557 33.4405 33.4408C34.1553 32.7259 35.0662 32.2391 36.0578 32.0419C37.0493 31.8446 38.0771 31.9459 39.0112 32.3328C39.9452 32.7196 40.7436 33.3748 41.3053 34.2155C41.867 35.0561 42.1668 36.0444 42.1668 37.0554C42.1657 38.4108 41.6269 39.7104 40.6684 40.6688C39.71 41.6272 38.4104 42.1661 37.055 42.1671V42.1671Z" fill="white"/>
</g>
<defs>
<clipPath id="clip0_3042_7369">
<rect width="46" height="46" fill="white"/>
</clipPath>
</defs>
</svg>
