<svg width="35" height="35" viewBox="0 0 35 35" fill="none" xmlns="http://www.w3.org/2000/svg">
<g clip-path="url(#clip0_692_1441)">
<path d="M10.2077 35.0008C11.8185 35.0008 13.1243 33.695 13.1243 32.0841C13.1243 30.4733 11.8185 29.1675 10.2077 29.1675C8.59685 29.1675 7.29102 30.4733 7.29102 32.0841C7.29102 33.695 8.59685 35.0008 10.2077 35.0008Z" fill="#D77E6C"/>
<path d="M24.7917 35.0008C26.4025 35.0008 27.7083 33.695 27.7083 32.0841C27.7083 30.4733 26.4025 29.1675 24.7917 29.1675C23.1808 29.1675 21.875 30.4733 21.875 32.0841C21.875 33.695 23.1808 35.0008 24.7917 35.0008Z" fill="#D77E6C"/>
<path d="M34.541 1.94749C34.2675 1.67409 33.8966 1.52051 33.5099 1.52051C33.1232 1.52051 32.7523 1.67409 32.4789 1.94749L24.9553 9.47832L22.6935 7.11728C22.5607 6.9792 22.4021 6.86861 22.2267 6.79183C22.0512 6.71505 21.8623 6.67358 21.6709 6.66979C21.4794 6.666 21.289 6.69996 21.1107 6.76973C20.9323 6.83951 20.7694 6.94373 20.6314 7.07645C20.4933 7.20916 20.3827 7.36778 20.3059 7.54323C20.2291 7.71869 20.1877 7.90755 20.1839 8.09903C20.1762 8.48575 20.3225 8.85967 20.5905 9.13853L22.9443 11.5871C23.1951 11.858 23.4982 12.0752 23.8354 12.2256C24.1725 12.376 24.5366 12.4564 24.9057 12.4621H24.9539C25.3156 12.4633 25.674 12.3926 26.0082 12.2542C26.3424 12.1157 26.6458 11.9123 26.9007 11.6556L34.541 4.00957C34.8143 3.73609 34.9679 3.36523 34.9679 2.97853C34.9679 2.59183 34.8143 2.22097 34.541 1.94749V1.94749Z" fill="#D77E6C"/>
<path d="M31.9375 13.1483C31.7489 13.1143 31.5555 13.1177 31.3683 13.1584C31.1811 13.1991 31.0037 13.2763 30.8463 13.3856C30.689 13.4949 30.5547 13.6342 30.4511 13.7954C30.3476 13.9566 30.2768 14.1366 30.2429 14.3252L30.0562 15.3592C29.8743 16.3688 29.3434 17.2824 28.5562 17.9403C27.769 18.5982 26.7757 18.9585 25.7498 18.9583H7.90125L6.53042 7.29167H16.0417C16.4284 7.29167 16.7994 7.13802 17.0729 6.86453C17.3464 6.59104 17.5 6.22011 17.5 5.83333C17.5 5.44656 17.3464 5.07563 17.0729 4.80214C16.7994 4.52865 16.4284 4.375 16.0417 4.375H6.18625L6.125 3.86167C5.99932 2.79796 5.48779 1.81731 4.68736 1.10557C3.88692 0.393829 2.85319 0.00045622 1.78208 0L1.45833 0C1.07156 0 0.700626 0.153645 0.427136 0.427136C0.153645 0.700627 0 1.07156 0 1.45833C0 1.84511 0.153645 2.21604 0.427136 2.48953C0.700626 2.76302 1.07156 2.91667 1.45833 2.91667H1.78208C2.13928 2.91671 2.48403 3.04785 2.75096 3.28521C3.01789 3.52257 3.18842 3.84963 3.23021 4.20437L5.23687 21.2669C5.4452 23.0414 6.29778 24.6776 7.63278 25.865C8.96779 27.0524 10.6923 27.7084 12.479 27.7083H27.7083C28.0951 27.7083 28.466 27.5547 28.7395 27.2812C29.013 27.0077 29.1667 26.6368 29.1667 26.25C29.1667 25.8632 29.013 25.4923 28.7395 25.2188C28.466 24.9453 28.0951 24.7917 27.7083 24.7917H12.479C11.5741 24.7918 10.6914 24.5114 9.95256 23.9891C9.21368 23.4667 8.65496 22.7281 8.35333 21.875H25.7498C27.4594 21.8751 29.1147 21.2745 30.4264 20.1781C31.7382 19.0818 32.623 17.5594 32.9262 15.8769L33.1129 14.8415C33.1813 14.4611 33.096 14.0691 32.8756 13.7517C32.6552 13.4342 32.3178 13.2172 31.9375 13.1483Z" fill="#D77E6C"/>
</g>
<defs>
<clipPath id="clip0_692_1441">
<rect width="35" height="35" fill="white"/>
</clipPath>
</defs>
</svg>
