<svg width="19" height="18" viewBox="0 0 19 18" fill="none" xmlns="http://www.w3.org/2000/svg">
<path d="M18.4264 6.65294C17.7117 5.48264 16.8102 4.43727 15.7577 3.55831L17.9744 1.34165C18.1186 1.19234 18.1984 0.99236 18.1966 0.784788C18.1947 0.577215 18.1115 0.378655 17.9647 0.231874C17.8179 0.0850924 17.6194 0.00183368 17.4118 2.99271e-05C17.2042 -0.00177382 17.0042 0.0780218 16.8549 0.22223L14.4443 2.63602C12.95 1.74842 11.2416 1.28581 9.50352 1.29811C4.60231 1.29811 1.80931 4.65319 0.580645 6.65294C0.201063 7.26688 0 7.97442 0 8.69623C0 9.41804 0.201063 10.1256 0.580645 10.7395C1.29533 11.9098 2.19682 12.9552 3.24935 13.8341L1.03269 16.0508C0.957074 16.1238 0.896763 16.2112 0.855273 16.3078C0.813782 16.4044 0.791943 16.5083 0.79103 16.6134C0.790116 16.7185 0.810147 16.8227 0.849952 16.92C0.889758 17.0173 0.948542 17.1057 1.02287 17.18C1.09721 17.2544 1.1856 17.3132 1.28289 17.353C1.38018 17.3928 1.48443 17.4128 1.58955 17.4119C1.69466 17.411 1.79855 17.3891 1.89513 17.3476C1.99172 17.3062 2.07907 17.2458 2.1521 17.1702L4.56827 14.7541C6.06077 15.6415 7.76713 16.1049 9.50352 16.0944C14.4047 16.0944 17.1977 12.7393 18.4264 10.7395C18.806 10.1256 19.007 9.41804 19.007 8.69623C19.007 7.97442 18.806 7.26688 18.4264 6.65294ZM1.92964 9.91065C1.70413 9.54572 1.58468 9.12521 1.58468 8.69623C1.58468 8.26725 1.70413 7.84674 1.92964 7.48181C2.98573 5.76706 5.3726 2.88144 9.50352 2.88144C10.8179 2.87408 12.1138 3.19085 13.2766 3.80373L11.683 5.39736C10.9229 4.89275 10.0117 4.66664 9.10391 4.75741C8.19613 4.84817 7.34771 5.25021 6.7026 5.89532C6.0575 6.54042 5.65546 7.38884 5.5647 8.29662C5.47393 9.20441 5.70004 10.1156 6.20464 10.8757L4.37589 12.7044C3.40618 11.9205 2.57868 10.9754 1.92964 9.91065ZM11.8785 8.69623C11.8785 9.32612 11.6283 9.93021 11.1829 10.3756C10.7375 10.821 10.1334 11.0712 9.50352 11.0712C9.15084 11.0699 8.80305 10.9887 8.48623 10.8337L11.641 7.67894C11.796 7.99576 11.8772 8.34355 11.8785 8.69623ZM7.12852 8.69623C7.12852 8.06634 7.37874 7.46225 7.82414 7.01685C8.26954 6.57145 8.87363 6.32123 9.50352 6.32123C9.8562 6.3226 10.204 6.40379 10.5208 6.55873L7.36602 9.71352C7.21108 9.3967 7.12989 9.04891 7.12852 8.69623ZM17.0774 9.91065C16.0213 11.6254 13.6344 14.511 9.50352 14.511C8.18914 14.5184 6.89321 14.2016 5.73044 13.5887L7.32406 11.9951C8.08412 12.4997 8.99534 12.7258 9.90313 12.6351C10.8109 12.5443 11.6593 12.1422 12.3044 11.4971C12.9495 10.852 13.3516 10.0036 13.4423 9.09584C13.5331 8.18805 13.307 7.27682 12.8024 6.51677L14.6311 4.68802C15.6009 5.47199 16.4284 6.41706 17.0774 7.48181C17.3029 7.84674 17.4224 8.26725 17.4224 8.69623C17.4224 9.12521 17.3029 9.54572 17.0774 9.91065Z" fill="#1C1C1C"/>
</svg>
