<svg width="60" height="60" viewBox="0 0 60 60" fill="none" xmlns="http://www.w3.org/2000/svg">
<g clip-path="url(#clip0_3029_1421)">
<path d="M28.69 37.5C28.027 37.5 27.3911 37.7634 26.9222 38.2322C26.4534 38.7011 26.19 39.337 26.19 40V47.5C26.19 49.4891 25.3998 51.3968 23.9933 52.8033C22.5868 54.2098 20.6791 55 18.69 55H12.5C10.5109 55 8.60322 54.2098 7.1967 52.8033C5.79018 51.3968 5 49.4891 5 47.5V12.5C5 10.5109 5.79018 8.60322 7.1967 7.1967C8.60322 5.79018 10.5109 5 12.5 5H18.69C20.6791 5 22.5868 5.79018 23.9933 7.1967C25.3998 8.60322 26.19 10.5109 26.19 12.5V20C26.19 20.663 26.4534 21.2989 26.9222 21.7678C27.3911 22.2366 28.027 22.5 28.69 22.5C29.353 22.5 29.9889 22.2366 30.4578 21.7678C30.9266 21.2989 31.19 20.663 31.19 20V12.5C31.186 9.18601 29.8678 6.00889 27.5244 3.66555C25.1811 1.3222 22.004 0.00396964 18.69 0H12.5C9.18601 0.00396964 6.00889 1.3222 3.66555 3.66555C1.3222 6.00889 0.00396964 9.18601 0 12.5L0 47.5C0.00396964 50.814 1.3222 53.9911 3.66555 56.3345C6.00889 58.6778 9.18601 59.996 12.5 60H18.69C22.004 59.996 25.1811 58.6778 27.5244 56.3345C29.8678 53.9911 31.186 50.814 31.19 47.5V40C31.19 39.337 30.9266 38.7011 30.4578 38.2322C29.9889 37.7634 29.353 37.5 28.69 37.5Z" fill="#1C1C1C"/>
<path d="M57.1675 24.6979L45.7025 13.2329C45.4719 12.9942 45.196 12.8037 44.891 12.6727C44.586 12.5417 44.258 12.4727 43.926 12.4698C43.5941 12.4669 43.2649 12.5302 42.9576 12.6559C42.6504 12.7816 42.3712 12.9672 42.1365 13.202C41.9018 13.4367 41.7162 13.7158 41.5905 14.0231C41.4647 14.3303 41.4015 14.6595 41.4044 14.9915C41.4073 15.3234 41.4762 15.6514 41.6072 15.9565C41.7383 16.2615 41.9287 16.5373 42.1675 16.7679L52.825 27.4254L15 27.5004C14.337 27.5004 13.7011 27.7638 13.2322 28.2327C12.7634 28.7015 12.5 29.3374 12.5 30.0004C12.5 30.6635 12.7634 31.2994 13.2322 31.7682C13.7011 32.2371 14.337 32.5004 15 32.5004L52.97 32.4254L42.1625 43.2329C41.9237 43.4636 41.7333 43.7394 41.6022 44.0444C41.4712 44.3494 41.4023 44.6775 41.3994 45.0094C41.3965 45.3414 41.4597 45.6706 41.5854 45.9778C41.7112 46.2851 41.8968 46.5642 42.1315 46.7989C42.3662 47.0337 42.6454 47.2193 42.9526 47.345C43.2599 47.4707 43.5891 47.534 43.921 47.5311C44.253 47.5282 44.581 47.4592 44.886 47.3282C45.191 47.1972 45.4669 47.0067 45.6975 46.7679L57.1625 35.3029C58.5692 33.8972 59.36 31.9902 59.3609 30.0015C59.3618 28.0128 58.5729 26.1051 57.1675 24.6979Z" fill="#1C1C1C"/>
</g>
<defs>
<clipPath id="clip0_3029_1421">
<rect width="60" height="60" fill="white"/>
</clipPath>
</defs>
</svg>
