<svg width="15" height="15" viewBox="0 0 15 15" fill="none" xmlns="http://www.w3.org/2000/svg">
<g clip-path="url(#clip0_2948_2639)">
<path d="M14.2672 5.73263L11.8428 3.30826C11.7249 3.19441 11.5671 3.13141 11.4032 3.13284C11.2393 3.13426 11.0826 3.19999 10.9667 3.31587C10.8508 3.43175 10.7851 3.58851 10.7836 3.75238C10.7822 3.91625 10.8452 4.07413 10.9591 4.19201L13.3834 6.61638C13.4555 6.68984 13.5184 6.77167 13.5709 6.86013C13.5616 6.86013 13.5541 6.85513 13.5447 6.85513L3.74219 6.87513C3.57643 6.87513 3.41746 6.94098 3.30025 7.05819C3.18304 7.1754 3.11719 7.33437 3.11719 7.50013C3.11719 7.66589 3.18304 7.82486 3.30025 7.94207C3.41746 8.05928 3.57643 8.12513 3.74219 8.12513L13.5409 8.10513C13.5584 8.10513 13.5728 8.09638 13.5897 8.09513C13.5342 8.20086 13.464 8.29809 13.3809 8.38388L10.9566 10.8083C10.8969 10.8659 10.8493 10.9349 10.8165 11.0111C10.7837 11.0874 10.7665 11.1694 10.7658 11.2524C10.7651 11.3354 10.7809 11.4177 10.8123 11.4945C10.8437 11.5713 10.8901 11.6411 10.9488 11.6998C11.0075 11.7584 11.0773 11.8048 11.1541 11.8363C11.2309 11.8677 11.3132 11.8835 11.3962 11.8828C11.4792 11.8821 11.5612 11.8648 11.6374 11.8321C11.7137 11.7993 11.7827 11.7517 11.8403 11.692L14.2647 9.26763C14.7334 8.79881 14.9967 8.16304 14.9967 7.50013C14.9967 6.83722 14.7334 6.20145 14.2647 5.73263H14.2672Z" fill="white"/>
<path d="M4.375 13.75H3.125C2.62772 13.75 2.15081 13.5525 1.79917 13.2008C1.44754 12.8492 1.25 12.3723 1.25 11.875V3.125C1.25 2.62772 1.44754 2.15081 1.79917 1.79917C2.15081 1.44754 2.62772 1.25 3.125 1.25H4.375C4.54076 1.25 4.69973 1.18415 4.81694 1.06694C4.93415 0.949732 5 0.79076 5 0.625C5 0.45924 4.93415 0.300269 4.81694 0.183058C4.69973 0.065848 4.54076 0 4.375 0L3.125 0C2.2965 0.000992411 1.50222 0.330551 0.916387 0.916387C0.330551 1.50222 0.000992411 2.2965 0 3.125L0 11.875C0.000992411 12.7035 0.330551 13.4978 0.916387 14.0836C1.50222 14.6694 2.2965 14.999 3.125 15H4.375C4.54076 15 4.69973 14.9342 4.81694 14.8169C4.93415 14.6997 5 14.5408 5 14.375C5 14.2092 4.93415 14.0503 4.81694 13.9331C4.69973 13.8158 4.54076 13.75 4.375 13.75Z" fill="white"/>
</g>
<defs>
<clipPath id="clip0_2948_2639">
<rect width="15" height="15" fill="white"/>
</clipPath>
</defs>
</svg>
