<svg width="24" height="45" viewBox="0 0 24 45" fill="none" xmlns="http://www.w3.org/2000/svg">
<path d="M18.7098 29.2099C18.6169 29.1161 18.5063 29.0417 18.3844 28.991C18.2625 28.9402 18.1318 28.9141 17.9998 28.9141C17.8678 28.9141 17.7371 28.9402 17.6152 28.991C17.4934 29.0417 17.3828 29.1161 17.2898 29.2099L12.7098 33.7899C12.6169 33.8836 12.5063 33.958 12.3844 34.0087C12.2625 34.0595 12.1318 34.0856 11.9998 34.0856C11.8678 34.0856 11.7371 34.0595 11.6152 34.0087C11.4934 33.958 11.3828 33.8836 11.2898 33.7899L6.70982 29.2099C6.61685 29.1161 6.50625 29.0417 6.38439 28.991C6.26253 28.9402 6.13183 28.9141 5.99982 28.9141C5.8678 28.9141 5.7371 28.9402 5.61524 28.991C5.49338 29.0417 5.38278 29.1161 5.28982 29.2099C5.10356 29.3972 4.99902 29.6507 4.99902 29.9149C4.99902 30.179 5.10356 30.4325 5.28982 30.6199L9.87982 35.2098C10.4423 35.7716 11.2048 36.0872 11.9998 36.0872C12.7948 36.0872 13.5573 35.7716 14.1198 35.2098L18.7098 30.6199C18.8961 30.4325 19.0006 30.179 19.0006 29.9149C19.0006 29.6507 18.8961 29.3972 18.7098 29.2099V29.2099Z" fill="#1C1C1C"/>
<path d="M5.29018 15.7901C5.38315 15.8839 5.49375 15.9583 5.61561 16.009C5.73746 16.0598 5.86817 16.0859 6.00018 16.0859C6.13219 16.0859 6.2629 16.0598 6.38476 16.009C6.50662 15.9583 6.61722 15.8839 6.71018 15.7901L11.2902 11.2101C11.3831 11.1164 11.4937 11.042 11.6156 10.9913C11.7375 10.9405 11.8682 10.9144 12.0002 10.9144C12.1322 10.9144 12.2629 10.9405 12.3848 10.9913C12.5066 11.042 12.6172 11.1164 12.7102 11.2101L17.2902 15.7901C17.3831 15.8839 17.4937 15.9583 17.6156 16.009C17.7375 16.0598 17.8682 16.0859 18.0002 16.0859C18.1322 16.0859 18.2629 16.0598 18.3848 16.009C18.5066 15.9583 18.6172 15.8839 18.7102 15.7901C18.8964 15.6028 19.001 15.3493 19.001 15.0851C19.001 14.821 18.8964 14.5675 18.7102 14.3801L14.1202 9.79015C13.5577 9.22835 12.7952 8.91279 12.0002 8.91279C11.2052 8.91279 10.4427 9.22835 9.88018 9.79015L5.29018 14.3801C5.10393 14.5675 4.99939 14.821 4.99939 15.0851C4.99939 15.3493 5.10393 15.6028 5.29018 15.7901V15.7901Z" fill="#1C1C1C"/>
</svg>
