<svg width="28" height="28" viewBox="0 0 28 28" fill="none" xmlns="http://www.w3.org/2000/svg">
<g clip-path="url(#clip0_680_1371)">
<path d="M26.8327 12.834H24.4993V10.5006C24.4993 10.1912 24.3764 9.89448 24.1576 9.67569C23.9388 9.4569 23.6421 9.33398 23.3327 9.33398C23.0233 9.33398 22.7265 9.4569 22.5077 9.67569C22.2889 9.89448 22.166 10.1912 22.166 10.5006V12.834H19.8327C19.5233 12.834 19.2265 12.9569 19.0077 13.1757C18.7889 13.3945 18.666 13.6912 18.666 14.0006C18.666 14.3101 18.7889 14.6068 19.0077 14.8256C19.2265 15.0444 19.5233 15.1673 19.8327 15.1673H22.166V17.5006C22.166 17.8101 22.2889 18.1068 22.5077 18.3256C22.7265 18.5444 23.0233 18.6673 23.3327 18.6673C23.6421 18.6673 23.9388 18.5444 24.1576 18.3256C24.3764 18.1068 24.4993 17.8101 24.4993 17.5006V15.1673H26.8327C27.1421 15.1673 27.4388 15.0444 27.6576 14.8256C27.8764 14.6068 27.9993 14.3101 27.9993 14.0006C27.9993 13.6912 27.8764 13.3945 27.6576 13.1757C27.4388 12.9569 27.1421 12.834 26.8327 12.834Z" fill="#1C1C1C"/>
<path d="M10.5 14C11.8845 14 13.2378 13.5895 14.389 12.8203C15.5401 12.0511 16.4373 10.9579 16.9672 9.67879C17.497 8.39971 17.6356 6.99224 17.3655 5.63437C17.0954 4.2765 16.4287 3.02922 15.4497 2.05026C14.4708 1.07129 13.2235 0.404603 11.8656 0.134506C10.5078 -0.13559 9.1003 0.003033 7.82122 0.532846C6.54213 1.06266 5.44888 1.95987 4.67971 3.11101C3.91054 4.26216 3.5 5.61553 3.5 7C3.50185 8.85595 4.23995 10.6354 5.5523 11.9477C6.86465 13.2601 8.64405 13.9982 10.5 14ZM10.5 2.33334C11.423 2.33334 12.3252 2.60703 13.0927 3.11981C13.8601 3.63259 14.4582 4.36143 14.8114 5.21415C15.1646 6.06687 15.2571 7.00518 15.077 7.91043C14.8969 8.81567 14.4525 9.64719 13.7998 10.2998C13.1472 10.9525 12.3157 11.3969 11.4104 11.577C10.5052 11.7571 9.56687 11.6647 8.71414 11.3114C7.86142 10.9582 7.13259 10.3601 6.61981 9.59266C6.10703 8.82524 5.83333 7.92298 5.83333 7C5.83333 5.76233 6.325 4.57534 7.20017 3.70017C8.07534 2.825 9.26232 2.33334 10.5 2.33334V2.33334Z" fill="#1C1C1C"/>
<path d="M10.5 16.334C7.71617 16.3371 5.04725 17.4443 3.07879 19.4128C1.11033 21.3812 0.003088 24.0502 0 26.834C0 27.1434 0.122916 27.4402 0.341709 27.6589C0.560501 27.8777 0.857247 28.0007 1.16667 28.0007C1.47609 28.0007 1.77283 27.8777 1.99162 27.6589C2.21042 27.4402 2.33333 27.1434 2.33333 26.834C2.33333 24.668 3.19375 22.5908 4.72529 21.0593C6.25684 19.5277 8.33407 18.6673 10.5 18.6673C12.6659 18.6673 14.7432 19.5277 16.2747 21.0593C17.8063 22.5908 18.6667 24.668 18.6667 26.834C18.6667 27.1434 18.7896 27.4402 19.0084 27.6589C19.2272 27.8777 19.5239 28.0007 19.8333 28.0007C20.1428 28.0007 20.4395 27.8777 20.6583 27.6589C20.8771 27.4402 21 27.1434 21 26.834C20.9969 24.0502 19.8897 21.3812 17.9212 19.4128C15.9527 17.4443 13.2838 16.3371 10.5 16.334V16.334Z" fill="#1C1C1C"/>
</g>
<defs>
<clipPath id="clip0_680_1371">
<rect width="28" height="28" fill="white"/>
</clipPath>
</defs>
</svg>
